font.ufo
<glyph name="quotesingle" format="1">
  <advance width="600"/>
  <unicode hex="0027"/>
  <outline>
    <contour>
      <point x="268" y="340" type="line"/>
      <point x="332" y="340" type="line"/>
      <point x="360" y="568" type="line"/>
      <point x="363" y="686" type="line"/>
      <point x="237" y="686" type="line"/>
      <point x="240" y="568" type="line"/>
    </contour>
  </outline>
</glyph>
<glyph name="plus" format="1">
  <advance width="600"/>
  <unicode hex="002B"/>
  <outline>
    <contour>
      <point x="262" y="101" type="line"/>
      <point x="338" y="101" type="line"/>
      <point x="338" y="294" type="line"/>
      <point x="519" y="294" type="line"/>
      <point x="519" y="366" type="line"/>
      <point x="338" y="366" type="line"/>
      <point x="338" y="559" type="line"/>
      <point x="262" y="559" type="line"/>
      <point x="262" y="366" type="line"/>
      <point x="81" y="366" type="line"/>
      <point x="81" y="294" type="line"/>
      <point x="262" y="294" type="line"/>
    </contour>
  </outline>
</glyph>
<glyph name="zero" format="1">
	<unicode hex="0030"/>
	<advance width="600"/>
	<outline>
		<contour>
			<point x="300" y="-12" type="curve" smooth="yes"/>
			<point x="443" y="-12"/>
			<point x="533" y="108"/>
			<point x="533" y="321" type="curve" smooth="yes"/>
			<point x="533" y="535"/>
			<point x="443" y="649"/>
			<point x="300" y="649" type="curve" smooth="yes"/>
			<point x="157" y="649"/>
			<point x="67" y="535"/>
			<point x="67" y="321" type="curve" smooth="yes"/>
			<point x="67" y="108"/>
			<point x="157" y="-12"/>
		</contour>
		<contour>
			<point x="300" y="67" type="curve" smooth="yes"/>
			<point x="218" y="67"/>
			<point x="158" y="142"/>
			<point x="158" y="321" type="curve" smooth="yes"/>
			<point x="158" y="500"/>
			<point x="218" y="571"/>
			<point x="300" y="571" type="curve" smooth="yes"/>
			<point x="382" y="571"/>
			<point x="442" y="500"/>
			<point x="442" y="321" type="curve" smooth="yes"/>
			<point x="442" y="142"/>
			<point x="382" y="67"/>
		</contour>
		<contour>
			<point x="300" y="257" type="curve" smooth="yes"/>
			<point x="336" y="257"/>
			<point x="366" y="283"/>
			<point x="366" y="326" type="curve" smooth="yes"/>
			<point x="366" y="369"/>
			<point x="336" y="395"/>
			<point x="300" y="395" type="curve" smooth="yes"/>
			<point x="264" y="395"/>
			<point x="234" y="369"/>
			<point x="234" y="326" type="curve" smooth="yes"/>
			<point x="234" y="283"/>
			<point x="264" y="257"/>
		</contour>
	</outline>
</glyph>
<glyph name="three" format="1">
	<unicode hex="0033"/>
	<advance width="600"/>
	<outline>
		<contour>
			<point x="285" y="-12" type="curve" smooth="yes"/>
			<point x="414" y="-12"/>
			<point x="522" y="56"/>
			<point x="522" y="171" type="curve" smooth="yes"/>
			<point x="522" y="257"/>
			<point x="451" y="312"/>
			<point x="367" y="331" type="curve"/>
			<point x="367" y="335" type="line"/>
			<point x="446" y="362"/>
			<point x="500" y="410"/>
			<point x="500" y="484" type="curve" smooth="yes"/>
			<point x="500" y="589"/>
			<point x="408" y="649"/>
			<point x="282" y="649" type="curve" smooth="yes"/>
			<point x="200" y="649"/>
			<point x="131" y="616"/>
			<point x="76" y="569" type="curve"/>
			<point x="128" y="507" type="line"/>
			<point x="170" y="544"/>
			<point x="221" y="570"/>
			<point x="278" y="570" type="curve" smooth="yes"/>
			<point x="351" y="570"/>
			<point x="400" y="534"/>
			<point x="400" y="477" type="curve" smooth="yes"/>
			<point x="400" y="414"/>
			<point x="345" y="367"/>
			<point x="200" y="367" type="curve"/>
			<point x="200" y="293" type="line"/>
			<point x="363" y="293"/>
			<point x="422" y="246"/>
			<point x="422" y="176" type="curve" smooth="yes"/>
			<point x="422" y="110"/>
			<point x="360" y="69"/>
			<point x="278" y="69" type="curve" smooth="yes"/>
			<point x="202" y="69"/>
			<point x="144" y="103"/>
			<point x="102" y="142" type="curve"/>
			<point x="53" y="78" type="line"/>
			<point x="100" y="29"/>
			<point x="175" y="-12"/>
		</contour>
	</outline>
</glyph>
<glyph name="C" format="1">
  <advance width="600"/>
  <unicode hex="0043"/>
  <outline>
    <contour>
      <point x="352" y="-12" type="curve" smooth="yes"/>
      <point x="439" y="-12"/>
      <point x="506" y="22"/>
      <point x="558" y="83" type="curve"/>
      <point x="502" y="144" type="line"/>
      <point x="463" y="100"/>
      <point x="419" y="75"/>
      <point x="362" y="75" type="curve" smooth="yes"/>
      <point x="243" y="75"/>
      <point x="165" y="172"/>
      <point x="165" y="329" type="curve" smooth="yes"/>
      <point x="165" y="484"/>
      <point x="243" y="580"/>
      <point x="360" y="580" type="curve" smooth="yes"/>
      <point x="414" y="580"/>
      <point x="455" y="558"/>
      <point x="488" y="523" type="curve"/>
      <point x="544" y="586" type="line"/>
      <point x="504" y="628"/>
      <point x="440" y="667"/>
      <point x="360" y="667" type="curve" smooth="yes"/>
      <point x="188" y="667"/>
      <point x="62" y="539"/>
      <point x="62" y="326" type="curve" smooth="yes"/>
      <point x="62" y="111"/>
      <point x="190" y="-12"/>
    </contour>
    <contour>
      <point x="348" y="675" type="move" name="aboveUC"/>
    </contour>
    <contour>
      <point x="343" y="0" type="move" name="baseLC"/>
    </contour>
    <contour>
      <point x="343" y="-20" type="move" name="belowLC"/>
    </contour>
  </outline>
</glyph>
<glyph name="E" format="1">
  <advance width="600"/>
  <unicode hex="0045"/>
  <outline>
    <contour>
      <point x="109" y="0" type="line"/>
      <point x="531" y="0" type="line"/>
      <point x="531" y="84" type="line"/>
      <point x="209" y="84" type="line"/>
      <point x="209" y="300" type="line"/>
      <point x="473" y="300" type="line"/>
      <point x="473" y="384" type="line"/>
      <point x="209" y="384" type="line"/>
      <point x="209" y="571" type="line"/>
      <point x="521" y="571" type="line"/>
      <point x="521" y="655" type="line"/>
      <point x="109" y="655" type="line"/>
    </contour>
    <contour>
      <point x="329" y="675" type="move" name="aboveUC"/>
    </contour>
    <contour>
      <point x="429" y="0" type="move" name="ogonekUC"/>
    </contour>
    <contour>
      <point x="325" y="0" type="move" name="baseLC"/>
    </contour>
    <contour>
      <point x="330" y="-20" type="move" name="belowLC"/>
    </contour>
  </outline>
</glyph>
<glyph name="L" format="1">
  <advance width="600"/>
  <unicode hex="004C"/>
  <outline>
    <contour>
      <point x="127" y="0" type="line"/>
      <point x="541" y="0" type="line"/>
      <point x="541" y="84" type="line"/>
      <point x="226" y="84" type="line"/>
      <point x="226" y="655" type="line"/>
      <point x="127" y="655" type="line"/>
    </contour>
    <contour>
      <point x="190" y="675" type="move" name="aboveUC"/>
    </contour>
    <contour>
      <point x="177" y="340" type="move" name="center"/>
    </contour>
    <contour>
      <point x="345" y="0" type="move" name="baseLC"/>
    </contour>
    <contour>
      <point x="345" y="-20" type="move" name="belowLC"/>
    </contour>
  </outline>
</glyph>
<glyph name="N" format="1">
  <advance width="600"/>
  <unicode hex="004E"/>
  <outline>
    <contour>
      <point x="79" y="0" type="line"/>
      <point x="174" y="0" type="line"/>
      <point x="174" y="314" type="line" smooth="yes"/>
      <point x="174" y="385"/>
      <point x="164" y="459"/>
      <point x="160" y="527" type="curve"/>
      <point x="163" y="527" type="line"/>
      <point x="226" y="391" type="line"/>
      <point x="420" y="0" type="line"/>
      <point x="521" y="0" type="line"/>
      <point x="521" y="655" type="line"/>
      <point x="426" y="655" type="line"/>
      <point x="426" y="343" type="line" smooth="yes"/>
      <point x="426" y="273"/>
      <point x="436" y="194"/>
      <point x="440" y="128" type="curve"/>
      <point x="437" y="128" type="line"/>
      <point x="374" y="264" type="line"/>
      <point x="180" y="655" type="line"/>
      <point x="79" y="655" type="line"/>
    </contour>
    <contour>
      <point x="310" y="675" type="move" name="aboveUC"/>
    </contour>
    <contour>
      <point x="470" y="0" type="move" name="baseLC"/>
    </contour>
    <contour>
      <point x="300" y="-20" type="move" name="belowLC"/>
    </contour>
  </outline>
</glyph>
<glyph name="P" format="1">
	<unicode hex="0050"/>
	<advance width="600"/>
	<outline>
		<contour>
			<point x="95" y="0" type="line"/>
			<point x="195" y="0" type="line"/>
			<point x="195" y="250" type="line"/>
			<point x="302" y="250" type="line" smooth="yes"/>
			<point x="444" y="250"/>
			<point x="547" y="316"/>
			<point x="547" y="458" type="curve" smooth="yes"/>
			<point x="547" y="605"/>
			<point x="446" y="655"/>
			<point x="302" y="655" type="curve" smooth="yes"/>
			<point x="95" y="655" type="line"/>
		</contour>
		<contour>
			<point x="195" y="331" type="line"/>
			<point x="195" y="575" type="line"/>
			<point x="292" y="575" type="line" smooth="yes"/>
			<point x="396" y="575"/>
			<point x="448" y="545"/>
			<point x="448" y="458" type="curve" smooth="yes"/>
			<point x="448" y="371"/>
			<point x="398" y="331"/>
			<point x="292" y="331" type="curve" smooth="yes"/>
		</contour>
		<contour>
			<point name="aboveUC" x="320" y="675" type="move"/>
		</contour>
		<contour>
			<point name="belowLC" x="140" y="-20" type="move"/>
		</contour>
	</outline>
</glyph>
<glyph name="T" format="1">
  <advance width="600"/>
  <unicode hex="0054"/>
  <outline>
    <contour>
      <point x="250" y="0" type="line"/>
      <point x="350" y="0" type="line"/>
      <point x="350" y="571" type="line"/>
      <point x="561" y="571" type="line"/>
      <point x="561" y="655" type="line"/>
      <point x="39" y="655" type="line"/>
      <point x="39" y="571" type="line"/>
      <point x="250" y="571" type="line"/>
    </contour>
    <contour>
      <point x="300" y="675" type="move" name="aboveUC"/>
    </contour>
    <contour>
      <point x="300" y="0" type="move" name="baseLC"/>
    </contour>
    <contour>
      <point x="300" y="-20" type="move" name="belowLC"/>
    </contour>
  </outline>
</glyph>
<glyph name="U" format="1">
	<unicode hex="0055"/>
	<advance width="600"/>
	<outline>
		<contour>
			<point x="301" y="-12" type="curve" smooth="yes"/>
			<point x="437" y="-12"/>
			<point x="525" y="65"/>
			<point x="525" y="249" type="curve" smooth="yes"/>
			<point x="525" y="655" type="line"/>
			<point x="428" y="655" type="line"/>
			<point x="428" y="243" type="line" smooth="yes"/>
			<point x="428" y="123"/>
			<point x="376" y="75"/>
			<point x="301" y="75" type="curve" smooth="yes"/>
			<point x="227" y="75"/>
			<point x="176" y="123"/>
			<point x="176" y="243" type="curve" smooth="yes"/>
			<point x="176" y="655" type="line"/>
			<point x="75" y="655" type="line"/>
			<point x="75" y="249" type="line" smooth="yes"/>
			<point x="75" y="65"/>
			<point x="165" y="-12"/>
		</contour>
		<contour>
			<point name="aboveUC" x="300" y="675" type="move"/>
		</contour>
		<contour>
			<point name="hornLC" x="505" y="665" type="move"/>
		</contour>
		<contour>
			<point name="ogonekUC" x="300" y="0" type="move"/>
		</contour>
		<contour>
			<point name="baseLC" x="300" y="0" type="move"/>
		</contour>
		<contour>
			<point name="belowLC" x="300" y="-20" type="move"/>
		</contour>
	</outline>
</glyph>
<glyph name="bracketright" format="1">
	<unicode hex="005D"/>
	<advance width="600"/>
	<outline>
		<contour>
			<point x="100" y="-152" type="line"/>
			<point x="381" y="-152" type="line"/>
			<point x="381" y="708" type="line"/>
			<point x="100" y="708" type="line"/>
			<point x="100" y="653" type="line"/>
			<point x="304" y="653" type="line"/>
			<point x="304" y="-97" type="line"/>
			<point x="100" y="-97" type="line"/>
		</contour>
	</outline>
</glyph>
<glyph name="c" format="1">
  <advance width="600"/>
  <unicode hex="0063"/>
  <outline>
    <contour>
      <point x="345" y="-12" type="curve" smooth="yes"/>
      <point x="416" y="-12"/>
      <point x="486" y="15"/>
      <point x="541" y="63" type="curve"/>
      <point x="498" y="127" type="line"/>
      <point x="459" y="95"/>
      <point x="412" y="69"/>
      <point x="353" y="69" type="curve" smooth="yes"/>
      <point x="249" y="69"/>
      <point x="178" y="139"/>
      <point x="178" y="244" type="curve" smooth="yes"/>
      <point x="178" y="349"/>
      <point x="251" y="419"/>
      <point x="356" y="419" type="curve" smooth="yes"/>
      <point x="404" y="419"/>
      <point x="444" y="400"/>
      <point x="483" y="368" type="curve"/>
      <point x="531" y="431" type="line"/>
      <point x="491" y="470"/>
      <point x="431" y="501"/>
      <point x="351" y="501" type="curve" smooth="yes"/>
      <point x="203" y="501"/>
      <point x="76" y="407"/>
      <point x="76" y="244" type="curve" smooth="yes"/>
      <point x="76" y="82"/>
      <point x="192" y="-12"/>
    </contour>
    <contour>
      <point x="345" y="510" type="move" name="aboveLC"/>
    </contour>
    <contour>
      <point x="345" y="0" type="move" name="baseLC"/>
    </contour>
    <contour>
      <point x="340" y="-20" type="move" name="belowLC"/>
    </contour>
  </outline>
</glyph>
<glyph name="f" format="1">
  <advance width="600"/>
  <unicode hex="0066"/>
  <outline>
    <contour>
      <point x="235" y="0" type="line"/>
      <point x="333" y="0" type="line"/>
      <point x="333" y="525" type="line" smooth="yes"/>
      <point x="333" y="599"/>
      <point x="367" y="642"/>
      <point x="448" y="642" type="curve" smooth="yes"/>
      <point x="489" y="642"/>
      <point x="521" y="636"/>
      <point x="558" y="620" type="curve"/>
      <point x="580" y="693" type="line"/>
      <point x="535" y="711"/>
      <point x="487" y="721"/>
      <point x="437" y="721" type="curve" smooth="yes"/>
      <point x="298" y="721"/>
      <point x="235" y="640"/>
      <point x="235" y="523" type="curve" smooth="yes"/>
    </contour>
    <contour>
      <point x="98" y="409" type="line"/>
      <point x="528" y="409" type="line"/>
      <point x="528" y="489" type="line"/>
      <point x="238" y="489" type="line"/>
      <point x="98" y="484" type="line"/>
    </contour>
    <contour>
      <point x="418" y="735" type="move" name="aboveUC"/>
    </contour>
    <contour>
      <point x="297" y="0" type="move" name="baseLC"/>
    </contour>
    <contour>
      <point x="292" y="-20" type="move" name="belowLC"/>
    </contour>
  </outline>
</glyph>
<glyph name="g" format="1">
  <advance width="600"/>
  <unicode hex="0067"/>
  <outline>
    <contour>
      <point x="291" y="-221" type="curve" smooth="yes"/>
      <point x="460" y="-221"/>
      <point x="568" y="-143"/>
      <point x="568" y="-48" type="curve" smooth="yes"/>
      <point x="568" y="35"/>
      <point x="505" y="69"/>
      <point x="378" y="69" type="curve" smooth="yes"/>
      <point x="274" y="69" type="line" smooth="yes"/>
      <point x="211" y="69"/>
      <point x="177" y="85"/>
      <point x="177" y="120" type="curve" smooth="yes"/>
      <point x="177" y="141"/>
      <point x="189" y="157"/>
      <point x="211" y="171" type="curve"/>
      <point x="237" y="160"/>
      <point x="266" y="155"/>
      <point x="290" y="155" type="curve" smooth="yes"/>
      <point x="397" y="155"/>
      <point x="482" y="215"/>
      <point x="482" y="322" type="curve" smooth="yes"/>
      <point x="482" y="357"/>
      <point x="465" y="390"/>
      <point x="446" y="411" type="curve"/>
      <point x="565" y="411" type="line"/>
      <point x="565" y="489" type="line"/>
      <point x="364" y="489" type="line"/>
      <point x="342" y="497"/>
      <point x="318" y="501"/>
      <point x="290" y="501" type="curve" smooth="yes"/>
      <point x="184" y="501"/>
      <point x="93" y="434"/>
      <point x="93" y="325" type="curve" smooth="yes"/>
      <point x="93" y="267"/>
      <point x="120" y="224"/>
      <point x="154" y="199" type="curve"/>
      <point x="154" y="195" type="line"/>
      <point x="118" y="170"/>
      <point x="96" y="135"/>
      <point x="96" y="103" type="curve" smooth="yes"/>
      <point x="96" y="62"/>
      <point x="120" y="37"/>
      <point x="146" y="22" type="curve"/>
      <point x="146" y="18" type="line"/>
      <point x="94" y="-11"/>
      <point x="67" y="-48"/>
      <point x="67" y="-88" type="curve" smooth="yes"/>
      <point x="67" y="-174"/>
      <point x="152" y="-221"/>
    </contour>
    <contour>
      <point x="290" y="219" type="curve" smooth="yes"/>
      <point x="234" y="219"/>
      <point x="187" y="259"/>
      <point x="187" y="325" type="curve" smooth="yes"/>
      <point x="187" y="389"/>
      <point x="234" y="431"/>
      <point x="290" y="431" type="curve" smooth="yes"/>
      <point x="346" y="431"/>
      <point x="392" y="389"/>
      <point x="392" y="325" type="curve" smooth="yes"/>
      <point x="392" y="259"/>
      <point x="346" y="219"/>
    </contour>
    <contour>
      <point x="301" y="-152" type="curve" smooth="yes"/>
      <point x="204" y="-152"/>
      <point x="150" y="-123"/>
      <point x="150" y="-76" type="curve" smooth="yes"/>
      <point x="150" y="-51"/>
      <point x="165" y="-26"/>
      <point x="206" y="-3" type="curve"/>
      <point x="226" y="-9"/>
      <point x="250" y="-11"/>
      <point x="280" y="-11" type="curve" smooth="yes"/>
      <point x="367" y="-11" type="line" smooth="yes"/>
      <point x="436" y="-11"/>
      <point x="471" y="-22"/>
      <point x="471" y="-65" type="curve" smooth="yes"/>
      <point x="471" y="-110"/>
      <point x="405" y="-152"/>
    </contour>
    <contour>
      <point x="306" y="509" type="move" name="aboveLC"/>
    </contour>
    <contour>
      <point x="307" y="-215" type="move" name="belowLC"/>
    </contour>
  </outline>
</glyph>
<glyph name="j" format="1">
  <advance width="600"/>
  <unicode hex="006A"/>
  <outline>
    <component base="dotlessj"/>
    <component base="dotaccentcmb" xOffset="47"/>
    <contour>
      <point x="347" y="744" type="move" name="aboveUC"/>
    </contour>
    <contour>
      <point x="240" y="-215" type="move" name="belowLC"/>
    </contour>
  </outline>
</glyph>
<glyph name="k" format="1">
  <advance width="600"/>
  <unicode hex="006B"/>
  <outline>
    <contour>
      <point x="98" y="0" type="line"/>
      <point x="197" y="0" type="line"/>
      <point x="197" y="130" type="line"/>
      <point x="553" y="489" type="line"/>
      <point x="442" y="489" type="line"/>
      <point x="201" y="247" type="line"/>
      <point x="197" y="247" type="line"/>
      <point x="197" y="709" type="line"/>
      <point x="98" y="709" type="line"/>
    </contour>
    <contour>
      <point x="468" y="0" type="line"/>
      <point x="577" y="0" type="line"/>
      <point x="348" y="313" type="line"/>
      <point x="289" y="250" type="line"/>
    </contour>
    <contour>
      <point x="174" y="735" type="move" name="aboveUC"/>
    </contour>
    <contour>
      <point x="332" y="-20" type="move" name="belowLC"/>
    </contour>
  </outline>
</glyph>
<glyph name="p" format="1">
  <advance width="600"/>
  <unicode hex="0070"/>
  <outline>
    <contour>
      <point x="88" y="-200" type="line"/>
      <point x="187" y="-200" type="line"/>
      <point x="187" y="-40" type="line"/>
      <point x="182" y="48" type="line"/>
      <point x="185" y="48" type="line"/>
      <point x="226" y="10"/>
      <point x="279" y="-12"/>
      <point x="324" y="-12" type="curve" smooth="yes"/>
      <point x="439" y="-12"/>
      <point x="544" y="85"/>
      <point x="544" y="252" type="curve" smooth="yes"/>
      <point x="544" y="403"/>
      <point x="472" y="501"/>
      <point x="343" y="501" type="curve" smooth="yes"/>
      <point x="285" y="501"/>
      <point x="224" y="471"/>
      <point x="180" y="429" type="curve"/>
      <point x="177" y="429" type="line"/>
      <point x="169" y="489" type="line"/>
      <point x="88" y="489" type="line"/>
    </contour>
    <contour>
      <point x="305" y="70" type="curve" smooth="yes"/>
      <point x="274" y="70"/>
      <point x="228" y="84"/>
      <point x="187" y="121" type="curve"/>
      <point x="187" y="352" type="line"/>
      <point x="231" y="398"/>
      <point x="276" y="418"/>
      <point x="316" y="418" type="curve" smooth="yes"/>
      <point x="404" y="418"/>
      <point x="442" y="353"/>
      <point x="442" y="251" type="curve" smooth="yes"/>
      <point x="442" y="135"/>
      <point x="383" y="70"/>
    </contour>
    <contour>
      <point x="322" y="510" type="move" name="aboveLC"/>
    </contour>
    <contour>
      <point x="140" y="-215" type="move" name="belowLC"/>
    </contour>
  </outline>
</glyph>
<glyph name="q" format="1">
  <advance width="600"/>
  <unicode hex="0071"/>
  <outline>
    <contour>
      <point x="413" y="-200" type="line"/>
      <point x="512" y="-200" type="line"/>
      <point x="512" y="489" type="line"/>
      <point x="434" y="489" type="line"/>
      <point x="425" y="436" type="line"/>
      <point x="422" y="436" type="line"/>
      <point x="378" y="479"/>
      <point x="333" y="501"/>
      <point x="275" y="501" type="curve" smooth="yes"/>
      <point x="162" y="501"/>
      <point x="56" y="403"/>
      <point x="56" y="244" type="curve" smooth="yes"/>
      <point x="56" y="82"/>
      <point x="140" y="-12"/>
      <point x="266" y="-12" type="curve" smooth="yes"/>
      <point x="323" y="-12"/>
      <point x="377" y="18"/>
      <point x="415" y="58" type="curve"/>
      <point x="418" y="58" type="line"/>
      <point x="413" y="-30" type="line"/>
    </contour>
    <contour>
      <point x="290" y="70" type="curve" smooth="yes"/>
      <point x="207" y="70"/>
      <point x="158" y="133"/>
      <point x="158" y="245" type="curve" smooth="yes"/>
      <point x="158" y="351"/>
      <point x="221" y="418"/>
      <point x="297" y="418" type="curve" smooth="yes"/>
      <point x="336" y="418"/>
      <point x="374" y="405"/>
      <point x="413" y="368" type="curve"/>
      <point x="413" y="136" type="line"/>
      <point x="375" y="92"/>
      <point x="334" y="70"/>
    </contour>
    <contour>
      <point x="305" y="510" type="move" name="aboveLC"/>
    </contour>
    <contour>
      <point x="458" y="-215" type="move" name="belowLC"/>
    </contour>
  </outline>
</glyph>
<glyph name="u" format="1">
	<unicode hex="0075"/>
	<advance width="600"/>
	<outline>
		<contour>
			<point x="240" y="-12" type="curve" smooth="yes"/>
			<point x="314" y="-12"/>
			<point x="369" y="26"/>
			<point x="417" y="81" type="curve"/>
			<point x="421" y="81" type="line"/>
			<point x="429" y="0" type="line"/>
			<point x="510" y="0" type="line"/>
			<point x="510" y="489" type="line"/>
			<point x="411" y="489" type="line"/>
			<point x="411" y="154" type="line"/>
			<point x="363" y="96"/>
			<point x="325" y="73"/>
			<point x="274" y="73" type="curve" smooth="yes"/>
			<point x="200" y="73"/>
			<point x="172" y="113"/>
			<point x="172" y="199" type="curve" smooth="yes"/>
			<point x="172" y="489" type="line"/>
			<point x="73" y="489" type="line"/>
			<point x="73" y="186" type="line" smooth="yes"/>
			<point x="73" y="58"/>
			<point x="125" y="-12"/>
		</contour>
		<contour>
			<point name="ogonekLC" x="425" y="0" type="move"/>
		</contour>
		<contour>
			<point name="aboveLC" x="295" y="510" type="move"/>
		</contour>
		<contour>
			<point name="baseLC" x="463" y="0" type="move"/>
		</contour>
		<contour>
			<point name="belowLC" x="304" y="-20" type="move"/>
		</contour>
	</outline>
</glyph>
<glyph name="w" format="1">
  <advance width="600"/>
  <unicode hex="0077"/>
  <outline>
    <contour>
      <point x="107" y="0" type="line"/>
      <point x="229" y="0" type="line"/>
      <point x="276" y="214" type="line" smooth="yes"/>
      <point x="284" y="255"/>
      <point x="291" y="302"/>
      <point x="298" y="358" type="curve"/>
      <point x="302" y="358" type="line"/>
      <point x="309" y="298"/>
      <point x="317" y="250"/>
      <point x="325" y="214" type="curve" smooth="yes"/>
      <point x="373" y="0" type="line"/>
      <point x="496" y="0" type="line"/>
      <point x="593" y="489" type="line"/>
      <point x="501" y="489" type="line"/>
      <point x="451" y="220" type="line" smooth="yes"/>
      <point x="443" y="173"/>
      <point x="439" y="130"/>
      <point x="431" y="83" type="curve"/>
      <point x="427" y="83" type="line"/>
      <point x="421" y="130"/>
      <point x="409" y="173"/>
      <point x="399" y="220" type="curve" smooth="yes"/>
      <point x="347" y="449" type="line"/>
      <point x="259" y="449" type="line"/>
      <point x="206" y="220" type="line"/>
      <point x="196" y="174"/>
      <point x="186" y="130"/>
      <point x="180" y="83" type="curve"/>
      <point x="176" y="83" type="line"/>
      <point x="170" y="130"/>
      <point x="164" y="173"/>
      <point x="155" y="220" type="curve" smooth="yes"/>
      <point x="105" y="489" type="line"/>
      <point x="7" y="489" type="line"/>
    </contour>
    <contour>
      <point x="300" y="509" type="move" name="aboveLC"/>
    </contour>
    <contour>
      <point x="300" y="-20" type="move" name="belowLC"/>
    </contour>
  </outline>
</glyph>
<glyph name="x" format="1">
  <advance width="600"/>
  <unicode hex="0078"/>
  <outline>
    <contour>
      <point x="57" y="0" type="line"/>
      <point x="162" y="0" type="line"/>
      <point x="234" y="104" type="line"/>
      <point x="253" y="134"/>
      <point x="272" y="163"/>
      <point x="290" y="192" type="curve"/>
      <point x="294" y="192" type="line"/>
      <point x="315" y="164"/>
      <point x="337" y="132"/>
      <point x="356" y="104" type="curve" smooth="yes"/>
      <point x="434" y="0" type="line"/>
      <point x="542" y="0" type="line"/>
      <point x="360" y="244" type="line"/>
      <point x="530" y="489" type="line"/>
      <point x="425" y="489" type="line"/>
      <point x="360" y="390" type="line"/>
      <point x="344" y="363"/>
      <point x="325" y="333"/>
      <point x="308" y="306" type="curve"/>
      <point x="304" y="306" type="line"/>
      <point x="286" y="333"/>
      <point x="266" y="362"/>
      <point x="249" y="389" type="curve"/>
      <point x="178" y="489" type="line"/>
      <point x="70" y="489" type="line"/>
      <point x="239" y="254" type="line"/>
    </contour>
    <contour>
      <point x="300" y="510" type="move" name="aboveLC"/>
    </contour>
    <contour>
      <point x="478" y="0" type="move" name="baseLC"/>
    </contour>
    <contour>
      <point x="300" y="-20" type="move" name="belowLC"/>
    </contour>
  </outline>
</glyph>
<glyph name="currency" format="1">
  <advance width="600"/>
  <unicode hex="00A4"/>
  <outline>
    <contour>
      <point x="104" y="78" type="line"/>
      <point x="192" y="167" type="line"/>
      <point x="223" y="145"/>
      <point x="261" y="133"/>
      <point x="300" y="133" type="curve" smooth="yes"/>
      <point x="338" y="133"/>
      <point x="377" y="145"/>
      <point x="408" y="167" type="curve"/>
      <point x="496" y="78" type="line"/>
      <point x="548" y="130" type="line"/>
      <point x="464" y="214" type="line"/>
      <point x="486" y="245"/>
      <point x="500" y="284"/>
      <point x="500" y="329" type="curve" smooth="yes"/>
      <point x="500" y="375"/>
      <point x="487" y="414"/>
      <point x="464" y="444" type="curve"/>
      <point x="548" y="529" type="line"/>
      <point x="496" y="581" type="line"/>
      <point x="408" y="492" type="line"/>
      <point x="377" y="514"/>
      <point x="339" y="526"/>
      <point x="300" y="526" type="curve" smooth="yes"/>
      <point x="261" y="526"/>
      <point x="223" y="514"/>
      <point x="192" y="492" type="curve"/>
      <point x="104" y="581" type="line"/>
      <point x="52" y="529" type="line"/>
      <point x="135" y="444" type="line"/>
      <point x="113" y="414"/>
      <point x="100" y="375"/>
      <point x="100" y="329" type="curve" smooth="yes"/>
      <point x="100" y="284"/>
      <point x="113" y="245"/>
      <point x="135" y="214" type="curve"/>
      <point x="52" y="130" type="line"/>
    </contour>
    <contour>
      <point x="300" y="205" type="curve" smooth="yes"/>
      <point x="239" y="205"/>
      <point x="190" y="254"/>
      <point x="190" y="329" type="curve" smooth="yes"/>
      <point x="190" y="404"/>
      <point x="239" y="454"/>
      <point x="300" y="454" type="curve" smooth="yes"/>
      <point x="361" y="454"/>
      <point x="410" y="404"/>
      <point x="410" y="329" type="curve" smooth="yes"/>
      <point x="410" y="254"/>
      <point x="361" y="205"/>
    </contour>
  </outline>
</glyph>
<glyph name="logicalnot" format="1">
  <advance width="600"/>
  <unicode hex="00AC"/>
  <outline>
    <contour>
      <point x="442" y="101" type="line"/>
      <point x="519" y="101" type="line"/>
      <point x="519" y="366" type="line"/>
      <point x="81" y="366" type="line"/>
      <point x="81" y="294" type="line"/>
      <point x="442" y="294" type="line"/>
    </contour>
  </outline>
</glyph>
<glyph name="AE" format="1">
  <advance width="600"/>
  <unicode hex="00C6"/>
  <outline>
    <contour>
      <point x="-2" y="0" type="line"/>
      <point x="102" y="0" type="line"/>
      <point x="237" y="372" type="line" smooth="yes"/>
      <point x="262" y="439"/>
      <point x="288" y="507"/>
      <point x="312" y="578" type="curve"/>
      <point x="316" y="578" type="line"/>
      <point x="316" y="0" type="line"/>
      <point x="592" y="0" type="line"/>
      <point x="592" y="84" type="line"/>
      <point x="406" y="84" type="line"/>
      <point x="406" y="301" type="line"/>
      <point x="545" y="301" type="line"/>
      <point x="545" y="385" type="line"/>
      <point x="406" y="385" type="line"/>
      <point x="406" y="571" type="line"/>
      <point x="583" y="571" type="line"/>
      <point x="583" y="655" type="line"/>
      <point x="250" y="655" type="line"/>
    </contour>
    <contour>
      <point x="131" y="180" type="line"/>
      <point x="360" y="180" type="line"/>
      <point x="360" y="259" type="line"/>
      <point x="131" y="259" type="line"/>
    </contour>
    <contour>
      <point x="413" y="675" type="move" name="aboveUC"/>
    </contour>
    <contour>
      <point x="465" y="0" type="move" name="baseLC"/>
    </contour>
    <contour>
      <point x="335" y="-20" type="move" name="belowLC"/>
    </contour>
  </outline>
</glyph>
<glyph name="multiply" format="1">
	<unicode hex="00D7"/>
	<advance width="600"/>
	<outline>
		<contour>
			<point x="149" y="122" type="line"/>
			<point x="300" y="278" type="line"/>
			<point x="451" y="122" type="line"/>
			<point x="503" y="175" type="line"/>
			<point x="352" y="330" type="line"/>
			<point x="503" y="484" type="line"/>
			<point x="451" y="537" type="line"/>
			<point x="300" y="381" type="line"/>
			<point x="149" y="537" type="line"/>
			<point x="97" y="484" type="line"/>
			<point x="248" y="330" type="line"/>
			<point x="97" y="175" type="line"/>
		</contour>
	</outline>
</glyph>
<glyph name="germandbls" format="1">
	<unicode hex="00DF"/>
	<advance width="600"/>
	<outline>
		<contour>
			<point x="400" y="-12" type="curve" smooth="yes"/>
			<point x="503" y="-12"/>
			<point x="566" y="55"/>
			<point x="566" y="141" type="curve" smooth="yes"/>
			<point x="566" y="296"/>
			<point x="376" y="283"/>
			<point x="376" y="372" type="curve" smooth="yes"/>
			<point x="376" y="437"/>
			<point x="459" y="469"/>
			<point x="459" y="568" type="curve" smooth="yes"/>
			<point x="459" y="649"/>
			<point x="400" y="721"/>
			<point x="289" y="721" type="curve" smooth="yes"/>
			<point x="156" y="721"/>
			<point x="81" y="636"/>
			<point x="81" y="513" type="curve" smooth="yes"/>
			<point x="81" y="0" type="line"/>
			<point x="180" y="0" type="line"/>
			<point x="180" y="502" type="line" smooth="yes"/>
			<point x="180" y="593"/>
			<point x="220" y="642"/>
			<point x="288" y="642" type="curve" smooth="yes"/>
			<point x="337" y="642"/>
			<point x="366" y="607"/>
			<point x="366" y="562" type="curve" smooth="yes"/>
			<point x="366" y="479"/>
			<point x="283" y="449"/>
			<point x="283" y="360" type="curve" smooth="yes"/>
			<point x="283" y="223"/>
			<point x="473" y="238"/>
			<point x="473" y="133" type="curve" smooth="yes"/>
			<point x="473" y="95"/>
			<point x="446" y="64"/>
			<point x="397" y="64" type="curve" smooth="yes"/>
			<point x="361" y="64"/>
			<point x="330" y="75"/>
			<point x="294" y="100" type="curve"/>
			<point x="257" y="31" type="line"/>
			<point x="300" y="4"/>
			<point x="344" y="-12"/>
		</contour>
	</outline>
</glyph>
<glyph name="eacute" format="1">
	<unicode hex="00E9"/>
	<advance width="600"/>
	<outline>
		<component base="e"/>
		<component base="acutecmb" xOffset="15"/>
		<contour>
			<point name="ogonekLC" x="403" y="0" type="move"/>
		</contour>
	</outline>
</glyph>
<glyph name="oslash" format="1">
	<unicode hex="00F8"/>
	<advance width="600"/>
	<outline>
		<contour>
			<point x="300" y="-12" type="curve" smooth="yes"/>
			<point x="429" y="-12"/>
			<point x="543" y="82"/>
			<point x="543" y="243" type="curve" smooth="yes"/>
			<point x="543" y="407"/>
			<point x="429" y="501"/>
			<point x="300" y="501" type="curve" smooth="yes"/>
			<point x="171" y="501"/>
			<point x="57" y="407"/>
			<point x="57" y="243" type="curve" smooth="yes"/>
			<point x="57" y="82"/>
			<point x="171" y="-12"/>
		</contour>
		<contour>
			<point x="300" y="66" type="curve" smooth="yes"/>
			<point x="214" y="66"/>
			<point x="159" y="139"/>
			<point x="159" y="243" type="curve" smooth="yes"/>
			<point x="159" y="349"/>
			<point x="214" y="422"/>
			<point x="300" y="422" type="curve" smooth="yes"/>
			<point x="386" y="422"/>
			<point x="441" y="349"/>
			<point x="441" y="243" type="curve" smooth="yes"/>
			<point x="441" y="139"/>
			<point x="386" y="66"/>
		</contour>
		<contour>
			<point x="111" y="-29" type="line"/>
			<point x="538" y="475" type="line"/>
			<point x="489" y="518" type="line"/>
			<point x="62" y="14" type="line"/>
		</contour>
		<contour>
			<point name="aboveLC" x="300" y="509" type="move"/>
		</contour>
		<contour>
			<point name="baseLC" x="300" y="0" type="move"/>
		</contour>
		<contour>
			<point name="belowLC" x="300" y="-20" type="move"/>
		</contour>
	</outline>
</glyph>
<glyph name="dcroat" format="1">
  <advance width="600"/>
  <unicode hex="0111"/>
  <outline>
    <contour>
      <point x="267" y="-12" type="curve" smooth="yes"/>
      <point x="324" y="-12"/>
      <point x="381" y="21"/>
      <point x="420" y="61" type="curve"/>
      <point x="423" y="61" type="line"/>
      <point x="431" y="0" type="line"/>
      <point x="512" y="0" type="line"/>
      <point x="512" y="709" type="line"/>
      <point x="414" y="709" type="line"/>
      <point x="414" y="507" type="line"/>
      <point x="418" y="420" type="line"/>
      <point x="415" y="420" type="line"/>
      <point x="376" y="457"/>
      <point x="333" y="481"/>
      <point x="275" y="481" type="curve" smooth="yes"/>
      <point x="162" y="481"/>
      <point x="57" y="387"/>
      <point x="57" y="233" type="curve" smooth="yes"/>
      <point x="57" y="77"/>
      <point x="140" y="-12"/>
    </contour>
    <contour>
      <point x="289" y="70" type="curve" smooth="yes"/>
      <point x="207" y="70"/>
      <point x="159" y="130"/>
      <point x="159" y="235" type="curve" smooth="yes"/>
      <point x="159" y="334"/>
      <point x="221" y="398"/>
      <point x="299" y="398" type="curve" smooth="yes"/>
      <point x="336" y="398"/>
      <point x="374" y="384"/>
      <point x="414" y="348" type="curve"/>
      <point x="414" y="136" type="line"/>
      <point x="375" y="92"/>
      <point x="334" y="70"/>
    </contour>
    <contour>
      <point x="244" y="560" type="line"/>
      <point x="508" y="560" type="line"/>
      <point x="584" y="566" type="line"/>
      <point x="584" y="627" type="line"/>
      <point x="244" y="627" type="line"/>
    </contour>
    <contour>
      <point x="455" y="735" type="move" name="aboveUC"/>
    </contour>
    <contour>
      <point x="305" y="-20" type="move" name="belowLC"/>
    </contour>
  </outline>
</glyph>
<glyph name="eogonek" format="1">
  <advance width="600"/>
  <unicode hex="0119"/>
  <outline>
    <contour>
      <point x="420" y="-226" type="curve" smooth="yes"/>
      <point x="458" y="-226"/>
      <point x="494" y="-212"/>
      <point x="519" y="-190" type="curve"/>
      <point x="493" y="-144" type="line"/>
      <point x="480" y="-155"/>
      <point x="463" y="-163"/>
      <point x="442" y="-163" type="curve" smooth="yes"/>
      <point x="411" y="-163"/>
      <point x="384" y="-146"/>
      <point x="384" y="-110" type="curve" smooth="yes"/>
      <point x="384" y="-61"/>
      <point x="418" y="-25"/>
      <point x="520" y="46" type="curve"/>
      <point x="485" y="109" type="line"/>
      <point x="441" y="82"/>
      <point x="397" y="66"/>
      <point x="343" y="66" type="curve" smooth="yes"/>
      <point x="238" y="66"/>
      <point x="162" y="125"/>
      <point x="162" y="245" type="curve" smooth="yes"/>
      <point x="162" y="360"/>
      <point x="232" y="423"/>
      <point x="318" y="423" type="curve" smooth="yes"/>
      <point x="401" y="423"/>
      <point x="452" y="370"/>
      <point x="452" y="265" type="curve"/>
      <point x="474" y="289" type="line"/>
      <point x="134" y="289" type="line"/>
      <point x="134" y="216" type="line"/>
      <point x="536" y="216" type="line"/>
      <point x="538" y="229"/>
      <point x="540" y="249"/>
      <point x="540" y="270" type="curve" smooth="yes"/>
      <point x="540" y="406"/>
      <point x="459" y="501"/>
      <point x="315" y="501" type="curve" smooth="yes"/>
      <point x="185" y="501"/>
      <point x="65" y="404"/>
      <point x="65" y="243" type="curve" smooth="yes"/>
      <point x="65" y="82"/>
      <point x="182" y="-12"/>
      <point x="330" y="-12" type="curve" smooth="yes"/>
      <point x="342" y="-12"/>
      <point x="370" y="-13"/>
      <point x="417" y="8" type="curve"/>
      <point x="411" y="16" type="line"/>
      <point x="354" y="-28"/>
      <point x="314" y="-71"/>
      <point x="314" y="-131" type="curve" smooth="yes"/>
      <point x="314" y="-195"/>
      <point x="358" y="-226"/>
    </contour>
    <contour>
      <point x="313" y="509" type="move" name="aboveLC"/>
    </contour>
  </outline>
</glyph>
<glyph name="dotlessi" format="1">
	<unicode hex="0131"/>
	<advance width="600"/>
	<outline>
		<contour>
			<point x="306" y="0" type="line"/>
			<point x="405" y="0" type="line"/>
			<point x="405" y="489" type="line"/>
			<point x="87" y="489" type="line"/>
			<point x="87" y="409" type="line"/>
			<point x="306" y="409" type="line"/>
		</contour>
		<contour>
			<point name="ogonekLC" x="355" y="0" type="move"/>
		</contour>
		<contour>
			<point name="aboveLC" x="347" y="510" type="move"/>
		</contour>
		<contour>
			<point name="baseLC" x="354" y="0" type="move"/>
		</contour>
		<contour>
			<point name="belowLC" x="347" y="-20" type="move"/>
		</contour>
	</outline>
</glyph>
<glyph name="napostrophe" format="1">
  <advance width="600"/>
  <unicode hex="0149"/>
  <outline>
    <contour>
      <point x="201" y="0" type="line"/>
      <point x="300" y="0" type="line"/>
      <point x="300" y="342" type="line"/>
      <point x="346" y="391"/>
      <point x="377" y="415"/>
      <point x="423" y="415" type="curve" smooth="yes"/>
      <point x="485" y="415"/>
      <point x="511" y="377"/>
      <point x="511" y="295" type="curve" smooth="yes"/>
      <point x="511" y="0" type="line"/>
      <point x="610" y="0" type="line"/>
      <point x="610" y="308" type="line" smooth="yes"/>
      <point x="610" y="432"/>
      <point x="561" y="501"/>
      <point x="458" y="501" type="curve" smooth="yes"/>
      <point x="389" y="501"/>
      <point x="340" y="463"/>
      <point x="295" y="415" type="curve"/>
      <point x="291" y="415" type="line"/>
      <point x="283" y="489" type="line"/>
      <point x="201" y="489" type="line"/>
    </contour>
    <component base="quoteright" xOffset="-242"/>
  </outline>
</glyph>
<glyph name="Eng" format="1">
  <advance width="600"/>
  <unicode hex="014A"/>
  <outline>
    <contour>
      <point x="321" y="677" type="move" name="aboveUC"/>
    </contour>
    <contour>
      <point x="374" y="-12" type="curve" smooth="yes"/>
      <point x="490" y="-12"/>
      <point x="551" y="87"/>
      <point x="551" y="334" type="curve" smooth="yes"/>
      <point x="551" y="578"/>
      <point x="460" y="667"/>
      <point x="338" y="667" type="curve" smooth="yes"/>
      <point x="275" y="667"/>
      <point x="219" y="631"/>
      <point x="177" y="582" type="curve"/>
      <point x="177" y="655" type="line"/>
      <point x="80" y="655" type="line"/>
      <point x="80" y="0" type="line"/>
      <point x="180" y="0" type="line"/>
      <point x="180" y="491" type="line"/>
      <point x="214" y="543"/>
      <point x="270" y="580"/>
      <point x="315" y="580" type="curve" smooth="yes"/>
      <point x="395" y="580"/>
      <point x="448" y="519"/>
      <point x="448" y="334" type="curve" smooth="yes"/>
      <point x="448" y="136"/>
      <point x="413" y="82"/>
      <point x="363" y="82" type="curve" smooth="yes"/>
      <point x="345" y="82"/>
      <point x="332" y="86"/>
      <point x="320" y="91" type="curve"/>
      <point x="297" y="3" type="line"/>
      <point x="315" y="-7"/>
      <point x="348" y="-12"/>
    </contour>
  </outline>
</glyph>
<glyph name="eng" format="1">
  <advance width="600"/>
  <unicode hex="014B"/>
  <outline>
    <contour>
      <point x="317" y="511" type="move" name="aboveLC"/>
    </contour>
    <contour>
      <point x="383" y="-184" type="curve" smooth="yes"/>
      <point x="487" y="-184"/>
      <point x="527" y="-112"/>
      <point x="527" y="-7" type="curve" smooth="yes"/>
      <point x="527" y="303" type="line" smooth="yes"/>
      <point x="527" y="430"/>
      <point x="475" y="501"/>
      <point x="361" y="501" type="curve" smooth="yes"/>
      <point x="285" y="501"/>
      <point x="230" y="461"/>
      <point x="181" y="410" type="curve"/>
      <point x="177" y="410" type="line"/>
      <point x="169" y="489" type="line"/>
      <point x="88" y="489" type="line"/>
      <point x="88" y="0" type="line"/>
      <point x="187" y="0" type="line"/>
      <point x="187" y="337" type="line"/>
      <point x="237" y="389"/>
      <point x="274" y="415"/>
      <point x="326" y="415" type="curve" smooth="yes"/>
      <point x="400" y="415"/>
      <point x="428" y="375"/>
      <point x="428" y="290" type="curve" smooth="yes"/>
      <point x="428" y="-8" type="line" smooth="yes"/>
      <point x="428" y="-69"/>
      <point x="416" y="-104"/>
      <point x="370" y="-104" type="curve" smooth="yes"/>
      <point x="352" y="-104"/>
      <point x="336" y="-100"/>
      <point x="323" y="-95" type="curve"/>
      <point x="304" y="-170" type="line"/>
      <point x="322" y="-177"/>
      <point x="349" y="-184"/>
    </contour>
  </outline>
</glyph>
<glyph name="Tbar" format="1">
  <advance width="600"/>
  <unicode hex="0166"/>
  <outline>
    <contour>
      <point x="110" y="300" type="line"/>
      <point x="490" y="300" type="line"/>
      <point x="490" y="365" type="line"/>
      <point x="201" y="365" type="line"/>
      <point x="110" y="361" type="line"/>
    </contour>
    <component base="T"/>
    <contour>
      <point x="300" y="675" type="move" name="aboveUC"/>
    </contour>
    <contour>
      <point x="300" y="-20" type="move" name="belowLC"/>
    </contour>
  </outline>
</glyph>
<glyph name="tbar" format="1">
  <advance width="600"/>
  <unicode hex="0167"/>
  <outline>
    <contour>
      <point x="264" y="647" type="move" name="aboveLC"/>
    </contour>
    <contour>
      <point x="376" y="-22" type="move" name="belowLC"/>
    </contour>
    <contour>
      <point x="64" y="229" type="line"/>
      <point x="508" y="229" type="line"/>
      <point x="508" y="283" type="line"/>
      <point x="205" y="283" type="line"/>
      <point x="64" y="278" type="line"/>
    </contour>
    <component base="t"/>
  </outline>
</glyph>
<glyph name="longs" format="1">
  <advance width="600"/>
  <unicode hex="017F"/>
  <outline>
    <contour>
      <point x="235" y="0" type="line"/>
      <point x="333" y="0" type="line"/>
      <point x="333" y="525" type="line" smooth="yes"/>
      <point x="333" y="599"/>
      <point x="367" y="642"/>
      <point x="448" y="642" type="curve" smooth="yes"/>
      <point x="489" y="642"/>
      <point x="521" y="636"/>
      <point x="558" y="620" type="curve"/>
      <point x="580" y="693" type="line"/>
      <point x="535" y="711"/>
      <point x="487" y="721"/>
      <point x="437" y="721" type="curve" smooth="yes"/>
      <point x="298" y="721"/>
      <point x="235" y="640"/>
      <point x="235" y="523" type="curve" smooth="yes"/>
    </contour>
    <contour>
      <point x="98" y="409" type="line"/>
      <point x="298" y="409" type="line"/>
      <point x="298" y="489" type="line"/>
      <point x="238" y="489" type="line"/>
      <point x="98" y="484" type="line"/>
    </contour>
  </outline>
</glyph>
<glyph name="Schwa" format="1">
  <advance width="600"/>
  <unicode hex="018F"/>
  <outline>
    <contour>
      <point x="301" y="-12" type="curve" smooth="yes"/>
      <point x="450" y="-12"/>
      <point x="553" y="118"/>
      <point x="553" y="329" type="curve" smooth="yes"/>
      <point x="553" y="540"/>
      <point x="456" y="667"/>
      <point x="301" y="667" type="curve" smooth="yes"/>
      <point x="222" y="667"/>
      <point x="163" y="636"/>
      <point x="121" y="594" type="curve"/>
      <point x="169" y="525" type="line"/>
      <point x="200" y="558"/>
      <point x="243" y="581"/>
      <point x="294" y="581" type="curve" smooth="yes"/>
      <point x="398" y="581"/>
      <point x="454" y="493"/>
      <point x="454" y="329" type="curve" smooth="yes"/>
      <point x="454" y="156"/>
      <point x="392" y="74"/>
      <point x="301" y="74" type="curve" smooth="yes"/>
      <point x="210" y="74"/>
      <point x="153" y="154"/>
      <point x="153" y="329" type="curve"/>
      <point x="132" y="281" type="line"/>
      <point x="477" y="281" type="line"/>
      <point x="477" y="355" type="line"/>
      <point x="58" y="355" type="line"/>
      <point x="57" y="346"/>
      <point x="56" y="336"/>
      <point x="56" y="326" type="curve" smooth="yes"/>
      <point x="56" y="120"/>
      <point x="154" y="-12"/>
    </contour>
    <contour>
      <point x="318" y="675" type="move" name="aboveUC"/>
    </contour>
    <contour>
      <point x="310" y="0" type="move" name="ogonekUC"/>
    </contour>
    <contour>
      <point x="310" y="0" type="move" name="baseLC"/>
    </contour>
    <contour>
      <point x="305" y="-20" type="move" name="belowLC"/>
    </contour>
  </outline>
</glyph>
<glyph name="Ghook" format="1">
  <advance width="600"/>
  <unicode hex="0193"/>
  <outline>
    <contour>
      <point x="528" y="586" type="line"/>
      <point x="504" y="620"/>
      <point x="490" y="641"/>
      <point x="490" y="676" type="curve" smooth="yes"/>
      <point x="490" y="706"/>
      <point x="510" y="728"/>
      <point x="543" y="728" type="curve" smooth="yes"/>
      <point x="556" y="728"/>
      <point x="565" y="724"/>
      <point x="575" y="720" type="curve"/>
      <point x="594" y="795" type="line"/>
      <point x="577" y="801"/>
      <point x="556" y="808"/>
      <point x="526" y="808" type="curve" smooth="yes"/>
      <point x="454" y="808"/>
      <point x="406" y="760"/>
      <point x="406" y="695" type="curve" smooth="yes"/>
      <point x="406" y="660"/>
      <point x="419" y="627"/>
      <point x="445" y="585" type="curve"/>
    </contour>
    <component base="G"/>
  </outline>
</glyph>
<glyph name="Ohorn" format="1">
  <advance width="600"/>
  <unicode hex="01A0"/>
  <outline>
    <contour>
      <point x="459" y="600" type="line"/>
      <point x="531" y="619"/>
      <point x="571" y="662"/>
      <point x="571" y="732" type="curve" smooth="yes"/>
      <point x="571" y="765"/>
      <point x="560" y="795"/>
      <point x="546" y="817" type="curve"/>
      <point x="470" y="785" type="line"/>
      <point x="478" y="769"/>
      <point x="485" y="746"/>
      <point x="485" y="725" type="curve" smooth="yes"/>
      <point x="485" y="676"/>
      <point x="459" y="649"/>
      <point x="406" y="638" type="curve"/>
    </contour>
    <component base="O"/>
    <contour>
      <point x="300" y="675" type="move" name="aboveUC"/>
    </contour>
    <contour>
      <point x="300" y="-20" type="move" name="belowLC"/>
    </contour>
  </outline>
</glyph>
<glyph name="Uhorn" format="1">
	<unicode hex="01AF"/>
	<advance width="600"/>
	<outline>
		<contour>
			<point x="523" y="614" type="line"/>
			<point x="590" y="629"/>
			<point x="638" y="664"/>
			<point x="638" y="742" type="curve" smooth="yes"/>
			<point x="638" y="775"/>
			<point x="627" y="806"/>
			<point x="613" y="828" type="curve"/>
			<point x="537" y="795" type="line"/>
			<point x="545" y="779"/>
			<point x="552" y="757"/>
			<point x="552" y="735" type="curve" smooth="yes"/>
			<point x="552" y="678"/>
			<point x="521" y="660"/>
			<point x="470" y="655" type="curve"/>
		</contour>
		<component base="U"/>
		<contour>
			<point name="aboveUC" x="300" y="675" type="move"/>
		</contour>
		<contour>
			<point name="belowLC" x="300" y="-20" type="move"/>
		</contour>
	</outline>
</glyph>
<glyph name="Aringacute" format="1">
  <advance width="600"/>
  <unicode hex="01FA"/>
  <outline>
    <contour>
      <point x="263" y="841" type="line"/>
      <point x="415" y="920" type="line"/>
      <point x="373" y="978" type="line"/>
      <point x="229" y="860" type="line"/>
    </contour>
    <component base="Aring"/>
  </outline>
</glyph>
<glyph name="ccurl" format="1">
  <advance width="600"/>
  <unicode hex="0255"/>
  <outline>
    <contour>
      <point x="187" y="-100" type="line"/>
      <point x="232" y="52"/>
      <point x="341" y="158"/>
      <point x="408" y="158" type="curve" smooth="yes"/>
      <point x="449" y="158"/>
      <point x="466" y="142"/>
      <point x="466" y="119" type="curve" smooth="yes"/>
      <point x="466" y="89"/>
      <point x="430" y="66"/>
      <point x="363" y="66" type="curve" smooth="yes"/>
      <point x="256" y="66"/>
      <point x="174" y="131"/>
      <point x="174" y="244" type="curve" smooth="yes"/>
      <point x="174" y="352"/>
      <point x="251" y="423"/>
      <point x="352" y="423" type="curve" smooth="yes"/>
      <point x="404" y="423"/>
      <point x="447" y="404"/>
      <point x="484" y="370" type="curve"/>
      <point x="531" y="431" type="line"/>
      <point x="489" y="472"/>
      <point x="429" y="501"/>
      <point x="347" y="501" type="curve" smooth="yes"/>
      <point x="203" y="501"/>
      <point x="76" y="407"/>
      <point x="76" y="244" type="curve" smooth="yes"/>
      <point x="76" y="82"/>
      <point x="201" y="-12"/>
      <point x="360" y="-12" type="curve" smooth="yes"/>
      <point x="480" y="-12"/>
      <point x="542" y="47"/>
      <point x="542" y="120" type="curve" smooth="yes"/>
      <point x="542" y="185"/>
      <point x="496" y="227"/>
      <point x="415" y="227" type="curve" smooth="yes"/>
      <point x="311" y="227"/>
      <point x="176" y="120"/>
      <point x="108" y="-67" type="curve"/>
    </contour>
    <contour>
      <point x="340" y="510" type="move" name="aboveLC"/>
    </contour>
    <contour>
      <point x="360" y="-20" type="move" name="belowLC"/>
    </contour>
  </outline>
</glyph>
<glyph name="dtail" format="1">
  <advance width="600"/>
  <unicode hex="0256"/>
  <outline>
    <contour>
      <point x="545" y="-174" type="curve" smooth="yes"/>
      <point x="573" y="-174"/>
      <point x="596" y="-168"/>
      <point x="611" y="-161" type="curve"/>
      <point x="592" y="-87" type="line"/>
      <point x="582" y="-91"/>
      <point x="570" y="-95"/>
      <point x="558" y="-95" type="curve" smooth="yes"/>
      <point x="521" y="-95"/>
      <point x="509" y="-65"/>
      <point x="509" y="-11" type="curve"/>
      <point x="509" y="709" type="line"/>
      <point x="410" y="709" type="line"/>
      <point x="410" y="527" type="line"/>
      <point x="415" y="440" type="line"/>
      <point x="412" y="440" type="line"/>
      <point x="373" y="478"/>
      <point x="331" y="501"/>
      <point x="274" y="501" type="curve" smooth="yes"/>
      <point x="162" y="501"/>
      <point x="56" y="403"/>
      <point x="56" y="244" type="curve" smooth="yes"/>
      <point x="56" y="82"/>
      <point x="140" y="-12"/>
      <point x="265" y="-12" type="curve" smooth="yes"/>
      <point x="322" y="-12"/>
      <point x="376" y="18"/>
      <point x="412" y="57" type="curve"/>
      <point x="415" y="57" type="line"/>
      <point x="413" y="-34" type="line"/>
      <point x="413" y="-118"/>
      <point x="455" y="-174"/>
    </contour>
    <contour>
      <point x="289" y="70" type="curve" smooth="yes"/>
      <point x="208" y="70"/>
      <point x="158" y="133"/>
      <point x="158" y="245" type="curve" smooth="yes"/>
      <point x="158" y="351"/>
      <point x="220" y="418"/>
      <point x="293" y="418" type="curve" smooth="yes"/>
      <point x="331" y="418"/>
      <point x="371" y="405"/>
      <point x="410" y="368" type="curve"/>
      <point x="410" y="136" type="line"/>
      <point x="372" y="92"/>
      <point x="332" y="70"/>
    </contour>
    <contour>
      <point x="368" y="735" type="move" name="aboveUC"/>
    </contour>
    <contour>
      <point x="310" y="-215" type="move" name="belowLC"/>
    </contour>
  </outline>
</glyph>
<glyph name="dhook" format="1">
  <advance width="600"/>
  <unicode hex="0257"/>
  <outline>
    <contour>
      <point x="265" y="-12" type="curve" smooth="yes"/>
      <point x="322" y="-12"/>
      <point x="378" y="21"/>
      <point x="416" y="60" type="curve"/>
      <point x="419" y="60" type="line"/>
      <point x="427" y="0" type="line"/>
      <point x="508" y="0" type="line"/>
      <point x="508" y="556" type="line" smooth="yes"/>
      <point x="508" y="611"/>
      <point x="523" y="643"/>
      <point x="566" y="643" type="curve" smooth="yes"/>
      <point x="577" y="643"/>
      <point x="585" y="641"/>
      <point x="594" y="638" type="curve"/>
      <point x="613" y="712" type="line"/>
      <point x="597" y="718"/>
      <point x="579" y="722"/>
      <point x="553" y="722" type="curve" smooth="yes"/>
      <point x="455" y="722"/>
      <point x="413" y="660"/>
      <point x="413" y="571" type="curve"/>
      <point x="413" y="527" type="line"/>
      <point x="414" y="440" type="line"/>
      <point x="411" y="440" type="line"/>
      <point x="372" y="479"/>
      <point x="330" y="501"/>
      <point x="273" y="501" type="curve" smooth="yes"/>
      <point x="161" y="501"/>
      <point x="56" y="403"/>
      <point x="56" y="244" type="curve" smooth="yes"/>
      <point x="56" y="82"/>
      <point x="139" y="-12"/>
    </contour>
    <contour>
      <point x="288" y="70" type="curve" smooth="yes"/>
      <point x="207" y="70"/>
      <point x="158" y="133"/>
      <point x="158" y="245" type="curve" smooth="yes"/>
      <point x="158" y="351"/>
      <point x="219" y="418"/>
      <point x="292" y="418" type="curve" smooth="yes"/>
      <point x="330" y="418"/>
      <point x="370" y="405"/>
      <point x="409" y="368" type="curve"/>
      <point x="409" y="136" type="line"/>
      <point x="371" y="92"/>
      <point x="331" y="70"/>
    </contour>
    <contour>
      <point x="387" y="735" type="move" name="aboveUC"/>
    </contour>
    <contour>
      <point x="300" y="-20" type="move" name="belowLC"/>
    </contour>
  </outline>
</glyph>
<glyph name="ereversed" format="1">
  <advance width="600"/>
  <unicode hex="0258"/>
  <outline>
    <contour>
      <point x="270" y="-12" type="curve" smooth="yes"/>
      <point x="417" y="-12"/>
      <point x="535" y="83"/>
      <point x="535" y="243" type="curve" smooth="yes"/>
      <point x="535" y="403"/>
      <point x="425" y="501"/>
      <point x="296" y="501" type="curve" smooth="yes"/>
      <point x="153" y="501"/>
      <point x="61" y="406"/>
      <point x="61" y="270" type="curve" smooth="yes"/>
      <point x="61" y="251"/>
      <point x="62" y="228"/>
      <point x="64" y="216" type="curve"/>
      <point x="466" y="216" type="line"/>
      <point x="466" y="289" type="line"/>
      <point x="126" y="289" type="line"/>
      <point x="148" y="265" type="line"/>
      <point x="148" y="370"/>
      <point x="206" y="423"/>
      <point x="289" y="423" type="curve" smooth="yes"/>
      <point x="374" y="423"/>
      <point x="438" y="360"/>
      <point x="438" y="245" type="curve" smooth="yes"/>
      <point x="438" y="125"/>
      <point x="362" y="66"/>
      <point x="258" y="66" type="curve" smooth="yes"/>
      <point x="204" y="66"/>
      <point x="159" y="82"/>
      <point x="115" y="108" type="curve"/>
      <point x="81" y="45" type="line"/>
      <point x="131" y="13"/>
      <point x="195" y="-12"/>
    </contour>
    <contour>
      <point x="309" y="509" type="move" name="aboveLC"/>
    </contour>
    <contour>
      <point x="295" y="-20" type="move" name="belowLC"/>
    </contour>
  </outline>
</glyph>
<glyph name="schwa" format="1">
  <advance width="600"/>
  <unicode hex="0259"/>
  <outline>
    <contour>
      <point x="295" y="-12" type="curve" smooth="yes"/>
      <point x="429" y="-12"/>
      <point x="539" y="83"/>
      <point x="539" y="245" type="curve" smooth="yes"/>
      <point x="539" y="405"/>
      <point x="434" y="501"/>
      <point x="287" y="501" type="curve" smooth="yes"/>
      <point x="211" y="501"/>
      <point x="147" y="476"/>
      <point x="96" y="443" type="curve"/>
      <point x="131" y="380" type="line"/>
      <point x="175" y="407"/>
      <point x="220" y="423"/>
      <point x="275" y="423" type="curve" smooth="yes"/>
      <point x="379" y="423"/>
      <point x="443" y="364"/>
      <point x="443" y="243" type="curve" smooth="yes"/>
      <point x="443" y="126"/>
      <point x="383" y="66"/>
      <point x="293" y="66" type="curve" smooth="yes"/>
      <point x="204" y="66"/>
      <point x="153" y="122"/>
      <point x="153" y="231" type="curve"/>
      <point x="132" y="206" type="line"/>
      <point x="471" y="206" type="line"/>
      <point x="471" y="279" type="line"/>
      <point x="70" y="279" type="line"/>
      <point x="68" y="267"/>
      <point x="65" y="245"/>
      <point x="65" y="225" type="curve" smooth="yes"/>
      <point x="65" y="87"/>
      <point x="147" y="-12"/>
    </contour>
    <contour>
      <point x="295" y="0" type="move" name="ogonekLC"/>
    </contour>
    <contour>
      <point x="310" y="509" type="move" name="aboveLC"/>
    </contour>
    <contour>
      <point x="295" y="0" type="move" name="baseLC"/>
    </contour>
    <contour>
      <point x="295" y="-20" type="move" name="belowLC"/>
    </contour>
  </outline>
</glyph>
<glyph name="schwahookrhotic" format="1">
  <advance width="600"/>
  <unicode hex="025A"/>
  <outline>
    <contour>
      <point x="213" y="-12" type="curve" smooth="yes"/>
      <point x="336" y="-12"/>
      <point x="417" y="92"/>
      <point x="417" y="237" type="curve" smooth="yes"/>
      <point x="417" y="405"/>
      <point x="332" y="501"/>
      <point x="201" y="501" type="curve" smooth="yes"/>
      <point x="140" y="501"/>
      <point x="90" y="482"/>
      <point x="45" y="451" type="curve"/>
      <point x="79" y="385" type="line"/>
      <point x="113" y="408"/>
      <point x="145" y="424"/>
      <point x="193" y="424" type="curve" smooth="yes"/>
      <point x="268" y="424"/>
      <point x="324" y="369"/>
      <point x="324" y="216" type="curve" smooth="yes"/>
      <point x="324" y="125"/>
      <point x="279" y="65"/>
      <point x="212" y="65" type="curve" smooth="yes"/>
      <point x="156" y="65"/>
      <point x="112" y="97"/>
      <point x="98" y="187" type="curve"/>
      <point x="85" y="158" type="line"/>
      <point x="461" y="323" type="line"/>
      <point x="476" y="250"/>
      <point x="518" y="229"/>
      <point x="558" y="229" type="curve" smooth="yes"/>
      <point x="585" y="229"/>
      <point x="606" y="242"/>
      <point x="622" y="254" type="curve"/>
      <point x="598" y="304" type="line"/>
      <point x="589" y="297"/>
      <point x="578" y="290"/>
      <point x="565" y="290" type="curve" smooth="yes"/>
      <point x="537" y="290"/>
      <point x="522" y="307"/>
      <point x="517" y="382" type="curve"/>
      <point x="468" y="402" type="line"/>
      <point x="17" y="202" type="line"/>
      <point x="26" y="84"/>
      <point x="88" y="-12"/>
    </contour>
    <contour>
      <point x="225" y="510" type="move" name="aboveLC"/>
    </contour>
    <contour>
      <point x="221" y="-20" type="move" name="belowLC"/>
    </contour>
  </outline>
</glyph>
<glyph name="ghook" format="1">
  <advance width="600"/>
  <unicode hex="0260"/>
  <outline>
    <contour>
      <point x="276" y="-211" type="curve" smooth="yes"/>
      <point x="423" y="-211"/>
      <point x="509" y="-139"/>
      <point x="509" y="-17" type="curve" smooth="yes"/>
      <point x="509" y="469" type="line" smooth="yes"/>
      <point x="509" y="522"/>
      <point x="524" y="556"/>
      <point x="567" y="556" type="curve" smooth="yes"/>
      <point x="577" y="556"/>
      <point x="587" y="554"/>
      <point x="595" y="551" type="curve"/>
      <point x="614" y="625" type="line"/>
      <point x="598" y="631"/>
      <point x="580" y="635"/>
      <point x="554" y="635" type="curve" smooth="yes"/>
      <point x="455" y="635"/>
      <point x="412" y="570"/>
      <point x="412" y="485" type="curve"/>
      <point x="414" y="440" type="line"/>
      <point x="411" y="440" type="line"/>
      <point x="374" y="477"/>
      <point x="331" y="501"/>
      <point x="276" y="501" type="curve" smooth="yes"/>
      <point x="164" y="501"/>
      <point x="57" y="404"/>
      <point x="57" y="252" type="curve" smooth="yes"/>
      <point x="57" y="101"/>
      <point x="140" y="7"/>
      <point x="265" y="7" type="curve" smooth="yes"/>
      <point x="321" y="7"/>
      <point x="375" y="35"/>
      <point x="411" y="72" type="curve"/>
      <point x="414" y="72" type="line"/>
      <point x="410" y="-16" type="line" smooth="yes"/>
      <point x="408" y="-86"/>
      <point x="364" y="-132"/>
      <point x="276" y="-132" type="curve" smooth="yes"/>
      <point x="230" y="-132"/>
      <point x="175" y="-119"/>
      <point x="127" y="-89" type="curve"/>
      <point x="91" y="-157" type="line"/>
      <point x="146" y="-192"/>
      <point x="215" y="-211"/>
    </contour>
    <contour>
      <point x="289" y="88" type="curve" smooth="yes"/>
      <point x="208" y="88"/>
      <point x="158" y="151"/>
      <point x="158" y="253" type="curve" smooth="yes"/>
      <point x="158" y="352"/>
      <point x="219" y="418"/>
      <point x="293" y="418" type="curve" smooth="yes"/>
      <point x="331" y="418"/>
      <point x="371" y="405"/>
      <point x="410" y="368" type="curve"/>
      <point x="410" y="155" type="line"/>
      <point x="371" y="110"/>
      <point x="332" y="88"/>
    </contour>
    <contour>
      <point x="305" y="510" type="move" name="aboveLC"/>
    </contour>
    <contour>
      <point x="295" y="-215" type="move" name="belowLC"/>
    </contour>
  </outline>
</glyph>
<glyph name="gsmall" format="1">
	<unicode hex="0262"/>
	<advance width="600"/>
	<outline>
		<contour>
			<point x="338" y="-12" type="curve" smooth="yes"/>
			<point x="417" y="-12"/>
			<point x="486" y="17"/>
			<point x="528" y="57" type="curve"/>
			<point x="528" y="271" type="line"/>
			<point x="318" y="271" type="line"/>
			<point x="318" y="202" type="line"/>
			<point x="441" y="202" type="line"/>
			<point x="441" y="98" type="line"/>
			<point x="416" y="78"/>
			<point x="382" y="66"/>
			<point x="343" y="66" type="curve" smooth="yes"/>
			<point x="246" y="66"/>
			<point x="175" y="132"/>
			<point x="175" y="244" type="curve" smooth="yes"/>
			<point x="175" y="360"/>
			<point x="256" y="423"/>
			<point x="349" y="423" type="curve" smooth="yes"/>
			<point x="409" y="423"/>
			<point x="444" y="399"/>
			<point x="479" y="371" type="curve"/>
			<point x="526" y="432" type="line"/>
			<point x="484" y="469"/>
			<point x="430" y="501"/>
			<point x="343" y="501" type="curve" smooth="yes"/>
			<point x="200" y="501"/>
			<point x="74" y="405"/>
			<point x="74" y="244" type="curve" smooth="yes"/>
			<point x="74" y="76"/>
			<point x="194" y="-12"/>
		</contour>
		<contour>
			<point name="aboveLC" x="335" y="510" type="move"/>
		</contour>
		<contour>
			<point name="belowLC" x="325" y="-20" type="move"/>
		</contour>
	</outline>
</glyph>
<glyph name="gammalatin" format="1">
  <advance width="600"/>
  <unicode hex="0263"/>
  <outline>
    <contour>
      <point x="245" y="44" type="line"/>
      <point x="359" y="44" type="line"/>
      <point x="554" y="489" type="line"/>
      <point x="458" y="489" type="line"/>
      <point x="354" y="233" type="line"/>
      <point x="336" y="188"/>
      <point x="323" y="157"/>
      <point x="304" y="112" type="curve"/>
      <point x="300" y="112" type="line"/>
      <point x="282" y="157"/>
      <point x="269" y="188"/>
      <point x="251" y="233" type="curve"/>
      <point x="147" y="489" type="line"/>
      <point x="46" y="489" type="line"/>
    </contour>
    <contour>
      <point x="302" y="-220" type="curve" smooth="yes"/>
      <point x="383" y="-220"/>
      <point x="430" y="-170"/>
      <point x="430" y="-95" type="curve" smooth="yes"/>
      <point x="430" y="-42"/>
      <point x="397" y="3"/>
      <point x="352" y="90" type="curve"/>
      <point x="253" y="90" type="line"/>
      <point x="208" y="3"/>
      <point x="175" y="-42"/>
      <point x="175" y="-95" type="curve" smooth="yes"/>
      <point x="175" y="-170"/>
      <point x="222" y="-220"/>
    </contour>
    <contour>
      <point x="302" y="-154" type="curve" smooth="yes"/>
      <point x="274" y="-154"/>
      <point x="258" y="-130"/>
      <point x="258" y="-97" type="curve" smooth="yes"/>
      <point x="258" y="-68"/>
      <point x="275" y="-30"/>
      <point x="299" y="15" type="curve"/>
      <point x="304" y="15" type="line"/>
      <point x="329" y="-30"/>
      <point x="347" y="-65"/>
      <point x="347" y="-97" type="curve" smooth="yes"/>
      <point x="347" y="-130"/>
      <point x="332" y="-154"/>
    </contour>
    <contour>
      <point x="300" y="510" type="move" name="aboveLC"/>
    </contour>
    <contour>
      <point x="300" y="-224" type="move" name="belowLC"/>
    </contour>
  </outline>
</glyph>
<glyph name="henghook" format="1">
  <advance width="600"/>
  <unicode hex="0267"/>
  <outline>
    <contour>
      <point x="378" y="-184" type="curve" smooth="yes"/>
      <point x="488" y="-184"/>
      <point x="527" y="-112"/>
      <point x="527" y="-7" type="curve"/>
      <point x="527" y="293" type="line" smooth="yes"/>
      <point x="527" y="421"/>
      <point x="475" y="491"/>
      <point x="361" y="491" type="curve" smooth="yes"/>
      <point x="286" y="491"/>
      <point x="230" y="451"/>
      <point x="184" y="401" type="curve"/>
      <point x="180" y="401" type="line"/>
      <point x="187" y="505" type="line"/>
      <point x="187" y="532" type="line"/>
      <point x="190" y="602"/>
      <point x="220" y="642"/>
      <point x="288" y="642" type="curve" smooth="yes"/>
      <point x="309" y="642"/>
      <point x="332" y="636"/>
      <point x="354" y="627" type="curve"/>
      <point x="375" y="701" type="line"/>
      <point x="349" y="711"/>
      <point x="314" y="721"/>
      <point x="277" y="721" type="curve" smooth="yes"/>
      <point x="147" y="721"/>
      <point x="88" y="639"/>
      <point x="88" y="527" type="curve"/>
      <point x="88" y="0" type="line"/>
      <point x="187" y="0" type="line"/>
      <point x="187" y="328" type="line"/>
      <point x="237" y="379"/>
      <point x="274" y="406"/>
      <point x="326" y="406" type="curve" smooth="yes"/>
      <point x="400" y="406"/>
      <point x="428" y="366"/>
      <point x="428" y="280" type="curve" smooth="yes"/>
      <point x="428" y="-8" type="line"/>
      <point x="428" y="-69"/>
      <point x="416" y="-104"/>
      <point x="365" y="-104" type="curve" smooth="yes"/>
      <point x="347" y="-104"/>
      <point x="330" y="-100"/>
      <point x="316" y="-95" type="curve"/>
      <point x="297" y="-170" type="line"/>
      <point x="316" y="-177"/>
      <point x="344" y="-184"/>
    </contour>
    <contour>
      <point x="275" y="735" type="move" name="aboveUC"/>
    </contour>
    <contour>
      <point x="351" y="-215" type="move" name="belowLC"/>
    </contour>
  </outline>
</glyph>
<glyph name="lmiddletilde" format="1">
	<unicode hex="026B"/>
	<advance width="600"/>
	<outline>
		<component base="l"/>
		<component base="tildeoverlaycmb" xOffset="-15" yOffset="136"/>
		<contour>
			<point name="aboveUC" x="282" y="735" type="move"/>
		</contour>
		<contour>
			<point name="belowLC" x="381" y="-20" type="move"/>
		</contour>
	</outline>
</glyph>
<glyph name="lezh" format="1">
  <advance width="600"/>
  <unicode hex="026E"/>
  <outline>
    <contour>
      <point x="69" y="0" type="line"/>
      <point x="168" y="0" type="line"/>
      <point x="168" y="709" type="line"/>
      <point x="69" y="709" type="line"/>
    </contour>
    <contour>
      <point x="361" y="-212" type="curve" smooth="yes"/>
      <point x="475" y="-212"/>
      <point x="578" y="-132"/>
      <point x="578" y="10" type="curve" smooth="yes"/>
      <point x="578" y="124"/>
      <point x="498" y="217"/>
      <point x="345" y="196" type="curve"/>
      <point x="357" y="173" type="line"/>
      <point x="556" y="436" type="line"/>
      <point x="556" y="489" type="line"/>
      <point x="164" y="489" type="line"/>
      <point x="164" y="409" type="line"/>
      <point x="434" y="409" type="line"/>
      <point x="250" y="166" type="line"/>
      <point x="288" y="115" type="line"/>
      <point x="310" y="125"/>
      <point x="323" y="129"/>
      <point x="355" y="129" type="curve" smooth="yes"/>
      <point x="431" y="129"/>
      <point x="478" y="84"/>
      <point x="478" y="7" type="curve" smooth="yes"/>
      <point x="478" y="-77"/>
      <point x="422" y="-130"/>
      <point x="351" y="-130" type="curve" smooth="yes"/>
      <point x="283" y="-130"/>
      <point x="239" y="-103"/>
      <point x="204" y="-70" type="curve"/>
      <point x="157" y="-133" type="line"/>
      <point x="200" y="-174"/>
      <point x="262" y="-212"/>
    </contour>
    <contour>
      <point x="120" y="735" type="move" name="aboveUC"/>
    </contour>
    <contour>
      <point x="360" y="-215" type="move" name="belowLC"/>
    </contour>
  </outline>
</glyph>
<glyph name="mturned" format="1">
  <advance width="600"/>
  <unicode hex="026F"/>
  <outline>
    <component base="m" xScale="-1.0" yScale="-1.0" xOffset="600" yOffset="489"/>
    <contour>
      <point x="295" y="511" type="move" name="aboveLC"/>
    </contour>
    <contour>
      <point x="295" y="-20" type="move" name="belowLC"/>
    </contour>
  </outline>
</glyph>
<glyph name="nhookleft" format="1">
  <advance width="600"/>
  <unicode hex="0272"/>
  <outline>
    <contour>
      <point x="58" y="-184" type="curve" smooth="yes"/>
      <point x="158" y="-184"/>
      <point x="192" y="-118"/>
      <point x="192" y="-20" type="curve" smooth="yes"/>
      <point x="192" y="337" type="line"/>
      <point x="243" y="389"/>
      <point x="278" y="415"/>
      <point x="330" y="415" type="curve" smooth="yes"/>
      <point x="399" y="415"/>
      <point x="428" y="379"/>
      <point x="428" y="290" type="curve" smooth="yes"/>
      <point x="428" y="0" type="line"/>
      <point x="527" y="0" type="line"/>
      <point x="527" y="303" type="line" smooth="yes"/>
      <point x="527" y="430"/>
      <point x="476" y="501"/>
      <point x="362" y="501" type="curve" smooth="yes"/>
      <point x="289" y="501"/>
      <point x="236" y="461"/>
      <point x="187" y="410" type="curve"/>
      <point x="183" y="410" type="line"/>
      <point x="175" y="489" type="line"/>
      <point x="93" y="489" type="line"/>
      <point x="93" y="-21" type="line" smooth="yes"/>
      <point x="93" y="-75"/>
      <point x="82" y="-104"/>
      <point x="45" y="-104" type="curve" smooth="yes"/>
      <point x="33" y="-104"/>
      <point x="21" y="-100"/>
      <point x="11" y="-96" type="curve"/>
      <point x="-8" y="-171" type="line"/>
      <point x="7" y="-178"/>
      <point x="30" y="-184"/>
    </contour>
    <contour>
      <point x="330" y="510" type="move" name="aboveLC"/>
    </contour>
    <contour>
      <point x="197" y="-215" type="move" name="belowLC"/>
    </contour>
  </outline>
</glyph>
<glyph name="nsmall" format="1">
  <advance width="600"/>
  <unicode hex="0274"/>
  <outline>
    <contour>
      <point x="90" y="0" type="line"/>
      <point x="184" y="0" type="line"/>
      <point x="184" y="185" type="line" smooth="yes"/>
      <point x="184" y="237"/>
      <point x="179" y="299"/>
      <point x="174" y="362" type="curve"/>
      <point x="178" y="362" type="line"/>
      <point x="197" y="331"/>
      <point x="223" y="287"/>
      <point x="242" y="258" type="curve" smooth="yes"/>
      <point x="416" y="0" type="line"/>
      <point x="510" y="0" type="line"/>
      <point x="510" y="489" type="line"/>
      <point x="416" y="489" type="line"/>
      <point x="416" y="303" type="line" smooth="yes"/>
      <point x="416" y="252"/>
      <point x="421" y="189"/>
      <point x="425" y="127" type="curve"/>
      <point x="422" y="127" type="line"/>
      <point x="402" y="157"/>
      <point x="377" y="201"/>
      <point x="358" y="231" type="curve" smooth="yes"/>
      <point x="184" y="489" type="line"/>
      <point x="90" y="489" type="line"/>
    </contour>
    <contour>
      <point x="308" y="509" type="move" name="aboveLC"/>
    </contour>
    <contour>
      <point x="303" y="-20" type="move" name="belowLC"/>
    </contour>
  </outline>
</glyph>
<glyph name="obar" format="1">
  <advance width="600"/>
  <unicode hex="0275"/>
  <outline>
    <contour>
      <point x="300" y="-12" type="curve" smooth="yes"/>
      <point x="430" y="-12"/>
      <point x="543" y="76"/>
      <point x="543" y="243" type="curve" smooth="yes"/>
      <point x="543" y="413"/>
      <point x="430" y="501"/>
      <point x="300" y="501" type="curve" smooth="yes"/>
      <point x="170" y="501"/>
      <point x="57" y="413"/>
      <point x="57" y="243" type="curve" smooth="yes"/>
      <point x="57" y="76"/>
      <point x="170" y="-12"/>
    </contour>
    <contour>
      <point x="300" y="65" type="curve" smooth="yes"/>
      <point x="210" y="65"/>
      <point x="150" y="130"/>
      <point x="150" y="243" type="curve" smooth="yes"/>
      <point x="150" y="358"/>
      <point x="210" y="425"/>
      <point x="300" y="425" type="curve" smooth="yes"/>
      <point x="390" y="425"/>
      <point x="450" y="358"/>
      <point x="450" y="243" type="curve" smooth="yes"/>
      <point x="450" y="130"/>
      <point x="390" y="65"/>
    </contour>
    <contour>
      <point x="130" y="216" type="line"/>
      <point x="466" y="216" type="line"/>
      <point x="466" y="289" type="line"/>
      <point x="130" y="289" type="line"/>
    </contour>
    <contour>
      <point x="300" y="509" type="move" name="aboveLC"/>
    </contour>
    <contour>
      <point x="300" y="-20" type="move" name="belowLC"/>
    </contour>
  </outline>
</glyph>
<glyph name="oesmall" format="1">
  <advance width="600"/>
  <unicode hex="0276"/>
  <outline>
    <contour>
      <point x="239" y="-12" type="curve" smooth="yes"/>
      <point x="272" y="-12"/>
      <point x="300" y="-9"/>
      <point x="339" y="0" type="curve"/>
      <point x="589" y="0" type="line"/>
      <point x="589" y="80" type="line"/>
      <point x="397" y="80" type="line"/>
      <point x="397" y="216" type="line"/>
      <point x="543" y="216" type="line"/>
      <point x="543" y="289" type="line"/>
      <point x="397" y="289" type="line"/>
      <point x="397" y="408" type="line"/>
      <point x="579" y="408" type="line"/>
      <point x="579" y="489" type="line"/>
      <point x="339" y="489" type="line"/>
      <point x="298" y="498"/>
      <point x="272" y="501"/>
      <point x="239" y="501" type="curve" smooth="yes"/>
      <point x="127" y="501"/>
      <point x="29" y="413"/>
      <point x="29" y="244" type="curve" smooth="yes"/>
      <point x="29" y="75"/>
      <point x="127" y="-12"/>
    </contour>
    <contour>
      <point x="247" y="68" type="curve" smooth="yes"/>
      <point x="183" y="68"/>
      <point x="131" y="120"/>
      <point x="131" y="244" type="curve" smooth="yes"/>
      <point x="131" y="364"/>
      <point x="183" y="420"/>
      <point x="247" y="420" type="curve" smooth="yes"/>
      <point x="267" y="420"/>
      <point x="289" y="414"/>
      <point x="307" y="409" type="curve"/>
      <point x="307" y="78" type="line"/>
      <point x="288" y="73"/>
      <point x="266" y="68"/>
    </contour>
    <contour>
      <point x="355" y="509" type="move" name="aboveLC"/>
    </contour>
    <contour>
      <point x="350" y="-20" type="move" name="belowLC"/>
    </contour>
  </outline>
</glyph>
<glyph name="rhookturned" format="1">
  <advance width="600"/>
  <unicode hex="027B"/>
  <outline>
    <contour>
      <point x="443" y="-184" type="curve" smooth="yes"/>
      <point x="477" y="-184"/>
      <point x="509" y="-175"/>
      <point x="531" y="-165" type="curve"/>
      <point x="509" y="-91" type="line"/>
      <point x="494" y="-98"/>
      <point x="473" y="-104"/>
      <point x="456" y="-104" type="curve" smooth="yes"/>
      <point x="408" y="-104"/>
      <point x="392" y="-77"/>
      <point x="392" y="-11" type="curve"/>
      <point x="392" y="489" type="line"/>
      <point x="293" y="489" type="line"/>
      <point x="293" y="193" type="line"/>
      <point x="259" y="106"/>
      <point x="204" y="76"/>
      <point x="157" y="76" type="curve" smooth="yes"/>
      <point x="127" y="76"/>
      <point x="110" y="81"/>
      <point x="82" y="92" type="curve"/>
      <point x="60" y="8" type="line"/>
      <point x="90" y="-7"/>
      <point x="119" y="-12"/>
      <point x="146" y="-12" type="curve" smooth="yes"/>
      <point x="211" y="-12"/>
      <point x="265" y="27"/>
      <point x="300" y="93" type="curve"/>
      <point x="303" y="93" type="line"/>
      <point x="303" y="-22" type="line" smooth="yes"/>
      <point x="303" y="-121"/>
      <point x="339" y="-184"/>
    </contour>
    <contour>
      <point x="334" y="510" type="move" name="aboveLC"/>
    </contour>
    <contour>
      <point x="305" y="-215" type="move" name="belowLC"/>
    </contour>
  </outline>
</glyph>
<glyph name="rfishhook" format="1">
  <advance width="600"/>
  <unicode hex="027E"/>
  <outline>
    <contour>
      <point x="138" y="0" type="line"/>
      <point x="237" y="0" type="line"/>
      <point x="237" y="230" type="line" smooth="yes"/>
      <point x="237" y="361"/>
      <point x="321" y="413"/>
      <point x="408" y="413" type="curve" smooth="yes"/>
      <point x="449" y="413"/>
      <point x="475" y="410"/>
      <point x="518" y="396" type="curve"/>
      <point x="540" y="481" type="line"/>
      <point x="504" y="493"/>
      <point x="454" y="501"/>
      <point x="397" y="501" type="curve" smooth="yes"/>
      <point x="232" y="501"/>
      <point x="138" y="407"/>
      <point x="138" y="251" type="curve" smooth="yes"/>
    </contour>
    <contour>
      <point x="355" y="510" type="move" name="aboveLC"/>
    </contour>
    <contour>
      <point x="192" y="-20" type="move" name="belowLC"/>
    </contour>
  </outline>
</glyph>
<glyph name="rsmall" format="1">
  <advance width="600"/>
  <unicode hex="0280"/>
  <outline>
    <contour>
      <point x="92" y="0" type="line"/>
      <point x="192" y="0" type="line"/>
      <point x="192" y="183" type="line"/>
      <point x="338" y="183" type="line"/>
      <point x="430" y="183"/>
      <point x="525" y="228"/>
      <point x="525" y="339" type="curve" smooth="yes"/>
      <point x="525" y="451"/>
      <point x="443" y="489"/>
      <point x="336" y="489" type="curve" smooth="yes"/>
      <point x="92" y="489" type="line"/>
    </contour>
    <contour>
      <point x="192" y="256" type="line"/>
      <point x="192" y="412" type="line"/>
      <point x="320" y="412" type="line" smooth="yes"/>
      <point x="388" y="412"/>
      <point x="427" y="391"/>
      <point x="427" y="337" type="curve" smooth="yes"/>
      <point x="427" y="284"/>
      <point x="388" y="256"/>
      <point x="320" y="256" type="curve" smooth="yes"/>
    </contour>
    <contour>
      <point x="439" y="0" type="line"/>
      <point x="550" y="0" type="line"/>
      <point x="377" y="235" type="line"/>
      <point x="292" y="207" type="line"/>
    </contour>
    <contour>
      <point x="315" y="509" type="move" name="aboveLC"/>
    </contour>
    <contour>
      <point x="315" y="-20" type="move" name="belowLC"/>
    </contour>
  </outline>
</glyph>
<glyph name="tretroflex" format="1">
  <advance width="600"/>
  <unicode hex="0288"/>
  <outline>
    <contour>
      <point x="392" y="-184" type="curve" smooth="yes"/>
      <point x="447" y="-184"/>
      <point x="503" y="-171"/>
      <point x="547" y="-156" type="curve"/>
      <point x="527" y="-83" type="line"/>
      <point x="494" y="-96"/>
      <point x="458" y="-104"/>
      <point x="415" y="-104" type="curve" smooth="yes"/>
      <point x="326" y="-104"/>
      <point x="297" y="-63"/>
      <point x="297" y="21" type="curve" smooth="yes"/>
      <point x="297" y="409" type="line"/>
      <point x="528" y="409" type="line"/>
      <point x="528" y="489" type="line"/>
      <point x="297" y="489" type="line"/>
      <point x="297" y="644" type="line"/>
      <point x="215" y="644" type="line"/>
      <point x="202" y="489" type="line"/>
      <point x="64" y="484" type="line"/>
      <point x="64" y="409" type="line"/>
      <point x="198" y="409" type="line"/>
      <point x="198" y="22" type="line" smooth="yes"/>
      <point x="198" y="-101"/>
      <point x="247" y="-184"/>
    </contour>
    <contour>
      <point x="254" y="647" type="move" name="aboveLC"/>
    </contour>
    <contour>
      <point x="377" y="-215" type="move" name="belowLC"/>
    </contour>
  </outline>
</glyph>
<glyph name="ysmall" format="1">
  <advance width="600"/>
  <unicode hex="028F"/>
  <outline>
    <contour>
      <point x="252" y="0" type="line"/>
      <point x="351" y="0" type="line"/>
      <point x="351" y="160" type="line"/>
      <point x="551" y="489" type="line"/>
      <point x="446" y="489" type="line"/>
      <point x="370" y="359" type="line"/>
      <point x="346" y="315"/>
      <point x="326" y="279"/>
      <point x="304" y="233" type="curve"/>
      <point x="300" y="233" type="line"/>
      <point x="278" y="279"/>
      <point x="256" y="315"/>
      <point x="234" y="359" type="curve"/>
      <point x="157" y="489" type="line"/>
      <point x="51" y="489" type="line"/>
      <point x="252" y="160" type="line"/>
    </contour>
    <contour>
      <point x="300" y="510" type="move" name="aboveLC"/>
    </contour>
    <contour>
      <point x="300" y="-20" type="move" name="belowLC"/>
    </contour>
  </outline>
</glyph>
<glyph name="zretroflex" format="1">
  <advance width="600"/>
  <unicode hex="0290"/>
  <outline>
    <contour>
      <point x="558" y="-184" type="curve" smooth="yes"/>
      <point x="586" y="-184"/>
      <point x="609" y="-178"/>
      <point x="624" y="-171" type="curve"/>
      <point x="605" y="-96" type="line"/>
      <point x="595" y="-100"/>
      <point x="583" y="-104"/>
      <point x="571" y="-104" type="curve" smooth="yes"/>
      <point x="534" y="-104"/>
      <point x="522" y="-75"/>
      <point x="522" y="-21" type="curve" smooth="yes"/>
      <point x="522" y="80" type="line"/>
      <point x="210" y="80" type="line"/>
      <point x="519" y="436" type="line"/>
      <point x="519" y="489" type="line"/>
      <point x="106" y="489" type="line"/>
      <point x="106" y="409" type="line"/>
      <point x="379" y="409" type="line"/>
      <point x="71" y="53" type="line"/>
      <point x="71" y="0" type="line"/>
      <point x="423" y="0" type="line"/>
      <point x="423" y="-30" type="line" smooth="yes"/>
      <point x="423" y="-118"/>
      <point x="458" y="-184"/>
    </contour>
    <contour>
      <point x="321" y="510" type="move" name="aboveLC"/>
    </contour>
  </outline>
</glyph>
<glyph name="glottalstopreversed" format="1">
  <advance width="600"/>
  <unicode hex="0295"/>
  <outline>
    <contour>
      <point x="269" y="0" type="line"/>
      <point x="368" y="0" type="line"/>
      <point x="368" y="312" type="line"/>
      <point x="237" y="387"/>
      <point x="184" y="435"/>
      <point x="184" y="516" type="curve" smooth="yes"/>
      <point x="184" y="592"/>
      <point x="236" y="640"/>
      <point x="325" y="640" type="curve" smooth="yes"/>
      <point x="396" y="640"/>
      <point x="447" y="603"/>
      <point x="481" y="562" type="curve"/>
      <point x="532" y="625" type="line"/>
      <point x="488" y="675"/>
      <point x="419" y="721"/>
      <point x="317" y="721" type="curve" smooth="yes"/>
      <point x="189" y="721"/>
      <point x="84" y="652"/>
      <point x="84" y="519" type="curve" smooth="yes"/>
      <point x="84" y="404"/>
      <point x="160" y="343"/>
      <point x="269" y="271" type="curve"/>
    </contour>
    <contour>
      <point x="305" y="735" type="move" name="aboveUC"/>
    </contour>
    <contour>
      <point x="320" y="-20" type="move" name="belowLC"/>
    </contour>
  </outline>
</glyph>
<glyph name="clickbilabial" format="1">
  <advance width="600"/>
  <unicode hex="0298"/>
  <outline>
    <contour>
      <point x="300" y="-12" type="curve" smooth="yes"/>
      <point x="446" y="-12"/>
      <point x="544" y="104"/>
      <point x="544" y="357" type="curve" smooth="yes"/>
      <point x="544" y="597"/>
      <point x="446" y="721"/>
      <point x="300" y="721" type="curve" smooth="yes"/>
      <point x="154" y="721"/>
      <point x="56" y="597"/>
      <point x="56" y="357" type="curve" smooth="yes"/>
      <point x="56" y="104"/>
      <point x="154" y="-12"/>
    </contour>
    <contour>
      <point x="300" y="69" type="curve" smooth="yes"/>
      <point x="216" y="69"/>
      <point x="150" y="143"/>
      <point x="150" y="357" type="curve" smooth="yes"/>
      <point x="150" y="556"/>
      <point x="216" y="640"/>
      <point x="300" y="640" type="curve" smooth="yes"/>
      <point x="384" y="640"/>
      <point x="451" y="556"/>
      <point x="451" y="357" type="curve" smooth="yes"/>
      <point x="451" y="143"/>
      <point x="384" y="69"/>
    </contour>
    <contour>
      <point x="300" y="292" type="curve" smooth="yes"/>
      <point x="335" y="292"/>
      <point x="365" y="320"/>
      <point x="365" y="357" type="curve" smooth="yes"/>
      <point x="365" y="397"/>
      <point x="335" y="424"/>
      <point x="300" y="424" type="curve" smooth="yes"/>
      <point x="265" y="424"/>
      <point x="235" y="397"/>
      <point x="235" y="357" type="curve" smooth="yes"/>
      <point x="235" y="320"/>
      <point x="265" y="292"/>
    </contour>
  </outline>
</glyph>
<glyph name="kturned" format="1">
  <advance width="600"/>
  <unicode hex="029E"/>
  <outline>
    <contour>
      <point x="403" y="-200" type="line"/>
      <point x="502" y="-200" type="line"/>
      <point x="502" y="489" type="line"/>
      <point x="403" y="489" type="line"/>
      <point x="403" y="358" type="line"/>
      <point x="47" y="0" type="line"/>
      <point x="158" y="0" type="line"/>
      <point x="399" y="242" type="line"/>
      <point x="403" y="242" type="line"/>
    </contour>
    <contour>
      <point x="252" y="176" type="line"/>
      <point x="311" y="239" type="line"/>
      <point x="132" y="489" type="line"/>
      <point x="23" y="489" type="line"/>
    </contour>
    <contour>
      <point x="287" y="510" type="move" name="aboveLC"/>
    </contour>
    <contour>
      <point x="450" y="-215" type="move" name="belowLC"/>
    </contour>
  </outline>
</glyph>
<glyph name="glottalstopstroke" format="1">
  <advance width="600"/>
  <unicode hex="02A1"/>
  <outline>
    <contour>
      <point x="230" y="0" type="line"/>
      <point x="329" y="0" type="line"/>
      <point x="329" y="248" type="line"/>
      <point x="524" y="248" type="line"/>
      <point x="524" y="314" type="line"/>
      <point x="377" y="314" type="line"/>
      <point x="450" y="365"/>
      <point x="514" y="429"/>
      <point x="514" y="518" type="curve" smooth="yes"/>
      <point x="514" y="653"/>
      <point x="412" y="721"/>
      <point x="286" y="721" type="curve" smooth="yes"/>
      <point x="181" y="721"/>
      <point x="111" y="674"/>
      <point x="66" y="625" type="curve"/>
      <point x="117" y="562" type="line"/>
      <point x="154" y="602"/>
      <point x="205" y="640"/>
      <point x="277" y="640" type="curve" smooth="yes"/>
      <point x="364" y="640"/>
      <point x="414" y="592"/>
      <point x="414" y="516" type="curve" smooth="yes"/>
      <point x="414" y="442"/>
      <point x="354" y="377"/>
      <point x="245" y="314" type="curve"/>
      <point x="145" y="314" type="line"/>
      <point x="69" y="309" type="line"/>
      <point x="69" y="248" type="line"/>
      <point x="230" y="248" type="line"/>
    </contour>
    <contour>
      <point x="300" y="735" type="move" name="aboveUC"/>
    </contour>
    <contour>
      <point x="279" y="-20" type="move" name="belowLC"/>
    </contour>
  </outline>
</glyph>
<glyph name="dezh" format="1">
  <advance width="600"/>
  <unicode hex="02A4"/>
  <outline>
    <contour>
      <point x="153" y="-12" type="curve" smooth="yes"/>
      <point x="197" y="-12"/>
      <point x="231" y="18"/>
      <point x="253" y="54" type="curve"/>
      <point x="256" y="54" type="line"/>
      <point x="264" y="0" type="line"/>
      <point x="331" y="0" type="line"/>
      <point x="331" y="709" type="line"/>
      <point x="245" y="709" type="line"/>
      <point x="245" y="540" type="line"/>
      <point x="250" y="447" type="line"/>
      <point x="248" y="447" type="line"/>
      <point x="227" y="480"/>
      <point x="197" y="501"/>
      <point x="160" y="501" type="curve" smooth="yes"/>
      <point x="73" y="501"/>
      <point x="-2" y="400"/>
      <point x="-2" y="243" type="curve" smooth="yes"/>
      <point x="-2" y="84"/>
      <point x="63" y="-12"/>
    </contour>
    <contour>
      <point x="174" y="70" type="curve" smooth="yes"/>
      <point x="121" y="70"/>
      <point x="92" y="135"/>
      <point x="92" y="245" type="curve" smooth="yes"/>
      <point x="92" y="350"/>
      <point x="128" y="418"/>
      <point x="179" y="418" type="curve" smooth="yes"/>
      <point x="207" y="418"/>
      <point x="226" y="400"/>
      <point x="245" y="368" type="curve"/>
      <point x="245" y="139" type="line"/>
      <point x="228" y="98"/>
      <point x="205" y="70"/>
    </contour>
    <contour>
      <point x="447" y="-212" type="curve" smooth="yes"/>
      <point x="546" y="-212"/>
      <point x="618" y="-128"/>
      <point x="618" y="7" type="curve" smooth="yes"/>
      <point x="618" y="117"/>
      <point x="562" y="203"/>
      <point x="468" y="204" type="curve"/>
      <point x="455" y="204"/>
      <point x="443" y="198"/>
      <point x="429" y="194" type="curve"/>
      <point x="445" y="167" type="line"/>
      <point x="597" y="436" type="line"/>
      <point x="597" y="489" type="line"/>
      <point x="304" y="489" type="line"/>
      <point x="304" y="409" type="line"/>
      <point x="498" y="409" type="line"/>
      <point x="361" y="176" type="line"/>
      <point x="397" y="116" type="line"/>
      <point x="414" y="125"/>
      <point x="423" y="129"/>
      <point x="442" y="129" type="curve" smooth="yes"/>
      <point x="494" y="129"/>
      <point x="524" y="86"/>
      <point x="524" y="7" type="curve" smooth="yes"/>
      <point x="524" y="-86"/>
      <point x="488" y="-131"/>
      <point x="438" y="-131" type="curve" smooth="yes"/>
      <point x="400" y="-131"/>
      <point x="374" y="-115"/>
      <point x="349" y="-91" type="curve"/>
      <point x="305" y="-154" type="line"/>
      <point x="341" y="-188"/>
      <point x="382" y="-212"/>
    </contour>
    <contour>
      <point x="280" y="730" type="move" name="aboveUC"/>
    </contour>
    <contour>
      <point x="330" y="-215" type="move" name="belowLC"/>
    </contour>
  </outline>
</glyph>
<glyph name="tesh" format="1">
  <advance width="600"/>
  <unicode hex="02A7"/>
  <outline>
    <contour>
      <point x="253" y="-12" type="curve" smooth="yes"/>
      <point x="287" y="-12"/>
      <point x="319" y="-3"/>
      <point x="346" y="6" type="curve"/>
      <point x="328" y="80" type="line"/>
      <point x="311" y="73"/>
      <point x="291" y="68"/>
      <point x="272" y="68" type="curve" smooth="yes"/>
      <point x="225" y="68"/>
      <point x="207" y="99"/>
      <point x="207" y="157" type="curve" smooth="yes"/>
      <point x="207" y="409" type="line"/>
      <point x="431" y="409" type="line"/>
      <point x="431" y="489" type="line"/>
      <point x="207" y="489" type="line"/>
      <point x="207" y="624" type="line"/>
      <point x="125" y="624" type="line"/>
      <point x="113" y="489" type="line"/>
      <point x="37" y="484" type="line"/>
      <point x="37" y="409" type="line"/>
      <point x="108" y="409" type="line"/>
      <point x="108" y="158" type="line" smooth="yes"/>
      <point x="108" y="57"/>
      <point x="146" y="-12"/>
    </contour>
    <contour>
      <point x="357" y="-212" type="curve" smooth="yes"/>
      <point x="460" y="-212"/>
      <point x="499" y="-142"/>
      <point x="499" y="-40" type="curve" smooth="yes"/>
      <point x="499" y="551" type="line" smooth="yes"/>
      <point x="499" y="610"/>
      <point x="512" y="643"/>
      <point x="563" y="643" type="curve" smooth="yes"/>
      <point x="575" y="643"/>
      <point x="587" y="639"/>
      <point x="597" y="635" type="curve"/>
      <point x="616" y="709" type="line"/>
      <point x="600" y="716"/>
      <point x="579" y="722"/>
      <point x="552" y="722" type="curve" smooth="yes"/>
      <point x="442" y="722"/>
      <point x="400" y="652"/>
      <point x="400" y="554" type="curve" smooth="yes"/>
      <point x="400" y="-41" type="line"/>
      <point x="400" y="-99"/>
      <point x="389" y="-132"/>
      <point x="347" y="-132" type="curve" smooth="yes"/>
      <point x="331" y="-132"/>
      <point x="316" y="-128"/>
      <point x="303" y="-124" type="curve"/>
      <point x="284" y="-199" type="line"/>
      <point x="301" y="-206"/>
      <point x="326" y="-212"/>
    </contour>
    <contour>
      <point x="286" y="730" type="move" name="aboveUC"/>
    </contour>
    <contour>
      <point x="331" y="-215" type="move" name="belowLC"/>
    </contour>
  </outline>
</glyph>
<glyph name="verticallinemod" format="1">
  <advance width="600"/>
  <unicode hex="02C8"/>
  <outline>
    <contour>
      <point x="268" y="392" type="line"/>
      <point x="332" y="392" type="line"/>
      <point x="358" y="722" type="line"/>
      <point x="242" y="722" type="line"/>
    </contour>
  </outline>
</glyph>
<glyph name="circumflexcmb" format="1">
  <advance width="600"/>
  <unicode hex="0302"/>
  <outline>
    <contour>
      <point x="178" y="566" type="line"/>
      <point x="298" y="674" type="line"/>
      <point x="302" y="674" type="line"/>
      <point x="422" y="566" type="line"/>
      <point x="462" y="604" type="line"/>
      <point x="350" y="741" type="line"/>
      <point x="250" y="741" type="line"/>
      <point x="138" y="604" type="line"/>
    </contour>
    <contour>
      <point x="300" y="510" type="move" name="_aboveLC"/>
    </contour>
    <contour>
      <point x="300" y="734" type="move" name="aboveLC"/>
    </contour>
  </outline>
</glyph>
<glyph name="tildecmb" format="1">
  <advance width="600"/>
  <unicode hex="0303"/>
  <outline>
    <contour>
      <point x="371" y="576" type="curve" smooth="yes"/>
      <point x="442" y="576"/>
      <point x="474" y="632"/>
      <point x="477" y="716" type="curve"/>
      <point x="413" y="720" type="line"/>
      <point x="410" y="675"/>
      <point x="397" y="647"/>
      <point x="370" y="647" type="curve" smooth="yes"/>
      <point x="327" y="647"/>
      <point x="298" y="725"/>
      <point x="230" y="725" type="curve" smooth="yes"/>
      <point x="158" y="725"/>
      <point x="126" y="670"/>
      <point x="123" y="586" type="curve"/>
      <point x="187" y="582" type="line"/>
      <point x="190" y="627"/>
      <point x="203" y="655"/>
      <point x="231" y="655" type="curve" smooth="yes"/>
      <point x="273" y="655"/>
      <point x="302" y="576"/>
    </contour>
    <contour>
      <point x="300" y="510" type="move" name="_aboveLC"/>
    </contour>
    <contour>
      <point x="300" y="617" type="move" name="aboveLC"/>
    </contour>
  </outline>
</glyph>
<glyph name="macroncmb" format="1">
  <advance width="600"/>
  <unicode hex="0304"/>
  <outline>
    <contour>
      <point x="163" y="598" type="line"/>
      <point x="437" y="598" type="line"/>
      <point x="437" y="665" type="line"/>
      <point x="163" y="665" type="line"/>
    </contour>
    <contour>
      <point x="300" y="510" type="move" name="_aboveLC"/>
    </contour>
    <contour>
      <point x="300" y="597" type="move" name="aboveLC"/>
    </contour>
  </outline>
</glyph>
<glyph name="dotaccentcmb" format="1">
  <advance width="600"/>
  <unicode hex="0307"/>
  <outline>
    <contour>
      <point x="300" y="582" type="curve" smooth="yes"/>
      <point x="342" y="582"/>
      <point x="374" y="609"/>
      <point x="374" y="652" type="curve" smooth="yes"/>
      <point x="374" y="694"/>
      <point x="342" y="723"/>
      <point x="300" y="723" type="curve" smooth="yes"/>
      <point x="258" y="723"/>
      <point x="226" y="694"/>
      <point x="226" y="652" type="curve" smooth="yes"/>
      <point x="226" y="609"/>
      <point x="258" y="582"/>
    </contour>
    <contour>
      <point x="300" y="510" type="move" name="_aboveLC"/>
    </contour>
    <contour>
      <point x="300" y="716" type="move" name="aboveLC"/>
    </contour>
  </outline>
</glyph>
<glyph name="dieresiscmb" format="1">
  <advance width="600"/>
  <unicode hex="0308"/>
  <outline>
    <contour>
      <point x="199" y="584" type="curve" smooth="yes"/>
      <point x="235" y="584"/>
      <point x="261" y="611"/>
      <point x="261" y="646" type="curve" smooth="yes"/>
      <point x="261" y="681"/>
      <point x="235" y="708"/>
      <point x="199" y="708" type="curve" smooth="yes"/>
      <point x="163" y="708"/>
      <point x="138" y="681"/>
      <point x="138" y="646" type="curve" smooth="yes"/>
      <point x="138" y="611"/>
      <point x="163" y="584"/>
    </contour>
    <contour>
      <point x="401" y="584" type="curve" smooth="yes"/>
      <point x="437" y="584"/>
      <point x="462" y="611"/>
      <point x="462" y="646" type="curve" smooth="yes"/>
      <point x="462" y="681"/>
      <point x="437" y="708"/>
      <point x="401" y="708" type="curve" smooth="yes"/>
      <point x="365" y="708"/>
      <point x="339" y="681"/>
      <point x="339" y="646" type="curve" smooth="yes"/>
      <point x="339" y="611"/>
      <point x="365" y="584"/>
    </contour>
    <contour>
      <point x="300" y="510" type="move" name="_aboveLC"/>
    </contour>
    <contour>
      <point x="300" y="599" type="move" name="aboveLC"/>
    </contour>
  </outline>
</glyph>
<glyph name="hoicmb" format="1">
  <advance width="600"/>
  <unicode hex="0309"/>
  <outline>
    <contour>
      <point x="265" y="571" type="line"/>
      <point x="328" y="580"/>
      <point x="384" y="607"/>
      <point x="384" y="668" type="curve" smooth="yes"/>
      <point x="384" y="729"/>
      <point x="333" y="766"/>
      <point x="233" y="769" type="curve"/>
      <point x="227" y="705" type="line"/>
      <point x="283" y="702"/>
      <point x="309" y="687"/>
      <point x="309" y="660" type="curve" smooth="yes"/>
      <point x="309" y="635"/>
      <point x="286" y="623"/>
      <point x="255" y="616" type="curve"/>
    </contour>
    <contour>
      <point x="300" y="510" type="move" name="_aboveLC"/>
    </contour>
    <contour>
      <point x="300" y="636" type="move" name="aboveLC"/>
    </contour>
  </outline>
</glyph>
<glyph name="candrabinducmb" format="1">
  <advance width="600"/>
  <unicode hex="0310"/>
  <outline>
    <contour>
      <point x="300" y="571" type="curve" smooth="yes"/>
      <point x="411" y="571"/>
      <point x="460" y="646"/>
      <point x="466" y="724" type="curve"/>
      <point x="411" y="734" type="line"/>
      <point x="404" y="681"/>
      <point x="366" y="631"/>
      <point x="300" y="631" type="curve" smooth="yes"/>
      <point x="233" y="631"/>
      <point x="196" y="681"/>
      <point x="189" y="734" type="curve"/>
      <point x="134" y="724" type="line"/>
      <point x="140" y="646"/>
      <point x="189" y="571"/>
    </contour>
    <contour>
      <point x="300" y="701" type="curve" smooth="yes"/>
      <point x="335" y="701"/>
      <point x="361" y="725"/>
      <point x="361" y="761" type="curve" smooth="yes"/>
      <point x="361" y="798"/>
      <point x="335" y="823"/>
      <point x="300" y="823" type="curve" smooth="yes"/>
      <point x="265" y="823"/>
      <point x="239" y="798"/>
      <point x="239" y="761" type="curve" smooth="yes"/>
      <point x="239" y="725"/>
      <point x="265" y="701"/>
    </contour>
    <contour>
      <point x="300" y="510" type="move" name="_aboveLC"/>
    </contour>
  </outline>
</glyph>
<glyph name="commaturnedabovecmb" format="1">
  <advance width="600"/>
  <unicode hex="0312"/>
  <outline>
    <contour>
      <point x="305" y="556" type="curve" smooth="yes"/>
      <point x="333" y="556"/>
      <point x="356" y="574"/>
      <point x="356" y="607" type="curve" smooth="yes"/>
      <point x="356" y="640"/>
      <point x="331" y="657"/>
      <point x="306" y="657" type="curve" smooth="yes"/>
      <point x="293" y="657"/>
      <point x="282" y="649"/>
      <point x="271" y="637" type="curve"/>
      <point x="307" y="594" type="line"/>
      <point x="306" y="603"/>
      <point x="291" y="637"/>
      <point x="291" y="647" type="curve" smooth="yes"/>
      <point x="292" y="679"/>
      <point x="312" y="702"/>
      <point x="357" y="720" type="curve"/>
      <point x="338" y="758" type="line"/>
      <point x="271" y="734"/>
      <point x="241" y="688"/>
      <point x="241" y="635" type="curve" smooth="yes"/>
      <point x="241" y="584"/>
      <point x="266" y="556"/>
    </contour>
    <contour>
      <point x="300" y="510" type="move" name="_aboveLC"/>
    </contour>
  </outline>
</glyph>
<glyph name="commabelowcmb" format="1">
  <advance width="600"/>
  <unicode hex="0326"/>
  <outline>
    <contour>
      <point x="209" y="-230" type="line"/>
      <point x="320" y="-225"/>
      <point x="382" y="-196"/>
      <point x="382" y="-135" type="curve" smooth="yes"/>
      <point x="382" y="-89"/>
      <point x="352" y="-66"/>
      <point x="259" y="-56" type="curve"/>
      <point x="239" y="-99" type="line"/>
      <point x="285" y="-103"/>
      <point x="308" y="-115"/>
      <point x="308" y="-139" type="curve" smooth="yes"/>
      <point x="308" y="-165"/>
      <point x="283" y="-179"/>
      <point x="201" y="-184" type="curve"/>
    </contour>
    <contour>
      <point x="300" y="-20" type="move" name="_belowLC"/>
    </contour>
  </outline>
</glyph>
<glyph name="cedillacmb" format="1">
	<unicode hex="0327"/>
	<advance width="600"/>
	<outline>
		<contour>
			<point x="209" y="-230" type="line"/>
			<point x="320" y="-225"/>
			<point x="382" y="-196"/>
			<point x="382" y="-135" type="curve" smooth="yes"/>
			<point x="382" y="-94"/>
			<point x="355" y="-74"/>
			<point x="309" y="-63" type="curve"/>
			<point x="335" y="9" type="line"/>
			<point x="273" y="9" type="line"/>
			<point x="231" y="-90" type="line"/>
			<point x="289" y="-98"/>
			<point x="308" y="-112"/>
			<point x="308" y="-136" type="curve" smooth="yes"/>
			<point x="308" y="-165"/>
			<point x="283" y="-179"/>
			<point x="201" y="-184" type="curve"/>
		</contour>
		<contour>
			<point name="_baseLC" x="300" y="0" type="move"/>
		</contour>
	</outline>
</glyph>
<glyph name="verticallinebelowcmb" format="1">
	<unicode hex="0329"/>
	<advance width="600"/>
	<outline>
		<contour>
			<point x="259" y="-267" type="line"/>
			<point x="341" y="-267" type="line"/>
			<point x="335" y="-69" type="line"/>
			<point x="265" y="-69" type="line"/>
		</contour>
		<contour>
			<point name="_belowLC" x="300" y="-20" type="move"/>
		</contour>
	</outline>
</glyph>
<glyph name="bridgebelowcmb" format="1">
	<unicode hex="032A"/>
	<advance width="600"/>
	<outline>
		<contour>
			<point x="175" y="-224" type="line"/>
			<point x="230" y="-224" type="line"/>
			<point x="230" y="-134" type="line"/>
			<point x="370" y="-134" type="line"/>
			<point x="370" y="-224" type="line"/>
			<point x="425" y="-224" type="line"/>
			<point x="425" y="-81" type="line"/>
			<point x="175" y="-81" type="line"/>
		</contour>
		<contour>
			<point name="_belowLC" x="300" y="-20" type="move"/>
		</contour>
	</outline>
</glyph>
<glyph name="squarebelowcmb" format="1">
  <advance width="600"/>
  <unicode hex="033B"/>
  <outline>
    <contour>
      <point x="175" y="-242" type="line"/>
      <point x="425" y="-242" type="line"/>
      <point x="425" y="-74" type="line"/>
      <point x="175" y="-74" type="line"/>
    </contour>
    <contour>
      <point x="230" y="-198" type="line"/>
      <point x="230" y="-117" type="line"/>
      <point x="370" y="-117" type="line"/>
      <point x="370" y="-198" type="line"/>
    </contour>
    <contour>
      <point x="300" y="-20" type="move" name="_belowLC"/>
    </contour>
  </outline>
</glyph>
<glyph name="iotasubscriptcmb" format="1">
	<unicode hex="0345"/>
	<advance width="600"/>
	<outline>
		<contour>
			<point x="347" y="-205" type="curve" smooth="yes"/>
			<point x="370" y="-205"/>
			<point x="383" y="-201"/>
			<point x="397" y="-196" type="curve"/>
			<point x="386" y="-139" type="line"/>
			<point x="374" y="-141"/>
			<point x="371" y="-141"/>
			<point x="365" y="-141" type="curve" smooth="yes"/>
			<point x="348" y="-141"/>
			<point x="333" y="-133"/>
			<point x="333" y="-110" type="curve" smooth="yes"/>
			<point x="333" y="-96"/>
			<point x="334" y="-76"/>
			<point x="335" y="-60" type="curve"/>
			<point x="261" y="-60" type="line"/>
			<point x="261" y="-104" type="line" smooth="yes"/>
			<point x="261" y="-168"/>
			<point x="286" y="-205"/>
		</contour>
		<contour>
			<point name="_belowLC" x="300" y="-20" type="move"/>
		</contour>
	</outline>
</glyph>
<glyph name="Alphatonos" format="1">
  <advance width="600"/>
  <unicode hex="0386"/>
  <outline>
    <contour>
      <point x="55" y="0" type="line"/>
      <point x="157" y="0" type="line"/>
      <point x="256" y="357" type="line" smooth="yes"/>
      <point x="276" y="428"/>
      <point x="291" y="488"/>
      <point x="311" y="566" type="curve"/>
      <point x="315" y="566" type="line"/>
      <point x="334" y="488"/>
      <point x="351" y="428"/>
      <point x="371" y="357" type="curve" smooth="yes"/>
      <point x="468" y="0" type="line"/>
      <point x="574" y="0" type="line"/>
      <point x="372" y="655" type="line"/>
      <point x="257" y="655" type="line"/>
    </contour>
    <contour>
      <point x="176" y="188" type="line"/>
      <point x="451" y="188" type="line"/>
      <point x="451" y="267" type="line"/>
      <point x="176" y="267" type="line"/>
    </contour>
    <component base="tonos.cap" xOffset="-205"/>
  </outline>
</glyph>
<glyph name="Iotatonos" format="1">
  <advance width="600"/>
  <unicode hex="038A"/>
  <outline>
    <contour>
      <point x="189" y="0" type="line"/>
      <point x="510" y="0" type="line"/>
      <point x="510" y="84" type="line"/>
      <point x="399" y="84" type="line"/>
      <point x="399" y="571" type="line"/>
      <point x="510" y="571" type="line"/>
      <point x="510" y="655" type="line"/>
      <point x="189" y="655" type="line"/>
      <point x="189" y="571" type="line"/>
      <point x="299" y="571" type="line"/>
      <point x="299" y="84" type="line"/>
      <point x="189" y="84" type="line"/>
    </contour>
    <component base="tonos.cap" xOffset="-215"/>
  </outline>
</glyph>
<glyph name="Omegatonos" format="1">
  <advance width="600"/>
  <unicode hex="038F"/>
  <outline>
    <contour>
      <point x="126" y="0" type="line"/>
      <point x="312" y="0" type="line"/>
      <point x="312" y="73" type="line"/>
      <point x="263" y="150"/>
      <point x="235" y="230"/>
      <point x="235" y="350" type="curve" smooth="yes"/>
      <point x="235" y="492"/>
      <point x="277" y="580"/>
      <point x="349" y="580" type="curve" smooth="yes"/>
      <point x="421" y="580"/>
      <point x="463" y="492"/>
      <point x="463" y="350" type="curve" smooth="yes"/>
      <point x="463" y="230"/>
      <point x="435" y="150"/>
      <point x="385" y="73" type="curve"/>
      <point x="385" y="0" type="line"/>
      <point x="572" y="0" type="line"/>
      <point x="572" y="81" type="line"/>
      <point x="470" y="81" type="line"/>
      <point x="470" y="85" type="line"/>
      <point x="522" y="157"/>
      <point x="558" y="246"/>
      <point x="558" y="368" type="curve" smooth="yes"/>
      <point x="558" y="542"/>
      <point x="476" y="667"/>
      <point x="349" y="667" type="curve" smooth="yes"/>
      <point x="222" y="667"/>
      <point x="140" y="542"/>
      <point x="140" y="368" type="curve" smooth="yes"/>
      <point x="140" y="246"/>
      <point x="176" y="157"/>
      <point x="227" y="85" type="curve"/>
      <point x="227" y="81" type="line"/>
      <point x="126" y="81" type="line"/>
    </contour>
    <component base="tonos.cap" xOffset="-215"/>
  </outline>
</glyph>
<glyph name="Gamma" format="1">
  <advance width="600"/>
  <unicode hex="0393"/>
  <outline>
    <contour>
      <point x="132" y="0" type="line"/>
      <point x="232" y="0" type="line"/>
      <point x="232" y="571" type="line"/>
      <point x="528" y="571" type="line"/>
      <point x="528" y="655" type="line"/>
      <point x="132" y="655" type="line"/>
    </contour>
  </outline>
</glyph>
<glyph name="Theta" format="1">
  <advance width="600"/>
  <unicode hex="0398"/>
  <outline>
    <contour>
      <point x="300" y="-12" type="curve" smooth="yes"/>
      <point x="450" y="-12"/>
      <point x="555" y="119"/>
      <point x="555" y="330" type="curve" smooth="yes"/>
      <point x="555" y="540"/>
      <point x="450" y="667"/>
      <point x="300" y="667" type="curve" smooth="yes"/>
      <point x="150" y="667"/>
      <point x="45" y="541"/>
      <point x="45" y="330" type="curve" smooth="yes"/>
      <point x="45" y="119"/>
      <point x="150" y="-12"/>
    </contour>
    <contour>
      <point x="300" y="75" type="curve" smooth="yes"/>
      <point x="209" y="75"/>
      <point x="148" y="175"/>
      <point x="148" y="330" type="curve" smooth="yes"/>
      <point x="148" y="485"/>
      <point x="209" y="580"/>
      <point x="300" y="580" type="curve" smooth="yes"/>
      <point x="391" y="580"/>
      <point x="452" y="485"/>
      <point x="452" y="330" type="curve" smooth="yes"/>
      <point x="452" y="175"/>
      <point x="391" y="75"/>
    </contour>
    <contour>
      <point x="209" y="299" type="line"/>
      <point x="391" y="299" type="line"/>
      <point x="391" y="386" type="line"/>
      <point x="209" y="386" type="line"/>
    </contour>
  </outline>
</glyph>
<glyph name="Lambda" format="1">
	<unicode hex="039B"/>
	<advance width="600"/>
	<outline>
		<contour>
			<point x="35" y="0" type="line"/>
			<point x="137" y="0" type="line"/>
			<point x="235" y="342" type="line" smooth="yes"/>
			<point x="257" y="417"/>
			<point x="272" y="481"/>
			<point x="296" y="556" type="curve"/>
			<point x="300" y="556" type="line"/>
			<point x="323" y="481"/>
			<point x="338" y="417"/>
			<point x="360" y="342" type="curve" smooth="yes"/>
			<point x="459" y="0" type="line"/>
			<point x="565" y="0" type="line"/>
			<point x="358" y="655" type="line"/>
			<point x="241" y="655" type="line"/>
		</contour>
	</outline>
</glyph>
<glyph name="Pi" format="1">
  <advance width="600"/>
  <unicode hex="03A0"/>
  <outline>
    <contour>
      <point x="75" y="0" type="line"/>
      <point x="176" y="0" type="line"/>
      <point x="176" y="571" type="line"/>
      <point x="424" y="571" type="line"/>
      <point x="424" y="0" type="line"/>
      <point x="525" y="0" type="line"/>
      <point x="525" y="655" type="line"/>
      <point x="75" y="655" type="line"/>
    </contour>
  </outline>
</glyph>
<glyph name="Rho" format="1">
	<unicode hex="03A1"/>
	<advance width="600"/>
	<outline>
		<component base="P"/>
		<contour>
			<point name="aboveUC" x="320" y="675" type="move"/>
		</contour>
	</outline>
</glyph>
<glyph name="Sigma" format="1">
  <advance width="600"/>
  <unicode hex="03A3"/>
  <outline>
    <contour>
      <point x="72" y="0" type="line"/>
      <point x="534" y="0" type="line"/>
      <point x="534" y="84" type="line"/>
      <point x="198" y="84" type="line"/>
      <point x="393" y="334" type="line"/>
      <point x="201" y="571" type="line"/>
      <point x="505" y="571" type="line"/>
      <point x="505" y="655" type="line"/>
      <point x="76" y="655" type="line"/>
      <point x="76" y="595" type="line"/>
      <point x="292" y="332" type="line"/>
      <point x="72" y="60" type="line"/>
    </contour>
  </outline>
</glyph>
<glyph name="Phi" format="1">
  <advance width="600"/>
  <unicode hex="03A6"/>
  <outline>
    <contour>
      <point x="282" y="64" type="curve"/>
      <point x="318" y="64" type="line" smooth="yes"/>
      <point x="473" y="64"/>
      <point x="577" y="163"/>
      <point x="577" y="331" type="curve" smooth="yes"/>
      <point x="577" y="497"/>
      <point x="473" y="592"/>
      <point x="318" y="592" type="curve" smooth="yes"/>
      <point x="282" y="592" type="line" smooth="yes"/>
      <point x="127" y="592"/>
      <point x="23" y="497"/>
      <point x="23" y="331" type="curve" smooth="yes"/>
      <point x="23" y="163"/>
      <point x="127" y="64"/>
    </contour>
    <contour>
      <point x="277" y="141" type="line" smooth="yes"/>
      <point x="178" y="141"/>
      <point x="116" y="216"/>
      <point x="116" y="331" type="curve" smooth="yes"/>
      <point x="116" y="444"/>
      <point x="178" y="515"/>
      <point x="277" y="515" type="curve" smooth="yes"/>
      <point x="323" y="515" type="line" smooth="yes"/>
      <point x="421" y="515"/>
      <point x="484" y="444"/>
      <point x="484" y="331" type="curve" smooth="yes"/>
      <point x="484" y="216"/>
      <point x="421" y="141"/>
      <point x="323" y="141" type="curve" smooth="yes"/>
    </contour>
    <contour>
      <point x="257" y="-22" type="line"/>
      <point x="343" y="-22" type="line"/>
      <point x="343" y="677" type="line"/>
      <point x="257" y="677" type="line"/>
    </contour>
  </outline>
</glyph>
<glyph name="Psi" format="1">
  <advance width="600"/>
  <unicode hex="03A8"/>
  <outline>
    <contour>
      <point x="279" y="236" type="curve"/>
      <point x="321" y="236" type="line" smooth="yes"/>
      <point x="470" y="236"/>
      <point x="562" y="311"/>
      <point x="562" y="473" type="curve" smooth="yes"/>
      <point x="562" y="655" type="line"/>
      <point x="467" y="655" type="line"/>
      <point x="467" y="478" type="line" smooth="yes"/>
      <point x="467" y="368"/>
      <point x="420" y="315"/>
      <point x="325" y="315" type="curve" smooth="yes"/>
      <point x="275" y="315" type="line" smooth="yes"/>
      <point x="180" y="315"/>
      <point x="133" y="368"/>
      <point x="133" y="478" type="curve" smooth="yes"/>
      <point x="133" y="655" type="line"/>
      <point x="38" y="655" type="line"/>
      <point x="38" y="473" type="line" smooth="yes"/>
      <point x="38" y="311"/>
      <point x="130" y="236"/>
    </contour>
    <contour>
      <point x="253" y="0" type="line"/>
      <point x="347" y="0" type="line"/>
      <point x="347" y="655" type="line"/>
      <point x="253" y="655" type="line"/>
    </contour>
  </outline>
</glyph>
<glyph name="Omega" format="1">
  <advance width="600"/>
  <unicode hex="03A9"/>
  <outline>
    <contour>
      <point x="36" y="0" type="line"/>
      <point x="251" y="0" type="line"/>
      <point x="251" y="73" type="line"/>
      <point x="190" y="139"/>
      <point x="148" y="217"/>
      <point x="148" y="345" type="curve" smooth="yes"/>
      <point x="148" y="480"/>
      <point x="202" y="580"/>
      <point x="300" y="580" type="curve" smooth="yes"/>
      <point x="398" y="580"/>
      <point x="452" y="480"/>
      <point x="452" y="345" type="curve" smooth="yes"/>
      <point x="452" y="217"/>
      <point x="410" y="139"/>
      <point x="349" y="73" type="curve"/>
      <point x="349" y="0" type="line"/>
      <point x="564" y="0" type="line"/>
      <point x="564" y="81" type="line"/>
      <point x="448" y="81" type="line"/>
      <point x="448" y="85" type="line"/>
      <point x="500" y="137"/>
      <point x="555" y="227"/>
      <point x="555" y="353" type="curve" smooth="yes"/>
      <point x="555" y="536"/>
      <point x="456" y="667"/>
      <point x="300" y="667" type="curve" smooth="yes"/>
      <point x="144" y="667"/>
      <point x="45" y="536"/>
      <point x="45" y="353" type="curve" smooth="yes"/>
      <point x="45" y="227"/>
      <point x="100" y="137"/>
      <point x="152" y="85" type="curve"/>
      <point x="152" y="81" type="line"/>
      <point x="36" y="81" type="line"/>
    </contour>
    <contour>
      <point x="300" y="675" type="move" name="aboveUC"/>
    </contour>
    <contour>
      <point x="300" y="-20" type="move" name="belowLC"/>
    </contour>
  </outline>
</glyph>
<glyph name="alpha" format="1">
  <advance width="600"/>
  <unicode hex="03B1"/>
  <outline>
    <contour>
      <point x="249" y="-12" type="curve" smooth="yes"/>
      <point x="313" y="-12"/>
      <point x="361" y="18"/>
      <point x="402" y="83" type="curve"/>
      <point x="405" y="83" type="line"/>
      <point x="410" y="16"/>
      <point x="449" y="-12"/>
      <point x="509" y="-12" type="curve" smooth="yes"/>
      <point x="541" y="-12"/>
      <point x="564" y="-5"/>
      <point x="579" y="2" type="curve"/>
      <point x="565" y="76" type="line"/>
      <point x="555" y="72"/>
      <point x="542" y="69"/>
      <point x="532" y="69" type="curve" smooth="yes"/>
      <point x="505" y="69"/>
      <point x="484" y="86"/>
      <point x="484" y="119" type="curve" smooth="yes"/>
      <point x="484" y="204"/>
      <point x="520" y="364"/>
      <point x="546" y="489" type="curve"/>
      <point x="448" y="489" type="line"/>
      <point x="428" y="381" type="line"/>
      <point x="425" y="381" type="line"/>
      <point x="396" y="470"/>
      <point x="332" y="501"/>
      <point x="269" y="501" type="curve" smooth="yes"/>
      <point x="157" y="501"/>
      <point x="53" y="404"/>
      <point x="53" y="237" type="curve" smooth="yes"/>
      <point x="53" y="77"/>
      <point x="132" y="-12"/>
    </contour>
    <contour>
      <point x="271" y="70" type="curve" smooth="yes"/>
      <point x="199" y="70"/>
      <point x="155" y="130"/>
      <point x="155" y="238" type="curve" smooth="yes"/>
      <point x="155" y="359"/>
      <point x="220" y="418"/>
      <point x="286" y="418" type="curve" smooth="yes"/>
      <point x="327" y="418"/>
      <point x="380" y="394"/>
      <point x="405" y="300" type="curve"/>
      <point x="398" y="210" type="line" smooth="yes"/>
      <point x="392" y="134"/>
      <point x="332" y="70"/>
    </contour>
    <contour>
      <point x="315" y="510" type="move" name="aboveLC"/>
    </contour>
    <contour>
      <point x="305" y="-20" type="move" name="belowLC"/>
    </contour>
  </outline>
</glyph>
<glyph name="beta" format="1">
  <advance width="600"/>
  <unicode hex="03B2"/>
  <outline>
    <contour>
      <point x="88" y="-178" type="line"/>
      <point x="188" y="-178" type="line"/>
      <point x="186" y="-98"/>
      <point x="184" y="-21"/>
      <point x="181" y="60" type="curve"/>
      <point x="230" y="6"/>
      <point x="292" y="-12"/>
      <point x="351" y="-12" type="curve" smooth="yes"/>
      <point x="451" y="-12"/>
      <point x="548" y="60"/>
      <point x="548" y="195" type="curve" smooth="yes"/>
      <point x="548" y="294"/>
      <point x="483" y="365"/>
      <point x="390" y="380" type="curve"/>
      <point x="390" y="384" type="line"/>
      <point x="456" y="422"/>
      <point x="490" y="475"/>
      <point x="490" y="546" type="curve" smooth="yes"/>
      <point x="490" y="665"/>
      <point x="395" y="721"/>
      <point x="294" y="721" type="curve" smooth="yes"/>
      <point x="154" y="721"/>
      <point x="88" y="622"/>
      <point x="88" y="490" type="curve" smooth="yes"/>
    </contour>
    <contour>
      <point x="325" y="70" type="curve" smooth="yes"/>
      <point x="278" y="70"/>
      <point x="226" y="85"/>
      <point x="181" y="142" type="curve"/>
      <point x="181" y="253"/>
      <point x="182" y="363"/>
      <point x="184" y="474" type="curve" smooth="yes"/>
      <point x="185" y="585"/>
      <point x="226" y="642"/>
      <point x="295" y="642" type="curve" smooth="yes"/>
      <point x="348" y="642"/>
      <point x="394" y="608"/>
      <point x="394" y="538" type="curve" smooth="yes"/>
      <point x="394" y="476"/>
      <point x="358" y="413"/>
      <point x="262" y="395" type="curve"/>
      <point x="275" y="320" type="line"/>
      <point x="291" y="324"/>
      <point x="307" y="326"/>
      <point x="323" y="326" type="curve" smooth="yes"/>
      <point x="407" y="326"/>
      <point x="449" y="271"/>
      <point x="449" y="201" type="curve" smooth="yes"/>
      <point x="449" y="118"/>
      <point x="393" y="70"/>
    </contour>
  </outline>
</glyph>
<glyph name="gamma" format="1">
  <advance width="600"/>
  <unicode hex="03B3"/>
  <outline>
    <contour>
      <point x="245" y="-178" type="curve"/>
      <point x="347" y="-178" type="line"/>
      <point x="347" y="-122"/>
      <point x="345" y="-52"/>
      <point x="336" y="7" type="curve"/>
      <point x="466" y="207"/>
      <point x="512" y="323"/>
      <point x="544" y="489" type="curve"/>
      <point x="445" y="489" type="line"/>
      <point x="430" y="357"/>
      <point x="380" y="235"/>
      <point x="313" y="115" type="curve"/>
      <point x="309" y="115" type="line"/>
      <point x="274" y="265"/>
      <point x="205" y="418"/>
      <point x="141" y="501" type="curve"/>
      <point x="41" y="477" type="line"/>
      <point x="150" y="338"/>
      <point x="250" y="93"/>
      <point x="250" y="-54" type="curve" smooth="yes"/>
      <point x="250" y="-111"/>
      <point x="249" y="-135"/>
    </contour>
  </outline>
</glyph>
<glyph name="delta" format="1">
  <advance width="600"/>
  <unicode hex="03B4"/>
  <outline>
    <contour>
      <point x="300" y="-12" type="curve" smooth="yes"/>
      <point x="450" y="-12"/>
      <point x="538" y="82"/>
      <point x="538" y="220" type="curve" smooth="yes"/>
      <point x="538" y="334"/>
      <point x="468" y="397"/>
      <point x="370" y="458" type="curve" smooth="yes"/>
      <point x="275" y="517"/>
      <point x="209" y="553"/>
      <point x="209" y="601" type="curve" smooth="yes"/>
      <point x="209" y="625"/>
      <point x="232" y="646"/>
      <point x="284" y="646" type="curve" smooth="yes"/>
      <point x="339" y="646"/>
      <point x="409" y="633"/>
      <point x="502" y="601" type="curve"/>
      <point x="525" y="678" type="line"/>
      <point x="436" y="708"/>
      <point x="357" y="721"/>
      <point x="285" y="721" type="curve" smooth="yes"/>
      <point x="167" y="721"/>
      <point x="113" y="669"/>
      <point x="113" y="609" type="curve" smooth="yes"/>
      <point x="113" y="520"/>
      <point x="198" y="467"/>
      <point x="289" y="410" type="curve" smooth="yes"/>
      <point x="369" y="360"/>
      <point x="441" y="309"/>
      <point x="441" y="220" type="curve" smooth="yes"/>
      <point x="441" y="126"/>
      <point x="392" y="69"/>
      <point x="302" y="69" type="curve" smooth="yes"/>
      <point x="226" y="69"/>
      <point x="157" y="124"/>
      <point x="157" y="213" type="curve" smooth="yes"/>
      <point x="157" y="306"/>
      <point x="222" y="367"/>
      <point x="330" y="390" type="curve"/>
      <point x="283" y="446" type="line"/>
      <point x="165" y="415"/>
      <point x="62" y="338"/>
      <point x="62" y="211" type="curve" smooth="yes"/>
      <point x="62" y="71"/>
      <point x="176" y="-12"/>
    </contour>
  </outline>
</glyph>
<glyph name="epsilon" format="1">
  <advance width="600"/>
  <unicode hex="03B5"/>
  <outline>
    <contour>
      <point x="323" y="-12" type="curve" smooth="yes"/>
      <point x="404" y="-12"/>
      <point x="465" y="3"/>
      <point x="537" y="57" type="curve"/>
      <point x="496" y="121" type="line"/>
      <point x="440" y="78"/>
      <point x="388" y="66"/>
      <point x="334" y="66" type="curve" smooth="yes"/>
      <point x="231" y="66"/>
      <point x="184" y="96"/>
      <point x="184" y="145" type="curve" smooth="yes"/>
      <point x="184" y="194"/>
      <point x="230" y="219"/>
      <point x="323" y="219" type="curve" smooth="yes"/>
      <point x="348" y="219"/>
      <point x="372" y="218"/>
      <point x="401" y="216" type="curve"/>
      <point x="401" y="290" type="line"/>
      <point x="377" y="288"/>
      <point x="358" y="287"/>
      <point x="338" y="287" type="curve" smooth="yes"/>
      <point x="248" y="287"/>
      <point x="207" y="314"/>
      <point x="207" y="354" type="curve" smooth="yes"/>
      <point x="207" y="399"/>
      <point x="251" y="423"/>
      <point x="331" y="423" type="curve" smooth="yes"/>
      <point x="386" y="423"/>
      <point x="437" y="408"/>
      <point x="485" y="374" type="curve"/>
      <point x="523" y="439" type="line"/>
      <point x="467" y="479"/>
      <point x="399" y="501"/>
      <point x="327" y="501" type="curve" smooth="yes"/>
      <point x="200" y="501"/>
      <point x="109" y="458"/>
      <point x="109" y="367" type="curve" smooth="yes"/>
      <point x="109" y="323"/>
      <point x="140" y="280"/>
      <point x="198" y="260" type="curve"/>
      <point x="198" y="256" type="line"/>
      <point x="134" y="239"/>
      <point x="86" y="205"/>
      <point x="86" y="136" type="curve" smooth="yes"/>
      <point x="86" y="42"/>
      <point x="177" y="-12"/>
    </contour>
  </outline>
</glyph>
<glyph name="zeta" format="1">
  <advance width="600"/>
  <unicode hex="03B6"/>
  <outline>
    <contour>
      <point x="469" y="-185" type="line"/>
      <point x="510" y="-127"/>
      <point x="527" y="-74"/>
      <point x="527" y="-43" type="curve" smooth="yes"/>
      <point x="527" y="26"/>
      <point x="478" y="50"/>
      <point x="369" y="70" type="curve" smooth="yes"/>
      <point x="266" y="90"/>
      <point x="210" y="123"/>
      <point x="210" y="229" type="curve" smooth="yes"/>
      <point x="210" y="364"/>
      <point x="358" y="539"/>
      <point x="519" y="630" type="curve"/>
      <point x="524" y="630" type="line"/>
      <point x="524" y="709" type="line"/>
      <point x="139" y="709" type="line"/>
      <point x="139" y="630" type="line"/>
      <point x="214" y="634"/>
      <point x="349" y="635"/>
      <point x="410" y="636" type="curve"/>
      <point x="253" y="535"/>
      <point x="108" y="375"/>
      <point x="108" y="224" type="curve" smooth="yes"/>
      <point x="108" y="63"/>
      <point x="205" y="13"/>
      <point x="311" y="-8" type="curve" smooth="yes"/>
      <point x="411" y="-29"/>
      <point x="438" y="-38"/>
      <point x="438" y="-67" type="curve" smooth="yes"/>
      <point x="438" y="-94"/>
      <point x="424" y="-113"/>
      <point x="390" y="-155" type="curve"/>
    </contour>
  </outline>
</glyph>
<glyph name="eta" format="1">
	<unicode hex="03B7"/>
	<advance width="600"/>
	<outline>
		<contour>
			<point x="418" y="-178" type="curve"/>
			<point x="518" y="-178" type="line"/>
			<point x="518" y="308" type="line" smooth="yes"/>
			<point x="518" y="432"/>
			<point x="476" y="501"/>
			<point x="370" y="501" type="curve" smooth="yes"/>
			<point x="292" y="501"/>
			<point x="238" y="466"/>
			<point x="186" y="396" type="curve"/>
			<point x="183" y="396" type="line"/>
			<point x="175" y="489" type="line"/>
			<point x="86" y="489" type="line"/>
			<point x="93" y="437"/>
			<point x="94" y="389"/>
			<point x="94" y="350" type="curve" smooth="yes"/>
			<point x="94" y="0" type="line"/>
			<point x="193" y="0" type="line"/>
			<point x="193" y="321" type="line"/>
			<point x="246" y="394"/>
			<point x="284" y="415"/>
			<point x="338" y="415" type="curve" smooth="yes"/>
			<point x="401" y="415"/>
			<point x="425" y="381"/>
			<point x="425" y="295" type="curve" smooth="yes"/>
			<point x="425" y="162"/>
			<point x="422" y="-20"/>
		</contour>
		<contour>
			<point name="aboveLC" x="325" y="510" type="move"/>
		</contour>
		<contour>
			<point name="belowLC" x="137" y="-20" type="move"/>
		</contour>
	</outline>
</glyph>
<glyph name="theta" format="1">
	<unicode hex="03B8"/>
	<advance width="600"/>
	<outline>
		<contour>
			<point x="300" y="-12" type="curve" smooth="yes"/>
			<point x="442" y="-12"/>
			<point x="532" y="104"/>
			<point x="532" y="357" type="curve" smooth="yes"/>
			<point x="532" y="597"/>
			<point x="442" y="721"/>
			<point x="300" y="721" type="curve" smooth="yes"/>
			<point x="158" y="721"/>
			<point x="68" y="597"/>
			<point x="68" y="357" type="curve" smooth="yes"/>
			<point x="68" y="104"/>
			<point x="158" y="-12"/>
		</contour>
		<contour>
			<point x="300" y="69" type="curve" smooth="yes"/>
			<point x="222" y="69"/>
			<point x="165" y="138"/>
			<point x="165" y="357" type="curve" smooth="yes"/>
			<point x="165" y="566"/>
			<point x="222" y="640"/>
			<point x="300" y="640" type="curve" smooth="yes"/>
			<point x="378" y="640"/>
			<point x="435" y="566"/>
			<point x="435" y="357" type="curve" smooth="yes"/>
			<point x="435" y="138"/>
			<point x="378" y="69"/>
		</contour>
		<contour>
			<point x="121" y="324" type="line"/>
			<point x="479" y="324" type="line"/>
			<point x="479" y="393" type="line"/>
			<point x="121" y="393" type="line"/>
		</contour>
	</outline>
</glyph>
<glyph name="iota" format="1">
  <advance width="600"/>
  <unicode hex="03B9"/>
  <outline>
    <contour>
      <point x="372" y="-12" type="curve" smooth="yes"/>
      <point x="424" y="-12"/>
      <point x="456" y="-2"/>
      <point x="483" y="10" type="curve"/>
      <point x="463" y="85" type="line"/>
      <point x="442" y="75"/>
      <point x="414" y="69"/>
      <point x="395" y="69" type="curve" smooth="yes"/>
      <point x="350" y="69"/>
      <point x="325" y="89"/>
      <point x="325" y="139" type="curve" smooth="yes"/>
      <point x="325" y="239"/>
      <point x="329" y="371"/>
      <point x="332" y="489" type="curve"/>
      <point x="232" y="489" type="line"/>
      <point x="232" y="145" type="line" smooth="yes"/>
      <point x="232" y="46"/>
      <point x="268" y="-12"/>
    </contour>
    <contour>
      <point x="276" y="510" type="move" name="aboveLC"/>
    </contour>
    <contour>
      <point x="347" y="-20" type="move" name="belowLC"/>
    </contour>
  </outline>
</glyph>
<glyph name="kappa" format="1">
  <advance width="600"/>
  <unicode hex="03BA"/>
  <outline>
    <contour>
      <point x="103" y="0" type="line"/>
      <point x="196" y="0" type="line"/>
      <point x="196" y="26" type="line" smooth="yes"/>
      <point x="196" y="92"/>
      <point x="209" y="141"/>
      <point x="240" y="180" type="curve" smooth="yes"/>
      <point x="338" y="307"/>
      <point x="441" y="381"/>
      <point x="541" y="408" type="curve"/>
      <point x="531" y="501" type="line"/>
      <point x="408" y="473"/>
      <point x="283" y="369"/>
      <point x="204" y="236" type="curve"/>
      <point x="200" y="236" type="line"/>
      <point x="200" y="373" type="line" smooth="yes"/>
      <point x="200" y="417"/>
      <point x="198" y="461"/>
      <point x="191" y="489" type="curve"/>
      <point x="93" y="489" type="line"/>
      <point x="102" y="443"/>
      <point x="103" y="389"/>
      <point x="103" y="350" type="curve" smooth="yes"/>
    </contour>
    <contour>
      <point x="467" y="-9" type="curve"/>
      <point x="579" y="0" type="line"/>
      <point x="499" y="88"/>
      <point x="401" y="214"/>
      <point x="349" y="318" type="curve"/>
      <point x="284" y="254" type="line"/>
      <point x="334" y="155"/>
      <point x="411" y="58"/>
    </contour>
  </outline>
</glyph>
<glyph name="nu" format="1">
  <advance width="600"/>
  <unicode hex="03BD"/>
  <outline>
    <contour>
      <point x="248" y="0" type="curve"/>
      <point x="344" y="0" type="line"/>
      <point x="452" y="176"/>
      <point x="518" y="318"/>
      <point x="545" y="489" type="curve"/>
      <point x="446" y="489" type="line"/>
      <point x="435" y="362"/>
      <point x="377" y="224"/>
      <point x="315" y="101" type="curve"/>
      <point x="311" y="101" type="line"/>
      <point x="285" y="236"/>
      <point x="211" y="399"/>
      <point x="141" y="501" type="curve"/>
      <point x="41" y="477" type="line"/>
      <point x="128" y="353"/>
      <point x="213" y="190"/>
    </contour>
  </outline>
</glyph>
<glyph name="xi" format="1">
  <advance width="600"/>
  <unicode hex="03BE"/>
  <outline>
    <contour>
      <point x="471" y="-185" type="line"/>
      <point x="513" y="-126"/>
      <point x="529" y="-74"/>
      <point x="529" y="-43" type="curve" smooth="yes"/>
      <point x="529" y="26"/>
      <point x="489" y="49"/>
      <point x="376" y="71" type="curve" smooth="yes"/>
      <point x="275" y="89"/>
      <point x="207" y="110"/>
      <point x="207" y="199" type="curve" smooth="yes"/>
      <point x="207" y="284"/>
      <point x="288" y="334"/>
      <point x="375" y="334" type="curve" smooth="yes"/>
      <point x="406" y="334"/>
      <point x="430" y="334"/>
      <point x="463" y="328" type="curve"/>
      <point x="463" y="411" type="line"/>
      <point x="432" y="406"/>
      <point x="413" y="406"/>
      <point x="381" y="406" type="curve" smooth="yes"/>
      <point x="315" y="406"/>
      <point x="252" y="454"/>
      <point x="252" y="518" type="curve" smooth="yes"/>
      <point x="252" y="589"/>
      <point x="310" y="630"/>
      <point x="381" y="630" type="curve" smooth="yes"/>
      <point x="524" y="630" type="line"/>
      <point x="524" y="709" type="line"/>
      <point x="83" y="709" type="line"/>
      <point x="83" y="630" type="line"/>
      <point x="144" y="634"/>
      <point x="172" y="635"/>
      <point x="222" y="635" type="curve"/>
      <point x="178" y="611"/>
      <point x="152" y="570"/>
      <point x="152" y="520" type="curve" smooth="yes"/>
      <point x="152" y="453"/>
      <point x="197" y="406"/>
      <point x="261" y="379" type="curve"/>
      <point x="261" y="375" type="line"/>
      <point x="177" y="350"/>
      <point x="105" y="278"/>
      <point x="105" y="185" type="curve" smooth="yes"/>
      <point x="105" y="58"/>
      <point x="200" y="15"/>
      <point x="313" y="-8" type="curve" smooth="yes"/>
      <point x="414" y="-28"/>
      <point x="440" y="-38"/>
      <point x="440" y="-67" type="curve" smooth="yes"/>
      <point x="440" y="-94"/>
      <point x="426" y="-113"/>
      <point x="392" y="-155" type="curve"/>
    </contour>
  </outline>
</glyph>
<glyph name="omicron" format="1">
  <advance width="600"/>
  <unicode hex="03BF"/>
  <outline>
    <contour>
      <point x="300" y="-12" type="curve" smooth="yes"/>
      <point x="431" y="-12"/>
      <point x="542" y="81"/>
      <point x="542" y="244" type="curve" smooth="yes"/>
      <point x="542" y="408"/>
      <point x="431" y="501"/>
      <point x="300" y="501" type="curve" smooth="yes"/>
      <point x="169" y="501"/>
      <point x="58" y="408"/>
      <point x="58" y="244" type="curve" smooth="yes"/>
      <point x="58" y="81"/>
      <point x="169" y="-12"/>
    </contour>
    <contour>
      <point x="300" y="69" type="curve" smooth="yes"/>
      <point x="211" y="69"/>
      <point x="160" y="138"/>
      <point x="160" y="244" type="curve" smooth="yes"/>
      <point x="160" y="350"/>
      <point x="211" y="419"/>
      <point x="300" y="419" type="curve" smooth="yes"/>
      <point x="389" y="419"/>
      <point x="440" y="350"/>
      <point x="440" y="244" type="curve" smooth="yes"/>
      <point x="440" y="138"/>
      <point x="389" y="69"/>
    </contour>
  </outline>
</glyph>
<glyph name="rho" format="1">
  <advance width="600"/>
  <unicode hex="03C1"/>
  <outline>
    <contour>
      <point x="88" y="-178" type="line"/>
      <point x="188" y="-178" type="line"/>
      <point x="186" y="-96"/>
      <point x="184" y="-31"/>
      <point x="181" y="53" type="curve"/>
      <point x="224" y="2"/>
      <point x="278" y="-12"/>
      <point x="332" y="-12" type="curve" smooth="yes"/>
      <point x="440" y="-12"/>
      <point x="544" y="85"/>
      <point x="544" y="252" type="curve" smooth="yes"/>
      <point x="544" y="407"/>
      <point x="463" y="501"/>
      <point x="318" y="501" type="curve" smooth="yes"/>
      <point x="191" y="501"/>
      <point x="88" y="419"/>
      <point x="88" y="245" type="curve" smooth="yes"/>
    </contour>
    <contour>
      <point x="312" y="70" type="curve" smooth="yes"/>
      <point x="270" y="70"/>
      <point x="225" y="79"/>
      <point x="182" y="129" type="curve"/>
      <point x="182" y="248" type="line" smooth="yes"/>
      <point x="182" y="360"/>
      <point x="242" y="418"/>
      <point x="314" y="418" type="curve" smooth="yes"/>
      <point x="403" y="418"/>
      <point x="442" y="353"/>
      <point x="442" y="251" type="curve" smooth="yes"/>
      <point x="442" y="135"/>
      <point x="383" y="70"/>
    </contour>
  </outline>
</glyph>
<glyph name="sigma" format="1">
	<unicode hex="03C3"/>
	<advance width="600"/>
	<outline>
		<contour>
			<point x="288" y="-12" type="curve" smooth="yes"/>
			<point x="416" y="-12"/>
			<point x="514" y="76"/>
			<point x="514" y="225" type="curve" smooth="yes"/>
			<point x="514" y="312"/>
			<point x="479" y="377"/>
			<point x="419" y="410" type="curve"/>
			<point x="419" y="414" type="line"/>
			<point x="474" y="413"/>
			<point x="517" y="410"/>
			<point x="573" y="405" type="curve"/>
			<point x="573" y="489" type="line"/>
			<point x="293" y="489" type="line" smooth="yes"/>
			<point x="171" y="489"/>
			<point x="56" y="410"/>
			<point x="56" y="239" type="curve" smooth="yes"/>
			<point x="56" y="77"/>
			<point x="162" y="-12"/>
		</contour>
		<contour>
			<point x="289" y="69" type="curve" smooth="yes"/>
			<point x="213" y="69"/>
			<point x="158" y="134"/>
			<point x="158" y="239" type="curve" smooth="yes"/>
			<point x="158" y="354"/>
			<point x="214" y="407"/>
			<point x="290" y="407" type="curve" smooth="yes"/>
			<point x="372" y="407"/>
			<point x="418" y="326"/>
			<point x="418" y="234" type="curve" smooth="yes"/>
			<point x="418" y="132"/>
			<point x="365" y="69"/>
		</contour>
	</outline>
</glyph>
<glyph name="tau" format="1">
  <advance width="600"/>
  <unicode hex="03C4"/>
  <outline>
    <contour>
      <point x="378" y="-12" type="curve" smooth="yes"/>
      <point x="417" y="-12"/>
      <point x="452" y="-5"/>
      <point x="477" y="5" type="curve"/>
      <point x="463" y="80" type="line"/>
      <point x="441" y="73"/>
      <point x="422" y="69"/>
      <point x="402" y="69" type="curve" smooth="yes"/>
      <point x="364" y="69"/>
      <point x="344" y="87"/>
      <point x="344" y="132" type="curve" smooth="yes"/>
      <point x="344" y="215"/>
      <point x="345" y="311"/>
      <point x="348" y="409" type="curve"/>
      <point x="538" y="409" type="line"/>
      <point x="538" y="489" type="line"/>
      <point x="133" y="489" type="line"/>
      <point x="62" y="484" type="line"/>
      <point x="62" y="409" type="line"/>
      <point x="250" y="409" type="line"/>
      <point x="250" y="138" type="line" smooth="yes"/>
      <point x="250" y="42"/>
      <point x="283" y="-12"/>
    </contour>
  </outline>
</glyph>
<glyph name="upsilon" format="1">
  <advance width="600"/>
  <unicode hex="03C5"/>
  <outline>
    <contour>
      <point x="294" y="-12" type="curve" smooth="yes"/>
      <point x="436" y="-12"/>
      <point x="530" y="87"/>
      <point x="530" y="263" type="curve" smooth="yes"/>
      <point x="530" y="343"/>
      <point x="513" y="422"/>
      <point x="487" y="501" type="curve"/>
      <point x="391" y="478" type="line"/>
      <point x="419" y="394"/>
      <point x="430" y="325"/>
      <point x="430" y="259" type="curve" smooth="yes"/>
      <point x="430" y="128"/>
      <point x="374" y="69"/>
      <point x="295" y="69" type="curve" smooth="yes"/>
      <point x="229" y="69"/>
      <point x="173" y="105"/>
      <point x="173" y="194" type="curve" smooth="yes"/>
      <point x="173" y="251"/>
      <point x="179" y="326"/>
      <point x="179" y="373" type="curve" smooth="yes"/>
      <point x="179" y="417"/>
      <point x="178" y="455"/>
      <point x="171" y="489" type="curve"/>
      <point x="75" y="489" type="line"/>
      <point x="82" y="437"/>
      <point x="83" y="389"/>
      <point x="83" y="350" type="curve" smooth="yes"/>
      <point x="83" y="301"/>
      <point x="79" y="250"/>
      <point x="79" y="201" type="curve" smooth="yes"/>
      <point x="79" y="63"/>
      <point x="156" y="-12"/>
    </contour>
    <contour>
      <point x="295" y="510" type="move" name="aboveLC"/>
    </contour>
    <contour>
      <point x="295" y="-20" type="move" name="belowLC"/>
    </contour>
  </outline>
</glyph>
<glyph name="phi" format="1">
  <advance width="600"/>
  <unicode hex="03C6"/>
  <outline>
    <contour>
      <point x="269" y="-9" type="curve"/>
      <point x="264" y="67" type="line"/>
      <point x="182" y="67"/>
      <point x="126" y="133"/>
      <point x="126" y="245" type="curve" smooth="yes"/>
      <point x="126" y="357"/>
      <point x="182" y="422"/>
      <point x="264" y="422" type="curve"/>
      <point x="269" y="498" type="line"/>
      <point x="145" y="497"/>
      <point x="39" y="408"/>
      <point x="39" y="245" type="curve" smooth="yes"/>
      <point x="39" y="82"/>
      <point x="145" y="-8"/>
    </contour>
    <contour>
      <point x="331" y="-9" type="line"/>
      <point x="455" y="-8"/>
      <point x="561" y="82"/>
      <point x="561" y="245" type="curve" smooth="yes"/>
      <point x="561" y="408"/>
      <point x="455" y="497"/>
      <point x="331" y="498" type="curve"/>
      <point x="336" y="422" type="line"/>
      <point x="419" y="422"/>
      <point x="474" y="357"/>
      <point x="474" y="245" type="curve" smooth="yes"/>
      <point x="474" y="133"/>
      <point x="419" y="67"/>
      <point x="336" y="67" type="curve"/>
    </contour>
    <contour>
      <point x="258" y="-178" type="line"/>
      <point x="342" y="-178" type="line"/>
      <point x="342" y="624" type="line"/>
      <point x="258" y="624" type="line"/>
    </contour>
  </outline>
</glyph>
<glyph name="psi" format="1">
	<unicode hex="03C8"/>
	<advance width="600"/>
	<outline>
		<contour>
			<point x="264" y="-12" type="curve"/>
			<point x="260" y="68" type="line"/>
			<point x="177" y="68"/>
			<point x="143" y="126"/>
			<point x="143" y="210" type="curve" smooth="yes"/>
			<point x="143" y="246"/>
			<point x="145" y="320"/>
			<point x="145" y="373" type="curve" smooth="yes"/>
			<point x="145" y="417"/>
			<point x="144" y="455"/>
			<point x="138" y="489" type="curve"/>
			<point x="44" y="489" type="line"/>
			<point x="51" y="437"/>
			<point x="52" y="389"/>
			<point x="52" y="351" type="curve" smooth="yes"/>
			<point x="52" y="216" type="line" smooth="yes"/>
			<point x="52" y="84"/>
			<point x="115" y="-12"/>
		</contour>
		<contour>
			<point x="331" y="-12" type="line"/>
			<point x="477" y="-12"/>
			<point x="560" y="86"/>
			<point x="560" y="259" type="curve" smooth="yes"/>
			<point x="560" y="346"/>
			<point x="547" y="419"/>
			<point x="519" y="501" type="curve"/>
			<point x="428" y="478" type="line"/>
			<point x="459" y="390"/>
			<point x="467" y="329"/>
			<point x="467" y="256" type="curve" smooth="yes"/>
			<point x="467" y="125"/>
			<point x="418" y="68"/>
			<point x="332" y="68" type="curve"/>
		</contour>
		<contour>
			<point x="256" y="-178" type="line"/>
			<point x="347" y="-178" type="line"/>
			<point x="347" y="623" type="line"/>
			<point x="256" y="623" type="line"/>
		</contour>
	</outline>
</glyph>
<glyph name="omega" format="1">
  <advance width="600"/>
  <unicode hex="03C9"/>
  <outline>
    <contour>
      <point x="192" y="-12" type="curve" smooth="yes"/>
      <point x="237" y="-12"/>
      <point x="275" y="12"/>
      <point x="297" y="68" type="curve"/>
      <point x="301" y="68" type="line"/>
      <point x="323" y="12"/>
      <point x="365" y="-12"/>
      <point x="411" y="-12" type="curve" smooth="yes"/>
      <point x="508" y="-12"/>
      <point x="568" y="73"/>
      <point x="568" y="238" type="curve" smooth="yes"/>
      <point x="568" y="349"/>
      <point x="535" y="425"/>
      <point x="485" y="501" type="curve"/>
      <point x="397" y="465" type="line"/>
      <point x="450" y="384"/>
      <point x="471" y="326"/>
      <point x="471" y="232" type="curve" smooth="yes"/>
      <point x="471" y="123"/>
      <point x="441" y="69"/>
      <point x="398" y="69" type="curve" smooth="yes"/>
      <point x="364" y="69"/>
      <point x="333" y="97"/>
      <point x="333" y="183" type="curve" smooth="yes"/>
      <point x="333" y="225"/>
      <point x="336" y="260"/>
      <point x="342" y="314" type="curve"/>
      <point x="255" y="314" type="line"/>
      <point x="261" y="260"/>
      <point x="264" y="225"/>
      <point x="264" y="183" type="curve" smooth="yes"/>
      <point x="264" y="100"/>
      <point x="233" y="69"/>
      <point x="197" y="69" type="curve" smooth="yes"/>
      <point x="154" y="69"/>
      <point x="123" y="124"/>
      <point x="123" y="217" type="curve" smooth="yes"/>
      <point x="123" y="313"/>
      <point x="152" y="381"/>
      <point x="206" y="462" type="curve"/>
      <point x="119" y="501" type="line"/>
      <point x="69" y="425"/>
      <point x="32" y="333"/>
      <point x="32" y="235" type="curve" smooth="yes"/>
      <point x="32" y="72"/>
      <point x="99" y="-12"/>
    </contour>
    <contour>
      <point x="300" y="510" type="move" name="aboveLC"/>
    </contour>
    <contour>
      <point x="300" y="-20" type="move" name="belowLC"/>
    </contour>
  </outline>
</glyph>
<glyph name="beta.a" format="1">
  <advance width="600"/>
  <unicode hex="03D0"/>
  <outline>
    <contour>
      <point x="328" y="-12" type="curve" smooth="yes"/>
      <point x="450" y="-12"/>
      <point x="548" y="62"/>
      <point x="548" y="192" type="curve" smooth="yes"/>
      <point x="548" y="293"/>
      <point x="482" y="369"/>
      <point x="384" y="380" type="curve"/>
      <point x="384" y="384" type="line"/>
      <point x="451" y="418"/>
      <point x="490" y="475"/>
      <point x="490" y="546" type="curve" smooth="yes"/>
      <point x="490" y="665"/>
      <point x="395" y="720"/>
      <point x="297" y="720" type="curve" smooth="yes"/>
      <point x="154" y="720"/>
      <point x="88" y="622"/>
      <point x="88" y="490" type="curve" smooth="yes"/>
      <point x="88" y="228" type="line" smooth="yes"/>
      <point x="88" y="51"/>
      <point x="216" y="-12"/>
    </contour>
    <contour>
      <point x="325" y="74" type="curve" smooth="yes"/>
      <point x="270" y="74"/>
      <point x="181" y="108"/>
      <point x="181" y="241" type="curve" smooth="yes"/>
      <point x="181" y="315"/>
      <point x="182" y="375"/>
      <point x="184" y="474" type="curve" smooth="yes"/>
      <point x="186" y="583"/>
      <point x="224" y="642"/>
      <point x="297" y="642" type="curve" smooth="yes"/>
      <point x="348" y="642"/>
      <point x="394" y="608"/>
      <point x="394" y="538" type="curve" smooth="yes"/>
      <point x="394" y="450"/>
      <point x="336" y="396"/>
      <point x="145" y="366" type="curve"/>
      <point x="159" y="293" type="line"/>
      <point x="251" y="319"/>
      <point x="302" y="326"/>
      <point x="323" y="326" type="curve" smooth="yes"/>
      <point x="409" y="326"/>
      <point x="449" y="270"/>
      <point x="449" y="198" type="curve" smooth="yes"/>
      <point x="449" y="124"/>
      <point x="397" y="74"/>
    </contour>
  </outline>
</glyph>
<glyph name="phi.a" format="1">
  <advance width="600"/>
  <unicode hex="03D5"/>
  <outline>
    <contour>
      <point x="254" y="-178" type="line"/>
      <point x="352" y="-178" type="line"/>
      <point x="347" y="-23"/>
      <point x="345" y="138"/>
      <point x="345" y="294" type="curve" smooth="yes"/>
      <point x="345" y="384"/>
      <point x="368" y="418"/>
      <point x="404" y="418" type="curve" smooth="yes"/>
      <point x="449" y="418"/>
      <point x="473" y="357"/>
      <point x="473" y="251" type="curve" smooth="yes"/>
      <point x="473" y="132"/>
      <point x="414" y="67"/>
      <point x="331" y="66" type="curve"/>
      <point x="332" y="-9" type="line"/>
      <point x="454" y="-9"/>
      <point x="567" y="87"/>
      <point x="567" y="257" type="curve" smooth="yes"/>
      <point x="567" y="409"/>
      <point x="508" y="501"/>
      <point x="408" y="501" type="curve" smooth="yes"/>
      <point x="319" y="501"/>
      <point x="254" y="438"/>
      <point x="254" y="286" type="curve" smooth="yes"/>
    </contour>
    <contour>
      <point x="270" y="-9" type="curve"/>
      <point x="274" y="66" type="line"/>
      <point x="186" y="66"/>
      <point x="127" y="128"/>
      <point x="127" y="237" type="curve" smooth="yes"/>
      <point x="127" y="322"/>
      <point x="157" y="381"/>
      <point x="212" y="448" type="curve"/>
      <point x="140" y="506" type="line"/>
      <point x="79" y="434"/>
      <point x="33" y="344"/>
      <point x="33" y="247" type="curve" smooth="yes"/>
      <point x="33" y="76"/>
      <point x="147" y="-9"/>
    </contour>
  </outline>
</glyph>
<glyph name="stigma" format="1">
  <advance width="600"/>
  <unicode hex="03DB"/>
  <outline>
    <contour>
      <point x="443" y="-182" type="line"/>
      <point x="485" y="-124"/>
      <point x="505" y="-67"/>
      <point x="505" y="-33" type="curve" smooth="yes"/>
      <point x="505" y="39"/>
      <point x="473" y="67"/>
      <point x="356" y="93" type="curve" smooth="yes"/>
      <point x="253" y="115"/>
      <point x="188" y="152"/>
      <point x="188" y="245" type="curve" smooth="yes"/>
      <point x="188" y="355"/>
      <point x="258" y="407"/>
      <point x="363" y="407" type="curve" smooth="yes"/>
      <point x="417" y="407"/>
      <point x="473" y="407"/>
      <point x="517" y="405" type="curve"/>
      <point x="517" y="489" type="line"/>
      <point x="356" y="489" type="line" smooth="yes"/>
      <point x="204" y="489"/>
      <point x="87" y="411"/>
      <point x="87" y="245" type="curve" smooth="yes"/>
      <point x="87" y="98"/>
      <point x="196" y="39"/>
      <point x="312" y="12" type="curve" smooth="yes"/>
      <point x="406" y="-9"/>
      <point x="417" y="-27"/>
      <point x="417" y="-58" type="curve" smooth="yes"/>
      <point x="417" y="-83"/>
      <point x="400" y="-110"/>
      <point x="366" y="-152" type="curve"/>
    </contour>
  </outline>
</glyph>
<glyph name="Tshe" format="1">
  <advance width="600"/>
  <unicode hex="040B"/>
  <outline>
    <contour>
      <point x="169" y="0" type="line"/>
      <point x="269" y="0" type="line"/>
      <point x="269" y="312" type="line"/>
      <point x="291" y="317"/>
      <point x="322" y="321"/>
      <point x="349" y="321" type="curve" smooth="yes"/>
      <point x="429" y="321"/>
      <point x="469" y="290"/>
      <point x="469" y="212" type="curve" smooth="yes"/>
      <point x="469" y="0" type="line"/>
      <point x="567" y="0" type="line"/>
      <point x="567" y="212" type="line" smooth="yes"/>
      <point x="567" y="347"/>
      <point x="490" y="403"/>
      <point x="364" y="403" type="curve" smooth="yes"/>
      <point x="332" y="403"/>
      <point x="298" y="398"/>
      <point x="269" y="394" type="curve"/>
      <point x="269" y="655" type="line"/>
      <point x="169" y="655" type="line"/>
    </contour>
    <contour>
      <point x="9" y="571" type="line"/>
      <point x="466" y="571" type="line"/>
      <point x="466" y="655" type="line"/>
      <point x="9" y="655" type="line"/>
    </contour>
  </outline>
</glyph>
<glyph name="Be" format="1">
  <advance width="600"/>
  <unicode hex="0411"/>
  <outline>
    <contour>
      <point x="93" y="0" type="line"/>
      <point x="312" y="0" type="line" smooth="yes"/>
      <point x="454" y="0"/>
      <point x="551" y="61"/>
      <point x="551" y="201" type="curve" smooth="yes"/>
      <point x="551" y="335"/>
      <point x="447" y="384"/>
      <point x="308" y="384" type="curve" smooth="yes"/>
      <point x="193" y="384" type="line"/>
      <point x="193" y="571" type="line"/>
      <point x="507" y="571" type="line"/>
      <point x="507" y="655" type="line"/>
      <point x="93" y="655" type="line"/>
    </contour>
    <contour>
      <point x="193" y="79" type="line"/>
      <point x="193" y="309" type="line"/>
      <point x="296" y="309" type="line" smooth="yes"/>
      <point x="399" y="309"/>
      <point x="452" y="277"/>
      <point x="452" y="199" type="curve" smooth="yes"/>
      <point x="452" y="116"/>
      <point x="401" y="79"/>
      <point x="298" y="79" type="curve" smooth="yes"/>
    </contour>
  </outline>
</glyph>
<glyph name="Ze" format="1">
  <advance width="600"/>
  <unicode hex="0417"/>
  <outline>
    <contour>
      <point x="299" y="-12" type="curve" smooth="yes"/>
      <point x="436" y="-12"/>
      <point x="544" y="60"/>
      <point x="544" y="188" type="curve" smooth="yes"/>
      <point x="544" y="274"/>
      <point x="490" y="331"/>
      <point x="417" y="347" type="curve"/>
      <point x="417" y="351" type="line"/>
      <point x="478" y="374"/>
      <point x="511" y="430"/>
      <point x="511" y="497" type="curve" smooth="yes"/>
      <point x="511" y="603"/>
      <point x="426" y="667"/>
      <point x="293" y="667" type="curve" smooth="yes"/>
      <point x="211" y="667"/>
      <point x="136" y="635"/>
      <point x="85" y="586" type="curve"/>
      <point x="137" y="520" type="line"/>
      <point x="180" y="557"/>
      <point x="230" y="580"/>
      <point x="290" y="580" type="curve" smooth="yes"/>
      <point x="361" y="580"/>
      <point x="413" y="548"/>
      <point x="413" y="483" type="curve" smooth="yes"/>
      <point x="413" y="417"/>
      <point x="369" y="381"/>
      <point x="260" y="381" type="curve" smooth="yes"/>
      <point x="203" y="381" type="line"/>
      <point x="203" y="305" type="line"/>
      <point x="280" y="305" type="line" smooth="yes"/>
      <point x="387" y="305"/>
      <point x="446" y="270"/>
      <point x="446" y="194" type="curve" smooth="yes"/>
      <point x="446" y="117"/>
      <point x="381" y="75"/>
      <point x="298" y="75" type="curve" smooth="yes"/>
      <point x="225" y="75"/>
      <point x="170" y="97"/>
      <point x="113" y="153" type="curve"/>
      <point x="58" y="84" type="line"/>
      <point x="126" y="16"/>
      <point x="205" y="-12"/>
    </contour>
    <contour>
      <point x="315" y="675" type="move" name="aboveUC"/>
    </contour>
  </outline>
</glyph>
<glyph name="Ucyr" format="1">
	<unicode hex="0423"/>
	<advance width="600"/>
	<outline>
		<contour>
			<point x="178" y="-12" type="curve" smooth="yes"/>
			<point x="266" y="-12"/>
			<point x="317" y="41"/>
			<point x="351" y="127" type="curve" smooth="yes"/>
			<point x="563" y="655" type="line"/>
			<point x="462" y="655" type="line"/>
			<point x="360" y="390" type="line"/>
			<point x="312" y="253" type="line"/>
			<point x="308" y="253" type="line"/>
			<point x="258" y="390" type="line"/>
			<point x="147" y="655" type="line"/>
			<point x="41" y="655" type="line"/>
			<point x="264" y="158" type="line"/>
			<point x="251" y="128" type="line" smooth="yes"/>
			<point x="235" y="95"/>
			<point x="211" y="80"/>
			<point x="173" y="80" type="curve" smooth="yes"/>
			<point x="151" y="80"/>
			<point x="140" y="83"/>
			<point x="129" y="87" type="curve"/>
			<point x="109" y="-1" type="line"/>
			<point x="127" y="-8"/>
			<point x="147" y="-12"/>
		</contour>
		<contour>
			<point name="aboveUC" x="305" y="675" type="move"/>
		</contour>
	</outline>
</glyph>
<glyph name="Tse" format="1">
  <advance width="600"/>
  <unicode hex="0426"/>
  <outline>
    <contour>
      <point x="75" y="0" type="line"/>
      <point x="522" y="0" type="line"/>
      <point x="522" y="655" type="line"/>
      <point x="422" y="655" type="line"/>
      <point x="422" y="84" type="line"/>
      <point x="175" y="84" type="line"/>
      <point x="175" y="655" type="line"/>
      <point x="75" y="655" type="line"/>
    </contour>
    <contour>
      <point x="501" y="-188" type="line"/>
      <point x="584" y="-188" type="line"/>
      <point x="593" y="24" type="line"/>
      <point x="593" y="84" type="line"/>
      <point x="466" y="84" type="line"/>
      <point x="466" y="0" type="line"/>
      <point x="501" y="0" type="line"/>
    </contour>
  </outline>
</glyph>
<glyph name="Hard" format="1">
  <advance width="600"/>
  <unicode hex="042A"/>
  <outline>
    <contour>
      <point x="192" y="0" type="line"/>
      <point x="346" y="0" type="line" smooth="yes"/>
      <point x="481" y="0"/>
      <point x="572" y="60"/>
      <point x="572" y="205" type="curve" smooth="yes"/>
      <point x="572" y="337"/>
      <point x="471" y="394"/>
      <point x="340" y="394" type="curve" smooth="yes"/>
      <point x="292" y="394" type="line"/>
      <point x="292" y="655" type="line"/>
      <point x="21" y="655" type="line"/>
      <point x="21" y="571" type="line"/>
      <point x="192" y="571" type="line"/>
    </contour>
    <contour>
      <point x="292" y="80" type="line"/>
      <point x="292" y="314" type="line"/>
      <point x="330" y="314" type="line" smooth="yes"/>
      <point x="426" y="314"/>
      <point x="477" y="277"/>
      <point x="477" y="203" type="curve" smooth="yes"/>
      <point x="477" y="117"/>
      <point x="429" y="80"/>
      <point x="336" y="80" type="curve" smooth="yes"/>
    </contour>
  </outline>
</glyph>
<glyph name="Soft" format="1">
  <advance width="600"/>
  <unicode hex="042C"/>
  <outline>
    <contour>
      <point x="92" y="0" type="line"/>
      <point x="304" y="0" type="line" smooth="yes"/>
      <point x="450" y="0"/>
      <point x="549" y="60"/>
      <point x="549" y="205" type="curve" smooth="yes"/>
      <point x="549" y="339"/>
      <point x="449" y="394"/>
      <point x="304" y="394" type="curve" smooth="yes"/>
      <point x="192" y="394" type="line"/>
      <point x="192" y="655" type="line"/>
      <point x="92" y="655" type="line"/>
    </contour>
    <contour>
      <point x="192" y="80" type="line"/>
      <point x="192" y="314" type="line"/>
      <point x="292" y="314" type="line" smooth="yes"/>
      <point x="398" y="314"/>
      <point x="451" y="279"/>
      <point x="451" y="203" type="curve" smooth="yes"/>
      <point x="451" y="117"/>
      <point x="396" y="80"/>
      <point x="294" y="80" type="curve" smooth="yes"/>
    </contour>
  </outline>
</glyph>
<glyph name="Ya" format="1">
	<unicode hex="042F"/>
	<advance width="600"/>
	<outline>
		<contour>
			<point x="409" y="0" type="line"/>
			<point x="509" y="0" type="line"/>
			<point x="509" y="655" type="line"/>
			<point x="295" y="655" type="line" smooth="yes"/>
			<point x="161" y="655"/>
			<point x="60" y="607"/>
			<point x="60" y="466" type="curve" smooth="yes"/>
			<point x="60" y="330"/>
			<point x="161" y="269"/>
			<point x="285" y="266" type="curve" smooth="yes"/>
			<point x="409" y="266" type="line"/>
		</contour>
		<contour>
			<point x="307" y="347" type="line" smooth="yes"/>
			<point x="212" y="347"/>
			<point x="159" y="386"/>
			<point x="159" y="466" type="curve" smooth="yes"/>
			<point x="159" y="546"/>
			<point x="212" y="575"/>
			<point x="307" y="575" type="curve" smooth="yes"/>
			<point x="409" y="575" type="line"/>
			<point x="409" y="347" type="line"/>
		</contour>
		<contour>
			<point x="23" y="0" type="line"/>
			<point x="138" y="0" type="line"/>
			<point x="316" y="293" type="line"/>
			<point x="242" y="340" type="line"/>
		</contour>
		<contour>
			<point name="aboveUC" x="315" y="675" type="move"/>
		</contour>
	</outline>
</glyph>
<glyph name="zhe" format="1">
  <advance width="600"/>
  <unicode hex="0436"/>
  <outline>
    <contour>
      <point x="5" y="0" type="line"/>
      <point x="104" y="0" type="line"/>
      <point x="198" y="216" type="line"/>
      <point x="256" y="216" type="line"/>
      <point x="256" y="0" type="line"/>
      <point x="344" y="0" type="line"/>
      <point x="344" y="216" type="line"/>
      <point x="402" y="216" type="line"/>
      <point x="496" y="0" type="line"/>
      <point x="595" y="0" type="line"/>
      <point x="456" y="289" type="line"/>
      <point x="344" y="289" type="line"/>
      <point x="344" y="489" type="line"/>
      <point x="256" y="489" type="line"/>
      <point x="256" y="289" type="line"/>
      <point x="144" y="289" type="line"/>
    </contour>
    <contour>
      <point x="140" y="241" type="line"/>
      <point x="220" y="253" type="line"/>
      <point x="167" y="399" type="line" smooth="yes"/>
      <point x="137" y="479"/>
      <point x="97" y="501"/>
      <point x="43" y="501" type="curve" smooth="yes"/>
      <point x="30" y="501"/>
      <point x="19" y="500"/>
      <point x="11" y="495" type="curve"/>
      <point x="25" y="403" type="line"/>
      <point x="31" y="405"/>
      <point x="35" y="405"/>
      <point x="43" y="405" type="curve" smooth="yes"/>
      <point x="64" y="405"/>
      <point x="84" y="396"/>
      <point x="101" y="348" type="curve" smooth="yes"/>
    </contour>
    <contour>
      <point x="460" y="241" type="line"/>
      <point x="499" y="348" type="line" smooth="yes"/>
      <point x="516" y="396"/>
      <point x="536" y="405"/>
      <point x="557" y="405" type="curve" smooth="yes"/>
      <point x="565" y="405"/>
      <point x="569" y="405"/>
      <point x="575" y="403" type="curve"/>
      <point x="589" y="495" type="line"/>
      <point x="581" y="499"/>
      <point x="570" y="501"/>
      <point x="557" y="501" type="curve" smooth="yes"/>
      <point x="503" y="501"/>
      <point x="463" y="479"/>
      <point x="433" y="399" type="curve" smooth="yes"/>
      <point x="380" y="253" type="line"/>
    </contour>
    <contour>
      <point x="300" y="509" type="move" name="aboveLC"/>
    </contour>
  </outline>
</glyph>
<glyph name="ze" format="1">
	<unicode hex="0437"/>
	<advance width="600"/>
	<outline>
		<contour>
			<point x="280" y="-12" type="curve" smooth="yes"/>
			<point x="421" y="-12"/>
			<point x="520" y="41"/>
			<point x="520" y="136" type="curve" smooth="yes"/>
			<point x="520" y="205"/>
			<point x="478" y="239"/>
			<point x="410" y="256" type="curve"/>
			<point x="410" y="260" type="line"/>
			<point x="470" y="281"/>
			<point x="497" y="321"/>
			<point x="497" y="367" type="curve" smooth="yes"/>
			<point x="497" y="458"/>
			<point x="407" y="501"/>
			<point x="278" y="501" type="curve" smooth="yes"/>
			<point x="195" y="501"/>
			<point x="128" y="478"/>
			<point x="70" y="436" type="curve"/>
			<point x="109" y="371" type="line"/>
			<point x="160" y="407"/>
			<point x="205" y="423"/>
			<point x="272" y="423" type="curve" smooth="yes"/>
			<point x="359" y="423"/>
			<point x="401" y="401"/>
			<point x="401" y="357" type="curve" smooth="yes"/>
			<point x="401" y="313"/>
			<point x="359" y="289"/>
			<point x="276" y="289" type="curve" smooth="yes"/>
			<point x="194" y="289" type="line"/>
			<point x="194" y="216" type="line"/>
			<point x="287" y="216" type="line" smooth="yes"/>
			<point x="375" y="216"/>
			<point x="422" y="195"/>
			<point x="422" y="145" type="curve" smooth="yes"/>
			<point x="422" y="94"/>
			<point x="370" y="66"/>
			<point x="271" y="66" type="curve" smooth="yes"/>
			<point x="214" y="66"/>
			<point x="156" y="81"/>
			<point x="100" y="125" type="curve"/>
			<point x="58" y="61" type="line"/>
			<point x="130" y="5"/>
			<point x="200" y="-12"/>
		</contour>
		<contour>
			<point name="aboveLC" x="305" y="509" type="move"/>
		</contour>
	</outline>
</glyph>
<glyph name="ucyr" format="1">
	<unicode hex="0443"/>
	<advance width="600"/>
	<outline>
		<component base="y"/>
		<contour>
			<point name="aboveLC" x="305" y="510" type="move"/>
		</contour>
	</outline>
</glyph>
<glyph name="che" format="1">
  <advance width="600"/>
  <unicode hex="0447"/>
  <outline>
    <contour>
      <point x="399" y="0" type="line"/>
      <point x="498" y="0" type="line"/>
      <point x="498" y="489" type="line"/>
      <point x="399" y="489" type="line"/>
      <point x="399" y="268" type="line"/>
      <point x="368" y="261"/>
      <point x="345" y="257"/>
      <point x="312" y="257" type="curve" smooth="yes"/>
      <point x="220" y="257"/>
      <point x="181" y="288"/>
      <point x="181" y="364" type="curve" smooth="yes"/>
      <point x="181" y="489" type="line"/>
      <point x="82" y="489" type="line"/>
      <point x="82" y="364" type="line" smooth="yes"/>
      <point x="82" y="229"/>
      <point x="161" y="178"/>
      <point x="292" y="178" type="curve" smooth="yes"/>
      <point x="341" y="178"/>
      <point x="361" y="181"/>
      <point x="399" y="189" type="curve"/>
    </contour>
    <contour>
      <point x="305" y="510" type="move" name="aboveLC"/>
    </contour>
  </outline>
</glyph>
<glyph name="hard" format="1">
  <advance width="600"/>
  <unicode hex="044A"/>
  <outline>
    <contour>
      <point x="192" y="0" type="line"/>
      <point x="356" y="0" type="line" smooth="yes"/>
      <point x="473" y="0"/>
      <point x="554" y="46"/>
      <point x="554" y="159" type="curve" smooth="yes"/>
      <point x="554" y="270"/>
      <point x="473" y="315"/>
      <point x="356" y="315" type="curve" smooth="yes"/>
      <point x="291" y="315" type="line"/>
      <point x="291" y="489" type="line"/>
      <point x="34" y="489" type="line"/>
      <point x="34" y="409" type="line"/>
      <point x="192" y="409" type="line"/>
    </contour>
    <contour>
      <point x="291" y="78" type="line"/>
      <point x="291" y="239" type="line"/>
      <point x="348" y="239" type="line" smooth="yes"/>
      <point x="422" y="239"/>
      <point x="458" y="215"/>
      <point x="458" y="159" type="curve" smooth="yes"/>
      <point x="458" y="103"/>
      <point x="422" y="78"/>
      <point x="348" y="78" type="curve" smooth="yes"/>
    </contour>
    <contour>
      <point x="240" y="510" type="move" name="aboveLC"/>
    </contour>
  </outline>
</glyph>
<glyph name="ecyr" format="1">
  <advance width="600"/>
  <unicode hex="044D"/>
  <outline>
    <contour>
      <point x="255" y="-12" type="curve" smooth="yes"/>
      <point x="409" y="-12"/>
      <point x="524" y="73"/>
      <point x="524" y="244" type="curve" smooth="yes"/>
      <point x="524" y="418"/>
      <point x="404" y="501"/>
      <point x="258" y="501" type="curve" smooth="yes"/>
      <point x="173" y="501"/>
      <point x="110" y="471"/>
      <point x="68" y="433" type="curve"/>
      <point x="114" y="375" type="line"/>
      <point x="149" y="404"/>
      <point x="193" y="423"/>
      <point x="252" y="423" type="curve" smooth="yes"/>
      <point x="358" y="423"/>
      <point x="429" y="366"/>
      <point x="429" y="244" type="curve" smooth="yes"/>
      <point x="429" y="122"/>
      <point x="357" y="66"/>
      <point x="245" y="66" type="curve" smooth="yes"/>
      <point x="187" y="66"/>
      <point x="135" y="86"/>
      <point x="99" y="118" type="curve"/>
      <point x="59" y="58" type="line"/>
      <point x="109" y="12"/>
      <point x="181" y="-12"/>
    </contour>
    <contour>
      <point x="188" y="219" type="line"/>
      <point x="480" y="219" type="line"/>
      <point x="480" y="287" type="line"/>
      <point x="188" y="287" type="line"/>
    </contour>
    <contour>
      <point x="295" y="510" type="move" name="aboveLC"/>
    </contour>
  </outline>
</glyph>
<glyph name="dje" format="1">
  <advance width="600"/>
  <unicode hex="0452"/>
  <outline>
    <contour>
      <point x="330" y="-212" type="curve" smooth="yes"/>
      <point x="460" y="-212"/>
      <point x="541" y="-124"/>
      <point x="541" y="173" type="curve" smooth="yes"/>
      <point x="541" y="374"/>
      <point x="473" y="481"/>
      <point x="348" y="481" type="curve" smooth="yes"/>
      <point x="280" y="481"/>
      <point x="228" y="441"/>
      <point x="184" y="392" type="curve"/>
      <point x="180" y="392" type="line"/>
      <point x="186" y="501" type="line"/>
      <point x="186" y="709" type="line"/>
      <point x="88" y="709" type="line"/>
      <point x="88" y="0" type="line"/>
      <point x="186" y="0" type="line"/>
      <point x="186" y="317" type="line"/>
      <point x="236" y="369"/>
      <point x="270" y="396"/>
      <point x="315" y="396" type="curve" smooth="yes"/>
      <point x="397" y="396"/>
      <point x="439" y="332"/>
      <point x="439" y="162" type="curve" smooth="yes"/>
      <point x="439" y="-72"/>
      <point x="388" y="-132"/>
      <point x="322" y="-132" type="curve" smooth="yes"/>
      <point x="308" y="-132"/>
      <point x="294" y="-128"/>
      <point x="283" y="-124" type="curve"/>
      <point x="264" y="-198" type="line"/>
      <point x="279" y="-206"/>
      <point x="302" y="-212"/>
    </contour>
    <contour>
      <point x="16" y="561" type="line"/>
      <point x="391" y="561" type="line"/>
      <point x="391" y="627" type="line"/>
      <point x="94" y="627" type="line"/>
      <point x="16" y="622" type="line"/>
    </contour>
  </outline>
</glyph>
<glyph name="ieukran" format="1">
  <advance width="600"/>
  <unicode hex="0454"/>
  <outline>
    <contour>
      <point x="346" y="-12" type="curve" smooth="yes"/>
      <point x="416" y="-12"/>
      <point x="487" y="11"/>
      <point x="540" y="58" type="curve"/>
      <point x="502" y="120" type="line"/>
      <point x="465" y="89"/>
      <point x="413" y="66"/>
      <point x="356" y="66" type="curve" smooth="yes"/>
      <point x="243" y="66"/>
      <point x="171" y="124"/>
      <point x="171" y="244" type="curve" smooth="yes"/>
      <point x="171" y="363"/>
      <point x="246" y="423"/>
      <point x="353" y="423" type="curve" smooth="yes"/>
      <point x="406" y="423"/>
      <point x="450" y="405"/>
      <point x="487" y="374" type="curve"/>
      <point x="532" y="435" type="line"/>
      <point x="490" y="474"/>
      <point x="432" y="501"/>
      <point x="353" y="501" type="curve" smooth="yes"/>
      <point x="203" y="501"/>
      <point x="77" y="416"/>
      <point x="77" y="244" type="curve" smooth="yes"/>
      <point x="77" y="73"/>
      <point x="191" y="-12"/>
    </contour>
    <contour>
      <point x="135" y="219" type="line"/>
      <point x="422" y="219" type="line"/>
      <point x="422" y="287" type="line"/>
      <point x="135" y="287" type="line"/>
    </contour>
  </outline>
</glyph>
<glyph name="Fita" format="1">
  <advance width="600"/>
  <unicode hex="0472"/>
  <outline>
    <contour>
      <point x="300" y="-12" type="curve" smooth="yes"/>
      <point x="450" y="-12"/>
      <point x="555" y="111"/>
      <point x="555" y="330" type="curve" smooth="yes"/>
      <point x="555" y="548"/>
      <point x="450" y="667"/>
      <point x="300" y="667" type="curve" smooth="yes"/>
      <point x="150" y="667"/>
      <point x="45" y="549"/>
      <point x="45" y="330" type="curve" smooth="yes"/>
      <point x="45" y="111"/>
      <point x="150" y="-12"/>
    </contour>
    <contour>
      <point x="300" y="71" type="curve" smooth="yes"/>
      <point x="205" y="71"/>
      <point x="144" y="163"/>
      <point x="144" y="333" type="curve" smooth="yes"/>
      <point x="144" y="495"/>
      <point x="205" y="584"/>
      <point x="300" y="584" type="curve" smooth="yes"/>
      <point x="395" y="584"/>
      <point x="456" y="495"/>
      <point x="456" y="333" type="curve" smooth="yes"/>
      <point x="456" y="163"/>
      <point x="395" y="71"/>
    </contour>
    <contour>
      <point x="114" y="302" type="line"/>
      <point x="494" y="302" type="line"/>
      <point x="494" y="383" type="line"/>
      <point x="114" y="383" type="line"/>
    </contour>
    <contour>
      <point x="300" y="675" type="move" name="aboveUC"/>
    </contour>
  </outline>
</glyph>
<glyph name="Gheup" format="1">
  <advance width="600"/>
  <unicode hex="0490"/>
  <outline>
    <contour>
      <point x="132" y="0" type="line"/>
      <point x="232" y="0" type="line"/>
      <point x="232" y="571" type="line"/>
      <point x="521" y="571" type="line"/>
      <point x="511" y="655" type="line"/>
      <point x="132" y="655" type="line"/>
    </contour>
    <contour>
      <point x="397" y="571" type="line"/>
      <point x="521" y="571" type="line"/>
      <point x="531" y="827" type="line"/>
      <point x="445" y="827" type="line"/>
      <point x="429" y="655" type="line"/>
      <point x="397" y="655" type="line"/>
    </contour>
  </outline>
</glyph>
<glyph name="endescender" format="1">
	<unicode hex="04A3"/>
	<advance width="600"/>
	<outline>
		<contour>
			<point x="88" y="0" type="line"/>
			<point x="187" y="0" type="line"/>
			<point x="187" y="209" type="line"/>
			<point x="401" y="209" type="line"/>
			<point x="401" y="0" type="line"/>
			<point x="500" y="0" type="line"/>
			<point x="500" y="489" type="line"/>
			<point x="401" y="489" type="line"/>
			<point x="401" y="296" type="line"/>
			<point x="187" y="296" type="line"/>
			<point x="187" y="489" type="line"/>
			<point x="88" y="489" type="line"/>
		</contour>
		<contour>
			<point x="477" y="-172" type="line"/>
			<point x="563" y="-172" type="line"/>
			<point x="572" y="16" type="line"/>
			<point x="572" y="80" type="line"/>
			<point x="441" y="80" type="line"/>
			<point x="441" y="0" type="line"/>
			<point x="477" y="0" type="line"/>
		</contour>
	</outline>
</glyph>
<glyph name="esdescender" format="1">
  <advance width="600"/>
  <unicode hex="04AB"/>
  <outline>
    <contour>
      <point x="296" y="-172" type="line"/>
      <point x="380" y="-172" type="line"/>
      <point x="391" y="10" type="line"/>
      <point x="292" y="10" type="line"/>
    </contour>
    <component base="es"/>
  </outline>
</glyph>
<glyph name="Ustraight" format="1">
	<unicode hex="04AE"/>
	<advance width="600"/>
	<outline>
		<component base="Y"/>
		<contour>
			<point name="aboveUC" x="300" y="675" type="move"/>
		</contour>
	</outline>
</glyph>
<glyph name="ustraightstroke" format="1">
  <advance width="600"/>
  <unicode hex="04B1"/>
  <outline>
    <contour>
      <point x="96" y="0" type="line"/>
      <point x="504" y="0" type="line"/>
      <point x="504" y="65" type="line"/>
      <point x="174" y="65" type="line"/>
      <point x="96" y="59" type="line"/>
    </contour>
    <contour>
      <point x="254" y="-200" type="line"/>
      <point x="353" y="-200" type="line"/>
      <point x="353" y="0" type="line"/>
      <point x="554" y="489" type="line"/>
      <point x="458" y="489" type="line"/>
      <point x="356" y="230" type="line"/>
      <point x="337" y="180"/>
      <point x="321" y="131"/>
      <point x="305" y="85" type="curve"/>
      <point x="301" y="85" type="line"/>
      <point x="285" y="131"/>
      <point x="268" y="180"/>
      <point x="249" y="230" type="curve"/>
      <point x="146" y="489" type="line"/>
      <point x="46" y="489" type="line"/>
      <point x="254" y="0" type="line"/>
    </contour>
  </outline>
</glyph>
<glyph name="hadescender" format="1">
  <advance width="600"/>
  <unicode hex="04B3"/>
  <outline>
    <contour>
      <point x="470" y="-172" type="line"/>
      <point x="555" y="-172" type="line"/>
      <point x="564" y="16" type="line"/>
      <point x="564" y="80" type="line"/>
      <point x="453" y="80" type="line"/>
      <point x="453" y="0" type="line"/>
      <point x="470" y="0" type="line"/>
    </contour>
    <component base="ha"/>
  </outline>
</glyph>
<glyph name="Chedescender" format="1">
  <advance width="600"/>
  <unicode hex="04B6"/>
  <outline>
    <contour>
      <point x="415" y="0" type="line"/>
      <point x="515" y="0" type="line"/>
      <point x="515" y="655" type="line"/>
      <point x="415" y="655" type="line"/>
      <point x="415" y="367" type="line"/>
      <point x="390" y="362"/>
      <point x="356" y="358"/>
      <point x="309" y="358" type="curve" smooth="yes"/>
      <point x="211" y="358"/>
      <point x="158" y="393"/>
      <point x="158" y="499" type="curve" smooth="yes"/>
      <point x="158" y="655" type="line"/>
      <point x="60" y="655" type="line"/>
      <point x="60" y="499" type="line" smooth="yes"/>
      <point x="60" y="335"/>
      <point x="150" y="277"/>
      <point x="300" y="277" type="curve" smooth="yes"/>
      <point x="349" y="277"/>
      <point x="384" y="281"/>
      <point x="415" y="286" type="curve"/>
    </contour>
    <contour>
      <point x="494" y="-188" type="line"/>
      <point x="577" y="-188" type="line"/>
      <point x="587" y="24" type="line"/>
      <point x="587" y="84" type="line"/>
      <point x="457" y="84" type="line"/>
      <point x="457" y="0" type="line"/>
      <point x="494" y="0" type="line"/>
    </contour>
  </outline>
</glyph>
<glyph name="Shha" format="1">
	<unicode hex="04BA"/>
	<advance width="600"/>
	<outline>
		<contour>
			<point x="83" y="0" type="line"/>
			<point x="183" y="0" type="line"/>
			<point x="183" y="321" type="line"/>
			<point x="209" y="326"/>
			<point x="241" y="330"/>
			<point x="287" y="330" type="curve" smooth="yes"/>
			<point x="387" y="330"/>
			<point x="440" y="296"/>
			<point x="440" y="191" type="curve" smooth="yes"/>
			<point x="440" y="0" type="line"/>
			<point x="538" y="0" type="line"/>
			<point x="538" y="191" type="line" smooth="yes"/>
			<point x="538" y="354"/>
			<point x="447" y="412"/>
			<point x="297" y="412" type="curve" smooth="yes"/>
			<point x="248" y="412"/>
			<point x="215" y="407"/>
			<point x="183" y="402" type="curve"/>
			<point x="183" y="655" type="line"/>
			<point x="83" y="655" type="line"/>
		</contour>
	</outline>
</glyph>
<glyph name="figuredash" format="1">
	<unicode hex="2012"/>
	<advance width="600"/>
	<outline>
		<contour>
			<point x="80" y="212" type="line"/>
			<point x="520" y="212" type="line"/>
			<point x="520" y="293" type="line"/>
			<point x="80" y="293" type="line"/>
		</contour>
	</outline>
</glyph>
<glyph name="underscoredbl" format="1">
	<unicode hex="2017"/>
	<advance width="600"/>
	<outline>
		<contour>
			<point x="60" y="-135" type="line"/>
			<point x="540" y="-135" type="line"/>
			<point x="540" y="-65" type="line"/>
			<point x="60" y="-65" type="line"/>
		</contour>
		<contour>
			<point x="60" y="-265" type="line"/>
			<point x="540" y="-265" type="line"/>
			<point x="540" y="-195" type="line"/>
			<point x="60" y="-195" type="line"/>
		</contour>
	</outline>
</glyph>
<glyph name="quoteleft" format="1">
	<unicode hex="2018"/>
	<advance width="600"/>
	<outline>
		<contour>
			<point x="300" y="334" type="curve" smooth="yes"/>
			<point x="346" y="334"/>
			<point x="379" y="368"/>
			<point x="379" y="418" type="curve" smooth="yes"/>
			<point x="379" y="463"/>
			<point x="348" y="495"/>
			<point x="303" y="495" type="curve" smooth="yes"/>
			<point x="280" y="495"/>
			<point x="256" y="481"/>
			<point x="238" y="463" type="curve"/>
			<point x="294" y="392" type="line"/>
			<point x="278" y="475" type="line"/>
			<point x="278" y="550"/>
			<point x="316" y="605"/>
			<point x="384" y="642" type="curve"/>
			<point x="354" y="698" type="line"/>
			<point x="258" y="650"/>
			<point x="203" y="567"/>
			<point x="203" y="465" type="curve" smooth="yes"/>
			<point x="203" y="383"/>
			<point x="242" y="334"/>
		</contour>
	</outline>
</glyph>
<glyph name="quotereversed" format="1">
	<unicode hex="201B"/>
	<advance width="600"/>
	<outline>
		<contour>
			<point x="356" y="334" type="curve"/>
			<point x="387" y="390" type="line"/>
			<point x="318" y="427"/>
			<point x="280" y="483"/>
			<point x="280" y="558" type="curve" smooth="yes"/>
			<point x="296" y="640" type="line"/>
			<point x="240" y="569" type="line"/>
			<point x="258" y="551"/>
			<point x="283" y="538"/>
			<point x="305" y="538" type="curve" smooth="yes"/>
			<point x="350" y="538"/>
			<point x="381" y="569"/>
			<point x="381" y="615" type="curve" smooth="yes"/>
			<point x="381" y="664"/>
			<point x="348" y="698"/>
			<point x="302" y="698" type="curve" smooth="yes"/>
			<point x="244" y="698"/>
			<point x="205" y="650"/>
			<point x="205" y="567" type="curve" smooth="yes"/>
			<point x="205" y="465"/>
			<point x="260" y="382"/>
		</contour>
	</outline>
</glyph>
<glyph name="dagger" format="1">
  <advance width="600"/>
  <unicode hex="2020"/>
  <outline>
    <contour>
      <point x="259" y="-80" type="line"/>
      <point x="341" y="-80" type="line"/>
      <point x="335" y="478" type="line"/>
      <point x="483" y="472" type="line"/>
      <point x="483" y="554" type="line"/>
      <point x="335" y="548" type="line"/>
      <point x="341" y="712" type="line"/>
      <point x="259" y="712" type="line"/>
      <point x="265" y="548" type="line"/>
      <point x="117" y="554" type="line"/>
      <point x="117" y="472" type="line"/>
      <point x="265" y="478" type="line"/>
    </contour>
  </outline>
</glyph>
<glyph name="primereversed" format="1">
  <advance width="600"/>
  <unicode hex="2035"/>
  <outline>
    <contour>
      <point x="285" y="413" type="line"/>
      <point x="350" y="413" type="line"/>
      <point x="328" y="689" type="line"/>
      <point x="230" y="689" type="line"/>
      <point x="248" y="578" type="line"/>
    </contour>
  </outline>
</glyph>
<glyph name="interrobang" format="1">
  <advance width="600"/>
  <unicode hex="203D"/>
  <outline>
    <contour>
      <point x="275" y="238" type="curve"/>
      <point x="317" y="238" type="line"/>
      <point x="304" y="342"/>
      <point x="490" y="363"/>
      <point x="490" y="522" type="curve" smooth="yes"/>
      <point x="490" y="617"/>
      <point x="408" y="682"/>
      <point x="287" y="682" type="curve" smooth="yes"/>
      <point x="208" y="682"/>
      <point x="135" y="649"/>
      <point x="86" y="595" type="curve"/>
      <point x="143" y="543" type="line"/>
      <point x="182" y="584"/>
      <point x="226" y="605"/>
      <point x="280" y="605" type="curve" smooth="yes"/>
      <point x="355" y="605"/>
      <point x="399" y="564"/>
      <point x="399" y="506" type="curve" smooth="yes"/>
      <point x="399" y="387"/>
      <point x="249" y="376"/>
    </contour>
    <contour>
      <point x="248" y="238" type="line"/>
      <point x="308" y="238" type="line"/>
      <point x="311" y="446" type="line"/>
      <point x="312" y="526" type="line"/>
      <point x="229" y="526" type="line"/>
      <point x="235" y="446" type="line"/>
    </contour>
    <contour>
      <point x="281" y="-12" type="curve" smooth="yes"/>
      <point x="323" y="-12"/>
      <point x="356" y="21"/>
      <point x="356" y="68" type="curve" smooth="yes"/>
      <point x="356" y="116"/>
      <point x="323" y="149"/>
      <point x="281" y="149" type="curve" smooth="yes"/>
      <point x="240" y="149"/>
      <point x="206" y="116"/>
      <point x="206" y="68" type="curve" smooth="yes"/>
      <point x="206" y="21"/>
      <point x="240" y="-12"/>
    </contour>
  </outline>
</glyph>
<glyph name="overline" format="1">
  <advance width="600"/>
  <unicode hex="203E"/>
  <outline>
    <contour>
      <point x="62" y="579" type="line"/>
      <point x="538" y="579" type="line"/>
      <point x="538" y="641" type="line"/>
      <point x="62" y="641" type="line"/>
    </contour>
  </outline>
</glyph>
<glyph name="questionexclam" format="1">
  <advance width="600"/>
  <unicode hex="2048"/>
  <outline>
    <contour>
      <point x="96" y="238" type="curve"/>
      <point x="178" y="238" type="line"/>
      <point x="160" y="364"/>
      <point x="294" y="408"/>
      <point x="294" y="549" type="curve" smooth="yes"/>
      <point x="294" y="626"/>
      <point x="236" y="682"/>
      <point x="152" y="682" type="curve" smooth="yes"/>
      <point x="97" y="682"/>
      <point x="51" y="660"/>
      <point x="12" y="617" type="curve"/>
      <point x="59" y="559" type="line"/>
      <point x="84" y="589"/>
      <point x="105" y="601"/>
      <point x="134" y="601" type="curve" smooth="yes"/>
      <point x="176" y="601"/>
      <point x="198" y="570"/>
      <point x="198" y="531" type="curve" smooth="yes"/>
      <point x="198" y="429"/>
      <point x="72" y="375"/>
    </contour>
    <contour>
      <point x="146" y="-12" type="curve" smooth="yes"/>
      <point x="190" y="-12"/>
      <point x="226" y="21"/>
      <point x="226" y="72" type="curve" smooth="yes"/>
      <point x="226" y="122"/>
      <point x="190" y="155"/>
      <point x="146" y="155" type="curve" smooth="yes"/>
      <point x="102" y="155"/>
      <point x="66" y="122"/>
      <point x="66" y="72" type="curve" smooth="yes"/>
      <point x="66" y="21"/>
      <point x="102" y="-12"/>
    </contour>
    <component base="exclam" xOffset="140"/>
  </outline>
</glyph>
<glyph name="colonmonetary" format="1">
  <advance width="600"/>
  <unicode hex="20A1"/>
  <outline>
    <contour>
      <point x="356" y="-12" type="curve" smooth="yes"/>
      <point x="437" y="-12"/>
      <point x="499" y="22"/>
      <point x="550" y="81" type="curve"/>
      <point x="493" y="133" type="line"/>
      <point x="455" y="90"/>
      <point x="416" y="66"/>
      <point x="362" y="66" type="curve" smooth="yes"/>
      <point x="255" y="66"/>
      <point x="193" y="163"/>
      <point x="193" y="320" type="curve" smooth="yes"/>
      <point x="193" y="475"/>
      <point x="254" y="571"/>
      <point x="366" y="571" type="curve" smooth="yes"/>
      <point x="415" y="571"/>
      <point x="451" y="548"/>
      <point x="484" y="516" type="curve"/>
      <point x="542" y="571" type="line"/>
      <point x="499" y="617"/>
      <point x="437" y="649"/>
      <point x="372" y="649" type="curve" smooth="yes"/>
      <point x="203" y="649"/>
      <point x="92" y="524"/>
      <point x="92" y="317" type="curve" smooth="yes"/>
      <point x="92" y="109"/>
      <point x="201" y="-12"/>
    </contour>
    <contour>
      <point x="219" y="-102" type="line"/>
      <point x="268" y="-110" type="line"/>
      <point x="368" y="741" type="line"/>
      <point x="319" y="749" type="line"/>
    </contour>
    <contour>
      <point x="325" y="-102" type="line"/>
      <point x="374" y="-110" type="line"/>
      <point x="474" y="741" type="line"/>
      <point x="425" y="749" type="line"/>
    </contour>
  </outline>
</glyph>
<glyph name="franc" format="1">
  <advance width="600"/>
  <unicode hex="20A3"/>
  <outline>
    <contour>
      <point x="143" y="0" type="line"/>
      <point x="242" y="0" type="line"/>
      <point x="242" y="291" type="line"/>
      <point x="487" y="291" type="line"/>
      <point x="487" y="375" type="line"/>
      <point x="242" y="375" type="line"/>
      <point x="242" y="553" type="line"/>
      <point x="534" y="553" type="line"/>
      <point x="534" y="637" type="line"/>
      <point x="143" y="637" type="line"/>
    </contour>
    <contour>
      <point x="65" y="117" type="line"/>
      <point x="398" y="117" type="line"/>
      <point x="398" y="182" type="line"/>
      <point x="145" y="182" type="line"/>
      <point x="65" y="178" type="line"/>
    </contour>
  </outline>
</glyph>
<glyph name="lira" format="1">
  <advance width="600"/>
  <unicode hex="20A4"/>
  <outline>
    <contour>
      <point x="75" y="0" type="line"/>
      <point x="536" y="0" type="line"/>
      <point x="536" y="84" type="line"/>
      <point x="217" y="84" type="line"/>
      <point x="217" y="88" type="line"/>
      <point x="263" y="129"/>
      <point x="284" y="168"/>
      <point x="284" y="233" type="curve" smooth="yes"/>
      <point x="284" y="317"/>
      <point x="236" y="383"/>
      <point x="236" y="456" type="curve" smooth="yes"/>
      <point x="236" y="524"/>
      <point x="282" y="568"/>
      <point x="363" y="568" type="curve" smooth="yes"/>
      <point x="414" y="568"/>
      <point x="449" y="547"/>
      <point x="479" y="517" type="curve"/>
      <point x="535" y="572" type="line"/>
      <point x="494" y="618"/>
      <point x="438" y="649"/>
      <point x="357" y="649" type="curve" smooth="yes"/>
      <point x="228" y="649"/>
      <point x="142" y="576"/>
      <point x="142" y="460" type="curve" smooth="yes"/>
      <point x="142" y="386"/>
      <point x="198" y="311"/>
      <point x="198" y="234" type="curve" smooth="yes"/>
      <point x="198" y="159"/>
      <point x="154" y="95"/>
      <point x="75" y="61" type="curve"/>
    </contour>
    <contour>
      <point x="76" y="349" type="line"/>
      <point x="446" y="349" type="line"/>
      <point x="446" y="404" type="line"/>
      <point x="161" y="404" type="line"/>
      <point x="76" y="401" type="line"/>
    </contour>
    <contour>
      <point x="76" y="232" type="line"/>
      <point x="446" y="232" type="line"/>
      <point x="446" y="287" type="line"/>
      <point x="161" y="287" type="line"/>
      <point x="76" y="282" type="line"/>
    </contour>
  </outline>
</glyph>
<glyph name="naira" format="1">
  <advance width="600"/>
  <unicode hex="20A6"/>
  <outline>
    <contour>
      <point x="115" y="0" type="line"/>
      <point x="190" y="0" type="line"/>
      <point x="190" y="266" type="line"/>
      <point x="172" y="554" type="line"/>
      <point x="176" y="554" type="line"/>
      <point x="248" y="362" type="line"/>
      <point x="388" y="0" type="line"/>
      <point x="485" y="0" type="line"/>
      <point x="485" y="637" type="line"/>
      <point x="410" y="637" type="line"/>
      <point x="410" y="371" type="line"/>
      <point x="428" y="83" type="line"/>
      <point x="424" y="83" type="line"/>
      <point x="352" y="276" type="line"/>
      <point x="212" y="637" type="line"/>
      <point x="115" y="637" type="line"/>
    </contour>
    <contour>
      <point x="42" y="349" type="line"/>
      <point x="556" y="349" type="line"/>
      <point x="556" y="395" type="line"/>
      <point x="115" y="395" type="line"/>
      <point x="42" y="390" type="line"/>
    </contour>
    <contour>
      <point x="42" y="241" type="line"/>
      <point x="556" y="241" type="line"/>
      <point x="556" y="288" type="line"/>
      <point x="115" y="288" type="line"/>
      <point x="42" y="283" type="line"/>
    </contour>
  </outline>
</glyph>
<glyph name="won" format="1">
  <advance width="600"/>
  <unicode hex="20A9"/>
  <outline>
    <contour>
      <point x="134" y="0" type="line"/>
      <point x="251" y="0" type="line"/>
      <point x="285" y="340" type="line"/>
      <point x="298" y="518" type="line"/>
      <point x="302" y="518" type="line"/>
      <point x="315" y="340" type="line"/>
      <point x="352" y="0" type="line"/>
      <point x="474" y="0" type="line"/>
      <point x="543" y="637" type="line"/>
      <point x="460" y="637" type="line"/>
      <point x="423" y="211" type="line"/>
      <point x="412" y="77" type="line"/>
      <point x="408" y="77" type="line"/>
      <point x="396" y="211" type="line"/>
      <point x="355" y="597" type="line"/>
      <point x="252" y="597" type="line"/>
      <point x="211" y="211" type="line"/>
      <point x="199" y="77" type="line"/>
      <point x="195" y="77" type="line"/>
      <point x="187" y="211" type="line"/>
      <point x="148" y="637" type="line"/>
      <point x="58" y="637" type="line"/>
    </contour>
    <contour>
      <point x="23" y="295" type="line"/>
      <point x="576" y="295" type="line"/>
      <point x="576" y="354" type="line"/>
      <point x="96" y="354" type="line"/>
      <point x="23" y="348" type="line"/>
    </contour>
  </outline>
</glyph>
<glyph name="Euro" format="1">
  <advance width="600"/>
  <unicode hex="20AC"/>
  <outline>
    <contour>
      <point x="376" y="-12" type="curve" smooth="yes"/>
      <point x="458" y="-12"/>
      <point x="519" y="22"/>
      <point x="570" y="81" type="curve"/>
      <point x="513" y="133" type="line"/>
      <point x="476" y="90"/>
      <point x="436" y="67"/>
      <point x="382" y="67" type="curve" smooth="yes"/>
      <point x="275" y="67"/>
      <point x="213" y="163"/>
      <point x="213" y="320" type="curve" smooth="yes"/>
      <point x="213" y="475"/>
      <point x="274" y="571"/>
      <point x="386" y="571" type="curve" smooth="yes"/>
      <point x="434" y="571"/>
      <point x="471" y="548"/>
      <point x="504" y="516" type="curve"/>
      <point x="561" y="571" type="line"/>
      <point x="520" y="617"/>
      <point x="457" y="649"/>
      <point x="389" y="649" type="curve" smooth="yes"/>
      <point x="223" y="649"/>
      <point x="112" y="524"/>
      <point x="112" y="317" type="curve" smooth="yes"/>
      <point x="112" y="109"/>
      <point x="221" y="-12"/>
    </contour>
    <contour>
      <point x="54" y="349" type="line"/>
      <point x="503" y="349" type="line"/>
      <point x="503" y="404" type="line"/>
      <point x="125" y="404" type="line"/>
      <point x="54" y="399" type="line"/>
    </contour>
    <contour>
      <point x="54" y="232" type="line"/>
      <point x="463" y="232" type="line"/>
      <point x="463" y="287" type="line"/>
      <point x="124" y="287" type="line"/>
      <point x="54" y="282" type="line"/>
    </contour>
  </outline>
</glyph>
<glyph name="peso" format="1">
	<unicode hex="20B1"/>
	<advance width="600"/>
	<outline>
		<contour>
			<point x="126" y="0" type="line"/>
			<point x="220" y="0" type="line"/>
			<point x="220" y="237" type="line"/>
			<point x="283" y="237" type="line" smooth="yes"/>
			<point x="412" y="237"/>
			<point x="512" y="301"/>
			<point x="512" y="438" type="curve" smooth="yes"/>
			<point x="512" y="585"/>
			<point x="413" y="637"/>
			<point x="283" y="637" type="curve" smooth="yes"/>
			<point x="126" y="637" type="line"/>
		</contour>
		<contour>
			<point x="220" y="303" type="line"/>
			<point x="220" y="571" type="line"/>
			<point x="273" y="571" type="line" smooth="yes"/>
			<point x="366" y="571"/>
			<point x="418" y="534"/>
			<point x="418" y="438" type="curve" smooth="yes"/>
			<point x="418" y="350"/>
			<point x="366" y="303"/>
			<point x="273" y="303" type="curve" smooth="yes"/>
		</contour>
		<contour>
			<point x="36" y="469" type="line"/>
			<point x="585" y="469" type="line"/>
			<point x="585" y="518" type="line"/>
			<point x="131" y="518" type="line"/>
			<point x="36" y="512" type="line"/>
		</contour>
		<contour>
			<point x="36" y="365" type="line"/>
			<point x="585" y="365" type="line"/>
			<point x="585" y="414" type="line"/>
			<point x="131" y="414" type="line"/>
			<point x="36" y="408" type="line"/>
		</contour>
	</outline>
</glyph>
<glyph name="cedi" format="1">
  <advance width="600"/>
  <unicode hex="20B5"/>
  <outline>
    <contour>
      <point x="356" y="-12" type="curve" smooth="yes"/>
      <point x="438" y="-12"/>
      <point x="499" y="22"/>
      <point x="550" y="81" type="curve"/>
      <point x="493" y="133" type="line"/>
      <point x="456" y="90"/>
      <point x="416" y="67"/>
      <point x="362" y="67" type="curve" smooth="yes"/>
      <point x="255" y="67"/>
      <point x="193" y="163"/>
      <point x="193" y="320" type="curve" smooth="yes"/>
      <point x="193" y="475"/>
      <point x="254" y="571"/>
      <point x="366" y="571" type="curve" smooth="yes"/>
      <point x="414" y="571"/>
      <point x="451" y="548"/>
      <point x="484" y="516" type="curve"/>
      <point x="541" y="571" type="line"/>
      <point x="500" y="617"/>
      <point x="437" y="649"/>
      <point x="369" y="649" type="curve" smooth="yes"/>
      <point x="203" y="649"/>
      <point x="92" y="524"/>
      <point x="92" y="317" type="curve" smooth="yes"/>
      <point x="92" y="109"/>
      <point x="201" y="-12"/>
    </contour>
    <contour>
      <point x="328" y="-110" type="line"/>
      <point x="388" y="-110" type="line"/>
      <point x="388" y="742" type="line"/>
      <point x="328" y="742" type="line"/>
    </contour>
  </outline>
</glyph>
